<?xml version="1.0" encoding="UTF-8" standalone="no"?>
<!-- Created with Inkscape (http://www.inkscape.org/) -->

<svg
   xmlns:dc="http://purl.org/dc/elements/1.1/"
   xmlns:cc="http://creativecommons.org/ns#"
   xmlns:rdf="http://www.w3.org/1999/02/22-rdf-syntax-ns#"
   xmlns:svg="http://www.w3.org/2000/svg"
   xmlns="http://www.w3.org/2000/svg"
   xmlns:sodipodi="http://sodipodi.sourceforge.net/DTD/sodipodi-0.dtd"
   xmlns:inkscape="http://www.inkscape.org/namespaces/inkscape"
   width="64px"
   height="64px"
   id="svg2985"
   version="1.1"
   inkscape:version="0.48.2 r9819"
   sodipodi:docname="bk.svg">
  <defs
     id="defs2987" />
  <sodipodi:namedview
     id="base"
     pagecolor="#4d4bfa"
     bordercolor="#666666"
     borderopacity="1.0"
     inkscape:pageopacity="0"
     inkscape:pageshadow="2"
     inkscape:zoom="10.765625"
     inkscape:cx="32"
     inkscape:cy="32"
     inkscape:current-layer="layer1"
     showgrid="true"
     inkscape:document-units="px"
     inkscape:grid-bbox="true"
     inkscape:window-width="1408"
     inkscape:window-height="878"
     inkscape:window-x="24"
     inkscape:window-y="-8"
     inkscape:window-maximized="1" />
  <metadata
     id="metadata2990">
    <rdf:RDF>
      <cc:Work
         rdf:about="">
        <dc:format>image/svg+xml</dc:format>
        <dc:type
           rdf:resource="http://purl.org/dc/dcmitype/StillImage" />
        <dc:title />
      </cc:Work>
    </rdf:RDF>
  </metadata>
  <g
     id="layer1"
     inkscape:label="Layer 1"
     inkscape:groupmode="layer">
    <g
       style="font-size:74.16000366px;font-style:normal;font-variant:normal;font-weight:normal;font-stretch:normal;line-height:125%;letter-spacing:0px;word-spacing:0px;fill:#4d4d4d;fill-opacity:1;stroke:none;font-family:DiagramTTHabsburg;-inkscape-font-specification:DiagramTTHabsburg"
       id="text5339-0-4"
       transform="matrix(0.86,0,0,0.86,-59.966167,-13.174938)">
      <path
         sodipodi:type="inkscape:offset"
         inkscape:radius="1.5"
         inkscape:original="M 32 1.59375 C 31.109778 1.5937952 30.656214 2.048868 30.65625 2.9375 L 30.65625 5.90625 L 27.6875 5.90625 C 26.798791 5.9062909 26.374968 6.3286049 26.375 7.21875 C 26.374968 8.1089743 26.798791 8.5625382 27.6875 8.5625 L 30.65625 8.5625 L 30.65625 13.6875 C 29.025214 14.033045 27.687909 14.833189 26.625 16.09375 C 25.562028 17.354373 25.03122 18.819237 25.03125 20.5 C 25.03122 20.797257 25.088641 21.199752 25.1875 21.71875 C 25.28629 22.237798 25.370648 22.640293 25.46875 22.9375 C 24.085161 21.799898 22.43456 20.910556 20.53125 20.21875 C 18.627889 19.526998 16.76764 19.156278 14.9375 19.15625 C 13.306481 19.156278 11.764373 19.482283 10.28125 20.125 C 8.7980967 20.76777 7.4806101 21.669298 6.34375 22.78125 C 5.2068671 23.893251 4.2989847 25.179487 3.65625 26.6875 C 3.0134977 28.195553 2.7187422 29.775266 2.71875 31.40625 C 2.7187422 33.532147 3.3267932 35.437111 4.5625 37.09375 C 5.7981874 38.750409 7.4409249 40.483854 9.46875 42.3125 C 11.099735 43.795643 11.977121 44.799079 12.125 45.34375 L 13.59375 51.28125 L 10.78125 58.90625 C 13.994952 60.043864 17.448378 60.907031 21.15625 61.5 C 24.864069 62.092938 28.489014 62.406234 32 62.40625 C 35.510912 62.406234 39.135857 62.092938 42.84375 61.5 C 46.551548 60.907031 50.004974 60.043864 53.21875 58.90625 L 50.40625 51.28125 L 51.875 45.34375 C 52.022805 44.799079 52.900191 43.795643 54.53125 42.3125 C 56.608791 40.483854 58.257883 38.750409 59.46875 37.09375 C 60.679487 35.437111 61.281183 33.532147 61.28125 31.40625 C 61.281183 29.725476 60.986429 28.139409 60.34375 26.65625 C 59.700942 25.173132 58.799413 23.893251 57.6875 22.78125 C 56.575461 21.669298 55.295579 20.76777 53.8125 20.125 C 52.329303 19.482283 50.743235 19.156278 49.0625 19.15625 C 47.232286 19.156278 45.378392 19.526998 43.5 20.21875 C 41.621511 20.910556 39.964554 21.799898 38.53125 22.9375 C 38.62928 22.640293 38.713631 22.237798 38.8125 21.71875 C 38.91128 21.199752 38.968706 20.797257 38.96875 20.5 C 38.968706 18.819237 38.437898 17.354373 37.375 16.09375 C 36.312017 14.833189 34.974711 14.033045 33.34375 13.6875 L 33.34375 8.5625 L 36.3125 8.5625 C 37.201135 8.5625382 37.624958 8.1089743 37.625 7.21875 C 37.624958 6.3286049 37.201135 5.9062909 36.3125 5.90625 L 33.34375 5.90625 L 33.34375 2.9375 C 33.343712 2.048868 32.890148 1.5937952 32 1.59375 z M 32 16.21875 C 33.18587 16.21878 34.190061 16.628385 35.03125 17.46875 C 35.872359 18.309174 36.312459 19.314119 36.3125 20.5 C 36.312459 21.687442 36.077161 22.875861 35.65625 24.0625 C 35.235257 25.249184 34.621606 26.694229 33.78125 28.375 C 32.892536 30.153879 32.297194 31.48483 32 32.375 C 31.702732 31.48483 31.10739 30.153879 30.21875 28.375 C 29.37832 26.594649 28.764668 25.136894 28.34375 24 C 27.922765 22.863151 27.687467 21.687442 27.6875 20.5 C 27.687467 19.314119 28.127567 18.309174 28.96875 17.46875 C 29.809865 16.628385 30.814056 16.21878 32 16.21875 z M 32 18.875 C 31.554871 18.875028 31.165086 19.015297 30.84375 19.3125 C 30.522342 19.609759 30.374964 19.992434 30.375 20.4375 C 30.374964 21.623433 30.828528 23.209501 31.71875 25.1875 L 32 25.84375 L 32.28125 25.1875 C 33.171397 23.209501 33.624962 21.623433 33.625 20.4375 C 33.624962 19.992434 33.477584 19.609759 33.15625 19.3125 C 32.83484 19.015297 32.445055 18.875028 32 18.875 z M 14.9375 21.84375 C 17.063362 21.843775 19.095884 22.310803 21 23.25 C 22.904064 24.189244 24.572976 25.513085 26.03125 27.21875 C 27.489462 28.924454 28.621966 30.900307 29.4375 33.125 C 30.252965 35.349722 30.656214 37.683354 30.65625 40.15625 L 30.65625 42.84375 C 28.282891 42.843754 25.698988 43.004596 22.90625 43.375 C 20.113456 43.745411 17.389285 44.250799 14.71875 44.84375 C 14.668941 44.250799 14.387649 43.617853 13.84375 43 C 13.299813 42.382155 12.43589 41.512632 11.25 40.375 C 9.3715426 38.644427 7.9201433 37.115784 6.90625 35.78125 C 5.8923328 34.446739 5.3749895 32.988983 5.375 31.40625 C 5.3749895 28.78701 6.3082917 26.535467 8.1875 24.65625 C 10.066682 22.777077 12.318225 21.843775 14.9375 21.84375 z M 49.0625 21.84375 C 51.681701 21.843775 53.933244 22.777077 55.8125 24.65625 C 57.691634 26.535467 58.624936 28.78701 58.625 31.40625 C 58.624936 32.988983 58.107593 34.446739 57.09375 35.78125 C 56.079782 37.115784 54.628383 38.644427 52.75 40.375 C 51.612317 41.462842 50.786754 42.32601 50.21875 42.96875 C 49.650636 43.611497 49.330985 44.250799 49.28125 44.84375 C 46.610641 44.250799 43.88647 43.745411 41.09375 43.375 C 38.300938 43.004596 35.717035 42.843754 33.34375 42.84375 L 33.34375 40.15625 C 33.343712 37.683354 33.746961 35.349722 34.5625 33.125 C 35.37796 30.900307 36.510464 28.924454 37.96875 27.21875 C 39.42695 25.513085 41.095862 24.189244 43 23.25 C 44.904042 22.310803 46.936564 21.843775 49.0625 21.84375 z M 14.9375 24.5 C 13.05904 24.500022 11.453153 25.203103 10.09375 26.5625 C 8.7343174 27.921938 8.0312368 29.527824 8.03125 31.40625 C 8.0312368 32.494101 8.4848009 33.568427 9.375 34.65625 C 10.26517 35.744098 11.569192 37.10479 13.25 38.6875 C 14.880981 40.120856 15.885926 41.125802 16.28125 41.71875 C 18.159669 41.373243 20.135522 41.053592 22.1875 40.78125 C 24.239424 40.508919 26.169808 40.316828 28 40.21875 C 27.999967 38.043085 27.667607 36.028348 27 34.125 C 26.33233 32.221677 25.399027 30.521515 24.1875 29.0625 C 22.975914 27.60352 21.581939 26.478126 20 25.6875 C 18.418011 24.896916 16.71785 24.500022 14.9375 24.5 z M 49.0625 24.5 C 47.282076 24.500022 45.581914 24.896916 44 25.6875 C 42.417987 26.478126 41.024012 27.60352 39.8125 29.0625 C 38.600899 30.521515 37.667596 32.221677 37 34.125 C 36.332319 36.028348 35.999959 38.043085 36 40.21875 C 37.830118 40.31683 39.760502 40.508919 41.8125 40.78125 C 43.864404 41.053592 45.840257 41.373243 47.71875 41.71875 C 48.114 41.125802 49.118945 40.120856 50.75 38.6875 C 52.430733 37.15458 53.734756 35.831493 54.625 34.71875 C 55.515125 33.606031 55.968689 32.494101 55.96875 31.40625 C 55.968689 29.527824 55.265608 27.921938 53.90625 26.5625 C 52.546773 25.203103 50.940886 24.500022 49.0625 24.5 z M 32 46.96875 C 34.570937 46.96875 37.224974 47.154487 39.96875 47.5 C 42.712435 47.845512 45.481322 48.311786 48.25 48.90625 L 47.65625 51.5 C 45.085223 50.907042 42.451004 50.446368 39.78125 50.125 C 37.111405 49.803624 34.521147 49.656248 32 49.65625 C 29.478779 49.656248 26.888521 49.803624 24.21875 50.125 C 21.548921 50.446368 18.914703 50.907042 16.34375 51.5 L 15.75 48.90625 C 18.419024 48.311786 21.175201 47.845512 23.96875 47.5 C 26.762242 47.154487 29.428989 46.96875 32 46.96875 z M 32 52.3125 C 34.620727 52.312495 37.351254 52.510942 40.21875 52.90625 C 43.086155 53.301547 45.93153 53.838708 48.75 54.53125 L 49.71875 57.125 L 49.0625 57.375 C 46.29382 56.634175 43.435735 56.045943 40.46875 55.625 C 37.501673 55.204039 34.669008 54.999992 32 55 C 29.379199 54.999992 26.584893 55.204039 23.59375 55.625 C 20.60255 56.045943 17.706106 56.634175 14.9375 57.375 L 14.28125 57.125 L 15.25 54.53125 C 18.118185 53.838708 20.962806 53.301547 23.78125 52.90625 C 26.599636 52.510942 29.330918 52.312495 32 52.3125 z "
         style="fill:#4d4d4d"
         id="path3124-8"
         d="m 32,0.09375 c -0.700693,3.558e-5 -1.488209,0.20647689 -2.0625,0.78125 -0.574291,0.5747731 -0.781278,1.3629701 -0.78125,2.0625 l 0,1.46875 -1.46875,0 c -0.681943,3.14e-5 -1.482933,0.1709365 -2.0625,0.75 -0.579567,0.5790635 -0.750025,1.3793549 -0.75,2.0625 -2.5e-5,0.6831641 0.183274,1.4758667 0.75,2.0625 0.566726,0.5866333 1.362954,0.78128 2.0625,0.78125 l 1.46875,0 0,2.625 c -1.409722,0.518937 -2.705071,1.272385 -3.6875,2.4375 -1.155777,1.370684 -1.731341,3.055308 -1.84375,4.84375 -0.821234,-0.432359 -1.67821,-0.823474 -2.59375,-1.15625 -2.036553,-0.740159 -4.061062,-1.156219 -6.09375,-1.15625 -1.830881,3.1e-5 -3.588605,0.373778 -5.25,1.09375 -1.6553132,0.717381 -3.1449857,1.735119 -4.40625,2.96875 -1.2648571,1.237174 -2.2781263,2.681307 -3,4.375 -0.7260406,1.703467 -1.0625087,3.500789 -1.0625,5.3125 -8.8e-6,2.411921 0.7320425,4.684399 2.15625,6.59375 1.3167966,1.7654 3.0150143,3.562944 5.09375,5.4375 0.78997,0.718363 1.3693964,1.284179 1.75,1.71875 0.358521,0.409357 0.473991,0.713559 0.4375,0.5625 l 1.375,5.5 L 9.375,58.375 a 1.50015,1.50015 0 0 0 0.90625,1.9375 c 3.307362,1.170768 6.836399,2.050371 10.625,2.65625 3.776994,0.604 7.493536,0.937484 11.09375,0.9375 3.600142,-1.6e-5 7.316686,-0.333501 11.09375,-0.9375 3.788526,-0.605879 7.317573,-1.485485 10.625,-2.65625 A 1.50015,1.50015 0 0 0 54.625,58.375 l -2.65625,-7.15625 1.375,-5.5 c -0.03651,0.151196 0.07899,-0.153158 0.4375,-0.5625 0.38059,-0.434555 0.959998,-1.000391 1.75,-1.71875 2.134935,-1.879164 3.856673,-3.690721 5.15625,-5.46875 1.394272,-1.907768 2.093674,-4.1536 2.09375,-6.5625 -7.4e-5,-1.856104 -0.331232,-3.656147 -1.0625,-5.34375 C 60.997658,24.39876 59.98218,22.951028 58.75,21.71875 57.517688,20.486534 56.069967,19.471059 54.40625,18.75 52.734881,18.025742 50.937185,17.656281 49.0625,17.65625 c -2.032754,3.1e-5 -4.078102,0.413951 -6.09375,1.15625 -0.911038,0.335515 -1.767016,0.721121 -2.59375,1.15625 -0.11247,-1.788405 -0.68806,-3.473074 -1.84375,-4.84375 -0.982473,-1.165086 -2.277818,-1.918566 -3.6875,-2.4375 l 0,-2.625 1.46875,0 c 0.69953,3e-5 1.495803,-0.1946473 2.0625,-0.78125 0.566697,-0.5866027 0.749968,-1.3793571 0.75,-2.0625 -3.2e-5,-0.6831254 -0.170463,-1.4834666 -0.75,-2.0625 -0.579537,-0.5790334 -1.380574,-0.7499686 -2.0625,-0.75 l -1.46875,0 0,-1.46875 C 34.84372,2.2379914 34.636762,1.449744 34.0625,0.875 33.488238,0.30025602 32.700677,0.09378558 32,0.09375 z M 31.3125,27.1875 a 1.50015,1.50015 0 0 0 1.34375,0 c -0.0963,0.199238 -0.115228,0.3242 -0.21875,0.53125 C 32.228365,28.137361 32.178392,28.315877 32,28.6875 31.826407,28.325854 31.765195,28.156105 31.5625,27.75 c -0.0051,-0.01083 0.0051,-0.02045 0,-0.03125 -0.103856,-0.22025 -0.153335,-0.32143 -0.25,-0.53125 z m -2.15625,14 0,0.25 c -0.109305,0.0028 -0.233661,0.0278 -0.34375,0.03125 a 1.50015,1.50015 0 0 0 0.34375,-0.28125 z m 5.6875,0 a 1.50015,1.50015 0 0 0 0.34375,0.28125 c -0.110087,-0.0034 -0.234447,-0.02846 -0.34375,-0.03125 l 0,-0.25 z M 15.375,42.90625 a 1.50015,1.50015 0 0 0 0.34375,0.21875 c -0.07303,0.01533 -0.145808,0.04704 -0.21875,0.0625 -0.04777,-0.09239 -0.07086,-0.190815 -0.125,-0.28125 z"
         transform="translate(77.262985,22.970858)" />
    </g>
    <g
       style="font-size:74.16000366px;font-style:normal;font-variant:normal;font-weight:normal;font-stretch:normal;line-height:125%;letter-spacing:0px;word-spacing:0px;fill:#ffffff;fill-opacity:1;stroke:none;font-family:DiagramTTHabsburg;-inkscape-font-specification:DiagramTTHabsburg"
       id="text5339-0"
       transform="matrix(0.86,0,0,0.86,-61.966167,-15.174938)">
      <path
         sodipodi:type="inkscape:offset"
         inkscape:radius="1.5"
         inkscape:original="M 32 1.59375 C 31.109778 1.5937952 30.656214 2.048868 30.65625 2.9375 L 30.65625 5.90625 L 27.6875 5.90625 C 26.798791 5.9062909 26.374968 6.3286049 26.375 7.21875 C 26.374968 8.1089743 26.798791 8.5625382 27.6875 8.5625 L 30.65625 8.5625 L 30.65625 13.6875 C 29.025214 14.033045 27.687909 14.833189 26.625 16.09375 C 25.562028 17.354373 25.03122 18.819237 25.03125 20.5 C 25.03122 20.797257 25.088641 21.199752 25.1875 21.71875 C 25.28629 22.237798 25.370648 22.640293 25.46875 22.9375 C 24.085161 21.799898 22.43456 20.910556 20.53125 20.21875 C 18.627889 19.526998 16.76764 19.156278 14.9375 19.15625 C 13.306481 19.156278 11.764373 19.482283 10.28125 20.125 C 8.7980967 20.76777 7.4806101 21.669298 6.34375 22.78125 C 5.2068671 23.893251 4.2989847 25.179487 3.65625 26.6875 C 3.0134977 28.195553 2.7187422 29.775266 2.71875 31.40625 C 2.7187422 33.532147 3.3267932 35.437111 4.5625 37.09375 C 5.7981874 38.750409 7.4409249 40.483854 9.46875 42.3125 C 11.099735 43.795643 11.977121 44.799079 12.125 45.34375 L 13.59375 51.28125 L 10.78125 58.90625 C 13.994952 60.043864 17.448378 60.907031 21.15625 61.5 C 24.864069 62.092938 28.489014 62.406234 32 62.40625 C 35.510912 62.406234 39.135857 62.092938 42.84375 61.5 C 46.551548 60.907031 50.004974 60.043864 53.21875 58.90625 L 50.40625 51.28125 L 51.875 45.34375 C 52.022805 44.799079 52.900191 43.795643 54.53125 42.3125 C 56.608791 40.483854 58.257883 38.750409 59.46875 37.09375 C 60.679487 35.437111 61.281183 33.532147 61.28125 31.40625 C 61.281183 29.725476 60.986429 28.139409 60.34375 26.65625 C 59.700942 25.173132 58.799413 23.893251 57.6875 22.78125 C 56.575461 21.669298 55.295579 20.76777 53.8125 20.125 C 52.329303 19.482283 50.743235 19.156278 49.0625 19.15625 C 47.232286 19.156278 45.378392 19.526998 43.5 20.21875 C 41.621511 20.910556 39.964554 21.799898 38.53125 22.9375 C 38.62928 22.640293 38.713631 22.237798 38.8125 21.71875 C 38.91128 21.199752 38.968706 20.797257 38.96875 20.5 C 38.968706 18.819237 38.437898 17.354373 37.375 16.09375 C 36.312017 14.833189 34.974711 14.033045 33.34375 13.6875 L 33.34375 8.5625 L 36.3125 8.5625 C 37.201135 8.5625382 37.624958 8.1089743 37.625 7.21875 C 37.624958 6.3286049 37.201135 5.9062909 36.3125 5.90625 L 33.34375 5.90625 L 33.34375 2.9375 C 33.343712 2.048868 32.890148 1.5937952 32 1.59375 z M 32 16.21875 C 33.18587 16.21878 34.190061 16.628385 35.03125 17.46875 C 35.872359 18.309174 36.312459 19.314119 36.3125 20.5 C 36.312459 21.687442 36.077161 22.875861 35.65625 24.0625 C 35.235257 25.249184 34.621606 26.694229 33.78125 28.375 C 32.892536 30.153879 32.297194 31.48483 32 32.375 C 31.702732 31.48483 31.10739 30.153879 30.21875 28.375 C 29.37832 26.594649 28.764668 25.136894 28.34375 24 C 27.922765 22.863151 27.687467 21.687442 27.6875 20.5 C 27.687467 19.314119 28.127567 18.309174 28.96875 17.46875 C 29.809865 16.628385 30.814056 16.21878 32 16.21875 z M 32 18.875 C 31.554871 18.875028 31.165086 19.015297 30.84375 19.3125 C 30.522342 19.609759 30.374964 19.992434 30.375 20.4375 C 30.374964 21.623433 30.828528 23.209501 31.71875 25.1875 L 32 25.84375 L 32.28125 25.1875 C 33.171397 23.209501 33.624962 21.623433 33.625 20.4375 C 33.624962 19.992434 33.477584 19.609759 33.15625 19.3125 C 32.83484 19.015297 32.445055 18.875028 32 18.875 z M 14.9375 21.84375 C 17.063362 21.843775 19.095884 22.310803 21 23.25 C 22.904064 24.189244 24.572976 25.513085 26.03125 27.21875 C 27.489462 28.924454 28.621966 30.900307 29.4375 33.125 C 30.252965 35.349722 30.656214 37.683354 30.65625 40.15625 L 30.65625 42.84375 C 28.282891 42.843754 25.698988 43.004596 22.90625 43.375 C 20.113456 43.745411 17.389285 44.250799 14.71875 44.84375 C 14.668941 44.250799 14.387649 43.617853 13.84375 43 C 13.299813 42.382155 12.43589 41.512632 11.25 40.375 C 9.3715426 38.644427 7.9201433 37.115784 6.90625 35.78125 C 5.8923328 34.446739 5.3749895 32.988983 5.375 31.40625 C 5.3749895 28.78701 6.3082917 26.535467 8.1875 24.65625 C 10.066682 22.777077 12.318225 21.843775 14.9375 21.84375 z M 49.0625 21.84375 C 51.681701 21.843775 53.933244 22.777077 55.8125 24.65625 C 57.691634 26.535467 58.624936 28.78701 58.625 31.40625 C 58.624936 32.988983 58.107593 34.446739 57.09375 35.78125 C 56.079782 37.115784 54.628383 38.644427 52.75 40.375 C 51.612317 41.462842 50.786754 42.32601 50.21875 42.96875 C 49.650636 43.611497 49.330985 44.250799 49.28125 44.84375 C 46.610641 44.250799 43.88647 43.745411 41.09375 43.375 C 38.300938 43.004596 35.717035 42.843754 33.34375 42.84375 L 33.34375 40.15625 C 33.343712 37.683354 33.746961 35.349722 34.5625 33.125 C 35.37796 30.900307 36.510464 28.924454 37.96875 27.21875 C 39.42695 25.513085 41.095862 24.189244 43 23.25 C 44.904042 22.310803 46.936564 21.843775 49.0625 21.84375 z M 14.9375 24.5 C 13.05904 24.500022 11.453153 25.203103 10.09375 26.5625 C 8.7343174 27.921938 8.0312368 29.527824 8.03125 31.40625 C 8.0312368 32.494101 8.4848009 33.568427 9.375 34.65625 C 10.26517 35.744098 11.569192 37.10479 13.25 38.6875 C 14.880981 40.120856 15.885926 41.125802 16.28125 41.71875 C 18.159669 41.373243 20.135522 41.053592 22.1875 40.78125 C 24.239424 40.508919 26.169808 40.316828 28 40.21875 C 27.999967 38.043085 27.667607 36.028348 27 34.125 C 26.33233 32.221677 25.399027 30.521515 24.1875 29.0625 C 22.975914 27.60352 21.581939 26.478126 20 25.6875 C 18.418011 24.896916 16.71785 24.500022 14.9375 24.5 z M 49.0625 24.5 C 47.282076 24.500022 45.581914 24.896916 44 25.6875 C 42.417987 26.478126 41.024012 27.60352 39.8125 29.0625 C 38.600899 30.521515 37.667596 32.221677 37 34.125 C 36.332319 36.028348 35.999959 38.043085 36 40.21875 C 37.830118 40.31683 39.760502 40.508919 41.8125 40.78125 C 43.864404 41.053592 45.840257 41.373243 47.71875 41.71875 C 48.114 41.125802 49.118945 40.120856 50.75 38.6875 C 52.430733 37.15458 53.734756 35.831493 54.625 34.71875 C 55.515125 33.606031 55.968689 32.494101 55.96875 31.40625 C 55.968689 29.527824 55.265608 27.921938 53.90625 26.5625 C 52.546773 25.203103 50.940886 24.500022 49.0625 24.5 z M 32 46.96875 C 34.570937 46.96875 37.224974 47.154487 39.96875 47.5 C 42.712435 47.845512 45.481322 48.311786 48.25 48.90625 L 47.65625 51.5 C 45.085223 50.907042 42.451004 50.446368 39.78125 50.125 C 37.111405 49.803624 34.521147 49.656248 32 49.65625 C 29.478779 49.656248 26.888521 49.803624 24.21875 50.125 C 21.548921 50.446368 18.914703 50.907042 16.34375 51.5 L 15.75 48.90625 C 18.419024 48.311786 21.175201 47.845512 23.96875 47.5 C 26.762242 47.154487 29.428989 46.96875 32 46.96875 z M 32 52.3125 C 34.620727 52.312495 37.351254 52.510942 40.21875 52.90625 C 43.086155 53.301547 45.93153 53.838708 48.75 54.53125 L 49.71875 57.125 L 49.0625 57.375 C 46.29382 56.634175 43.435735 56.045943 40.46875 55.625 C 37.501673 55.204039 34.669008 54.999992 32 55 C 29.379199 54.999992 26.584893 55.204039 23.59375 55.625 C 20.60255 56.045943 17.706106 56.634175 14.9375 57.375 L 14.28125 57.125 L 15.25 54.53125 C 18.118185 53.838708 20.962806 53.301547 23.78125 52.90625 C 26.599636 52.510942 29.330918 52.312495 32 52.3125 z "
         style="fill:#ffffff"
         id="path3124"
         d="m 32,0.09375 c -0.700693,3.558e-5 -1.488209,0.20647689 -2.0625,0.78125 -0.574291,0.5747731 -0.781278,1.3629701 -0.78125,2.0625 l 0,1.46875 -1.46875,0 c -0.681943,3.14e-5 -1.482933,0.1709365 -2.0625,0.75 -0.579567,0.5790635 -0.750025,1.3793549 -0.75,2.0625 -2.5e-5,0.6831641 0.183274,1.4758667 0.75,2.0625 0.566726,0.5866333 1.362954,0.78128 2.0625,0.78125 l 1.46875,0 0,2.625 c -1.409722,0.518937 -2.705071,1.272385 -3.6875,2.4375 -1.155777,1.370684 -1.731341,3.055308 -1.84375,4.84375 -0.821234,-0.432359 -1.67821,-0.823474 -2.59375,-1.15625 -2.036553,-0.740159 -4.061062,-1.156219 -6.09375,-1.15625 -1.830881,3.1e-5 -3.588605,0.373778 -5.25,1.09375 -1.6553132,0.717381 -3.1449857,1.735119 -4.40625,2.96875 -1.2648571,1.237174 -2.2781263,2.681307 -3,4.375 -0.7260406,1.703467 -1.0625087,3.500789 -1.0625,5.3125 -8.8e-6,2.411921 0.7320425,4.684399 2.15625,6.59375 1.3167966,1.7654 3.0150143,3.562944 5.09375,5.4375 0.78997,0.718363 1.3693964,1.284179 1.75,1.71875 0.358521,0.409357 0.473991,0.713559 0.4375,0.5625 l 1.375,5.5 L 9.375,58.375 a 1.50015,1.50015 0 0 0 0.90625,1.9375 c 3.307362,1.170768 6.836399,2.050371 10.625,2.65625 3.776994,0.604 7.493536,0.937484 11.09375,0.9375 3.600142,-1.6e-5 7.316686,-0.333501 11.09375,-0.9375 3.788526,-0.605879 7.317573,-1.485485 10.625,-2.65625 A 1.50015,1.50015 0 0 0 54.625,58.375 l -2.65625,-7.15625 1.375,-5.5 c -0.03651,0.151196 0.07899,-0.153158 0.4375,-0.5625 0.38059,-0.434555 0.959998,-1.000391 1.75,-1.71875 2.134935,-1.879164 3.856673,-3.690721 5.15625,-5.46875 1.394272,-1.907768 2.093674,-4.1536 2.09375,-6.5625 -7.4e-5,-1.856104 -0.331232,-3.656147 -1.0625,-5.34375 C 60.997658,24.39876 59.98218,22.951028 58.75,21.71875 57.517688,20.486534 56.069967,19.471059 54.40625,18.75 52.734881,18.025742 50.937185,17.656281 49.0625,17.65625 c -2.032754,3.1e-5 -4.078102,0.413951 -6.09375,1.15625 -0.911038,0.335515 -1.767016,0.721121 -2.59375,1.15625 -0.11247,-1.788405 -0.68806,-3.473074 -1.84375,-4.84375 -0.982473,-1.165086 -2.277818,-1.918566 -3.6875,-2.4375 l 0,-2.625 1.46875,0 c 0.69953,3e-5 1.495803,-0.1946473 2.0625,-0.78125 0.566697,-0.5866027 0.749968,-1.3793571 0.75,-2.0625 -3.2e-5,-0.6831254 -0.170463,-1.4834666 -0.75,-2.0625 -0.579537,-0.5790334 -1.380574,-0.7499686 -2.0625,-0.75 l -1.46875,0 0,-1.46875 C 34.84372,2.2379914 34.636762,1.449744 34.0625,0.875 33.488238,0.30025602 32.700677,0.09378558 32,0.09375 z M 31.3125,27.1875 a 1.50015,1.50015 0 0 0 1.34375,0 c -0.0963,0.199238 -0.115228,0.3242 -0.21875,0.53125 C 32.228365,28.137361 32.178392,28.315877 32,28.6875 31.826407,28.325854 31.765195,28.156105 31.5625,27.75 c -0.0051,-0.01083 0.0051,-0.02045 0,-0.03125 -0.103856,-0.22025 -0.153335,-0.32143 -0.25,-0.53125 z m -2.15625,14 0,0.25 c -0.109305,0.0028 -0.233661,0.0278 -0.34375,0.03125 a 1.50015,1.50015 0 0 0 0.34375,-0.28125 z m 5.6875,0 a 1.50015,1.50015 0 0 0 0.34375,0.28125 c -0.110087,-0.0034 -0.234447,-0.02846 -0.34375,-0.03125 l 0,-0.25 z M 15.375,42.90625 a 1.50015,1.50015 0 0 0 0.34375,0.21875 c -0.07303,0.01533 -0.145808,0.04704 -0.21875,0.0625 -0.04777,-0.09239 -0.07086,-0.190815 -0.125,-0.28125 z"
         transform="translate(77.262985,22.970858)" />
    </g>
    <path
       style="fill:#ffffff;fill-opacity:1;fill-rule:nonzero;stroke:none"
       d="m 31.246097,49.336044 c -4.489287,-0.05678 -8.936795,0.74501 -13.296584,1.736339 -0.930649,0.240605 -1.044844,1.415705 -1.404731,2.164668 -0.373127,0.671082 0.393407,1.175311 0.999432,0.962586 3.24154,-0.612415 6.456929,-1.445594 9.772721,-1.642795 6.067533,-0.483526 12.21903,-0.03041 18.100825,1.467779 0.657968,0.05925 1.742717,0.559686 2.104794,-0.253312 -0.09697,-0.899494 -0.501357,-1.82278 -1.059305,-2.533122 C 44.109811,50.44623 41.58512,50.21212 39.141621,49.781791 36.536857,49.329865 33.883282,49.33302 31.246097,49.336044 z"
       id="path2984"
       inkscape:connector-curvature="0" />
    <path
       style="fill:#ffffff;fill-opacity:1;fill-rule:nonzero;stroke:none"
       d="m 30.937517,44.702734 c -4.359417,0.08888 -8.730406,0.648096 -12.955764,1.658043 -0.603499,0.476255 0.0069,1.336934 0.04605,1.952807 0.06585,0.6813 0.691758,1.133485 1.349463,0.805993 8.085083,-1.822281 16.581797,-1.822574 24.695631,-0.105931 0.669373,0.10832 1.792732,0.523026 1.851481,-0.502018 0.074,-0.688111 0.548354,-1.42824 0.230284,-2.095583 -4.007803,-1.030257 -8.178998,-1.539896 -12.324525,-1.696308 -0.963767,-0.03122 -1.928538,-0.03289 -2.892626,-0.017 z"
       id="path2986"
       inkscape:connector-curvature="0" />
    <path
       style="fill:#ffffff;fill-opacity:1;fill-rule:nonzero;stroke:none"
       d="m 46.237571,23.042244 c -4.549696,0.186942 -8.788718,3.054272 -10.966113,7.005231 -1.700125,2.737525 -2.487903,5.959842 -2.422773,9.178889 0.115326,0.811909 -0.362757,1.911129 0.1815,2.541224 1.817699,0.124791 3.695861,0.156312 5.523995,0.420194 2.672689,0.26106 5.307429,0.822675 7.95052,1.234575 0.832578,0.01507 0.857917,-1.038578 1.44313,-1.427058 2.155907,-2.57823 4.963802,-4.691097 6.680839,-7.629162 0.834501,-1.950814 0.729094,-4.2997 -0.105488,-6.234622 -1.507989,-3.084878 -4.773545,-5.359215 -8.28561,-5.089271 z m 0.207255,3.048957 c 3.125442,-0.130721 6.016674,2.700288 5.711037,5.858419 -0.11175,1.829323 -1.825732,2.953168 -2.916923,4.234584 -1.319085,1.317048 -2.639507,2.673399 -4.037646,3.885221 -3.086332,-0.519187 -6.183536,-0.94709 -9.303464,-1.202081 -0.07228,-4.509586 2.155986,-9.186216 6.125547,-11.509582 1.338582,-0.774032 2.864248,-1.248879 4.421449,-1.266561 z"
       id="path2988"
       inkscape:connector-curvature="0" />
    <path
       style="fill:#ffffff;fill-opacity:1;fill-rule:nonzero;stroke:none"
       d="m 17.023773,23.083695 c -4.53025,-0.03814 -8.6452815,4.33003 -8.1981026,8.87053 -0.049062,2.73395 2.1757066,4.655777 3.8749986,6.499248 1.486677,1.604487 3.180311,3.055539 4.346132,4.881375 0.785462,0.336967 1.698243,-0.225228 2.521251,-0.258156 3.741609,-0.716824 7.556388,-1.189925 11.353462,-1.290911 0.634334,-0.498122 0.09607,-1.574827 0.231657,-2.300316 0.01431,-2.451999 -0.267138,-4.930465 -1.307198,-7.171997 -1.778621,-4.518928 -5.760548,-8.446562 -10.694379,-9.128449 -0.705343,-0.08854 -1.417117,-0.121375 -2.127821,-0.101324 z m 0,3.067379 c 3.848955,-0.31638 7.369942,2.315814 9.206744,5.540627 1.245045,2.160735 1.882692,4.695587 1.892932,7.152614 -3.147071,0.302493 -6.301138,0.712913 -9.418605,1.211293 -1.290986,-0.9703 -2.388749,-2.348212 -3.574005,-3.500313 -1.264835,-1.509397 -3.276714,-2.828323 -3.31148,-4.978735 -0.06361,-2.674049 2.196744,-5.114139 4.80372,-5.416274 0.133551,-0.0035 0.267117,-0.007 0.400694,-0.0092 z"
       id="path2990"
       inkscape:connector-curvature="0" />
    <path
       style="fill:#ffffff;fill-opacity:1;fill-rule:nonzero;stroke:none"
       d="m 31.748116,18.206285 c -2.46351,0.09502 -4.242802,2.677432 -3.739808,5.034002 0.58064,3.163528 2.279309,5.97908 3.491101,8.930405 0.282617,0.693014 1.120596,0.252094 1.156025,-0.350032 1.283514,-3.147653 3.373048,-6.164363 3.37596,-9.671918 -0.04407,-2.215734 -2.040502,-4.143097 -4.283278,-3.942457 z m 0.165805,3.076591 c 0.751638,-0.141421 1.177623,0.623776 1.050093,1.289588 -0.09173,1.154126 -0.521317,2.368587 -0.985614,3.329904 -0.471973,-1.305267 -1.078966,-2.724586 -0.879684,-4.12208 0.186403,-0.29624 0.430333,-0.549284 0.815205,-0.497412 z"
       id="path2992"
       inkscape:connector-curvature="0" />
    <g
       style="font-size:74.16000366px;font-style:normal;font-variant:normal;font-weight:normal;font-stretch:normal;line-height:125%;letter-spacing:0px;word-spacing:0px;fill:#000000;fill-opacity:1;stroke:none;font-family:DiagramTTHabsburg;-inkscape-font-specification:DiagramTTHabsburg"
       id="text5339"
       transform="matrix(0.86,0,0,0.86,4.48,4.608921)">
      <path
         inkscape:connector-curvature="0"
         d="m 51.875279,45.34939 c 0.147805,-0.544671 1.037235,-1.558576 2.668294,-3.041719 2.077541,-1.828646 3.721742,-3.571295 4.932609,-5.227954 1.210737,-1.656639 1.816138,-3.547904 1.816205,-5.673801 -6.7e-5,-1.680774 -0.321438,-3.262738 -0.964117,-4.745897 -0.642808,-1.483118 -1.520169,-2.780675 -2.632082,-3.892676 -1.112039,-1.111952 -2.409597,-1.989312 -3.892676,-2.632082 -1.483197,-0.642717 -3.065161,-0.964089 -4.745896,-0.964117 -1.830214,2.8e-5 -3.684514,0.345918 -5.562906,1.03767 -1.878489,0.691806 -3.534384,1.606508 -4.967688,2.74411 0.09803,-0.297207 0.196476,-0.705334 0.295345,-1.224382 0.09878,-0.518998 0.148195,-0.927125 0.148239,-1.224382 -4.4e-5,-1.680763 -0.531515,-3.151454 -1.594413,-4.412077 -1.062983,-1.260561 -2.409954,-2.063614 -4.040915,-2.409159 l 0,-5.1170584 2.967034,0 c 0.888635,3.82e-5 1.332973,-0.4450541 1.333015,-1.3352784 -4.2e-5,-0.8901451 -0.44438,-1.3352375 -1.333015,-1.3352784 l -2.967034,0 0,-2.9670338 C 33.33524,2.039643 32.890148,1.595305 32,1.5952598 31.109778,1.595305 30.664686,2.039643 30.664722,2.928275 l 0,2.9670338 -2.967034,0 c -0.888709,4.09e-5 -1.333047,0.4451333 -1.333015,1.3352784 -3.2e-5,0.8902243 0.444306,1.3353166 1.333015,1.3352784 l 2.967034,0 0,5.1170584 c -1.631036,0.345545 -2.978006,1.148598 -4.040915,2.409159 -1.062972,1.260623 -1.594443,2.731314 -1.594413,4.412077 -3e-5,0.297257 0.04938,0.705384 0.148239,1.224382 0.09879,0.519048 0.197243,0.927175 0.295345,1.224382 -1.383589,-1.137602 -3.027036,-2.052304 -4.930346,-2.74411 -1.903361,-0.691752 -3.770108,-1.037642 -5.600248,-1.03767 -1.631019,2.8e-5 -3.188088,0.3214 -4.671211,0.964117 -1.4831533,0.64277 -2.7931582,1.52013 -3.9300183,2.632082 -1.1368829,1.112001 -2.0266904,2.422006 -2.6694251,3.930019 -0.6427523,1.508053 -0.9641241,3.07757 -0.9641163,4.708554 -7.8e-6,2.125897 0.6178407,4.017162 1.8535475,5.673801 1.2356874,1.656659 2.8674412,3.399308 4.8952663,5.227954 1.6309849,1.483143 2.5204149,2.497048 2.6682939,3.041719 l 1.484648,5.931805 -2.819927,7.638245 c 3.213702,1.137614 6.674484,2.002903 10.382356,2.595872 3.707819,0.592938 7.317216,0.889415 10.828202,0.889431 3.510912,-1.6e-5 7.120309,-0.296493 10.828202,-0.889431 3.707798,-0.592969 7.16858,-1.458258 10.382356,-2.595872 L 50.390631,51.281195 z M 27.996428,40.232332 c -3.3e-5,-2.175665 -0.333852,-4.215169 -1.001459,-6.118517 -0.66767,-1.903323 -1.607268,-3.58449 -2.818795,-5.043505 -1.211586,-1.45898 -2.608346,-2.583781 -4.190285,-3.374407 -1.581989,-0.790584 -3.263155,-1.185886 -5.043505,-1.185908 -1.87846,2.2e-5 -3.497389,0.679731 -4.856792,2.039128 -1.3594326,1.359438 -2.0391415,2.978367 -2.0391283,4.856793 -1.32e-5,1.087851 0.4450792,2.175687 1.3352783,3.26351 0.89017,1.087848 2.175657,2.423126 3.856465,4.005836 1.630981,1.433356 2.644132,2.446507 3.039456,3.039455 1.878419,-0.345507 3.843615,-0.654431 5.895593,-0.926773 2.051924,-0.272331 3.99298,-0.457534 5.823172,-0.555612 z m 8.007144,0 c 1.830118,0.09808 3.771174,0.283281 5.823172,0.555612 2.051904,0.272342 4.0171,0.581266 5.895593,0.926773 0.39525,-0.592948 1.408401,-1.606099 3.039456,-3.039455 1.680733,-1.53292 2.966221,-2.85575 3.856465,-3.968493 0.890125,-1.112719 1.335217,-2.213002 1.335278,-3.300853 -6.1e-5,-1.878426 -0.67977,-3.497355 -2.039128,-4.856793 -1.359477,-1.359397 -2.978406,-2.039106 -4.856792,-2.039128 -1.780424,2.2e-5 -3.461591,0.395324 -5.043505,1.185908 -1.582013,0.790626 -2.978773,1.915427 -4.190285,3.374407 -1.211601,1.459015 -2.151199,3.140182 -2.818795,5.043505 -0.667681,1.903348 -1.0015,3.942852 -1.001459,6.118517 z m 11.64408,11.270655 C 45.076625,50.910029 42.456238,50.452866 39.786484,50.131498 37.116639,49.810122 34.521147,49.649437 32,49.649439 c -2.521221,-2e-6 -5.116713,0.160683 -7.786484,0.482059 -2.669829,0.321368 -5.290215,0.778531 -7.861168,1.371489 l -0.592954,-2.593609 c 2.669024,-0.594464 5.400307,-1.064451 8.193856,-1.409963 2.793492,-0.345513 5.475739,-0.518269 8.04675,-0.518269 2.570937,0 5.228289,0.172756 7.972065,0.518269 2.743685,0.345512 5.499863,0.815499 8.268541,1.409963 z m 1.409964,5.859382 C 46.288936,56.621544 43.421108,56.040661 40.454123,55.619718 37.487046,55.198757 34.669008,54.988282 32,54.98829 c -2.620801,-8e-6 -5.426769,0.210467 -8.417912,0.631428 -2.9912,0.420943 -5.871098,1.001826 -8.639704,1.742651 l -0.667639,-0.221792 0.964116,-2.595871 c 2.868185,-0.692542 5.711496,-1.236459 8.52994,-1.631756 2.818386,-0.395308 5.562117,-0.592959 8.231199,-0.592954 2.620727,-5e-6 5.364835,0.197646 8.232331,0.592954 2.867405,0.395297 5.710338,0.939214 8.528808,1.631756 l 0.964116,2.595871 z M 30.664722,42.828204 c -2.373359,4e-6 -4.956403,0.185207 -7.749141,0.555611 -2.792794,0.370411 -5.524454,0.852092 -8.194989,1.445043 C 14.670783,44.235907 14.373929,43.630506 13.83003,43.012653 13.286093,42.394808 12.42118,41.517071 11.23529,40.379439 9.3568326,38.648866 7.9106596,37.116315 6.8967663,35.781781 5.8828491,34.44727 5.3758964,32.988649 5.3759069,31.405916 c -1.05e-5,-2.61924 0.939587,-4.868466 2.8187953,-6.747683 1.8791818,-1.879173 4.1284068,-2.81877 6.7476818,-2.818795 2.125862,2.5e-5 4.140848,0.469635 6.044964,1.408832 1.904064,0.939244 3.585231,2.261696 5.043505,3.967361 1.458212,1.705704 2.595084,3.6709 3.410618,5.895593 0.815465,2.224722 1.223215,4.573527 1.223251,7.046423 z m 2.670556,-2.670557 c -3.8e-5,-2.472896 0.407712,-4.821701 1.223251,-7.046423 0.81546,-2.224693 1.952332,-4.189889 3.410618,-5.895593 1.4582,-1.705665 3.139367,-3.028117 5.043505,-3.967361 1.904042,-0.939197 3.919028,-1.408807 6.044964,-1.408832 2.619201,2.5e-5 4.868426,0.939622 6.747682,2.818795 1.879134,1.879217 2.818731,4.128443 2.818795,6.747683 -6.4e-5,1.582733 -0.507016,3.041354 -1.520859,4.375865 -1.013968,1.334534 -2.460141,2.867085 -4.338524,4.597658 -1.137683,1.087842 -1.990525,1.953132 -2.558529,2.595872 -0.568114,0.642747 -0.877038,1.260596 -0.926773,1.853547 -2.670609,-0.592951 -5.402269,-1.074632 -8.194989,-1.445043 -2.792812,-0.370404 -5.375856,-0.555607 -7.749141,-0.555611 z M 32,25.845273 32.296477,25.177634 c 0.890147,-1.977999 1.33524,-3.559963 1.335278,-4.745896 -3.8e-5,-0.445066 -0.160724,-0.816228 -0.482058,-1.113487 C 32.828287,19.021048 32.445055,18.872432 32,18.872404 c -0.445129,2.8e-5 -0.828361,0.148644 -1.149697,0.445847 -0.321408,0.297259 -0.482094,0.668421 -0.482058,1.113487 -3.6e-5,1.185933 0.445056,2.767897 1.335278,4.745896 z m 0,6.524759 c -0.297268,-0.89017 -0.890222,-2.224693 -1.778862,-4.003572 -0.84043,-1.780351 -1.471104,-3.238972 -1.892022,-4.375866 -0.420985,-1.136849 -0.631461,-2.298992 -0.631428,-3.486434 -3.3e-5,-1.185881 0.420542,-2.199032 1.261725,-3.039456 0.841115,-0.840365 1.854643,-1.260563 3.040587,-1.260593 1.18587,3e-5 2.199398,0.420228 3.040587,1.260593 0.841109,0.840424 1.261684,1.853575 1.261725,3.039456 -4.1e-5,1.187442 -0.210517,2.37448 -0.631428,3.561119 -0.420993,1.186684 -1.051666,2.62041 -1.892022,4.301181 C 32.890148,30.145339 32.297194,31.479862 32,32.370032 z"
         id="path3132" />
    </g>
  </g>
</svg>
