<?xml version="1.0" encoding="UTF-8" standalone="no"?>
<!-- Created with Inkscape (http://www.inkscape.org/) -->

<svg
   xmlns:dc="http://purl.org/dc/elements/1.1/"
   xmlns:cc="http://creativecommons.org/ns#"
   xmlns:rdf="http://www.w3.org/1999/02/22-rdf-syntax-ns#"
   xmlns:svg="http://www.w3.org/2000/svg"
   xmlns="http://www.w3.org/2000/svg"
   xmlns:sodipodi="http://sodipodi.sourceforge.net/DTD/sodipodi-0.dtd"
   xmlns:inkscape="http://www.inkscape.org/namespaces/inkscape"
   width="64px"
   height="64px"
   id="svg2985"
   version="1.1"
   inkscape:version="0.48.2 r9819"
   sodipodi:docname="bn.svg">
  <defs
     id="defs2987" />
  <sodipodi:namedview
     id="base"
     pagecolor="#427bbf"
     bordercolor="#666666"
     borderopacity="1.0"
     inkscape:pageopacity="0"
     inkscape:pageshadow="2"
     inkscape:zoom="10.765625"
     inkscape:cx="32"
     inkscape:cy="32"
     inkscape:current-layer="layer1"
     showgrid="true"
     inkscape:document-units="px"
     inkscape:grid-bbox="true"
     inkscape:window-width="1408"
     inkscape:window-height="878"
     inkscape:window-x="24"
     inkscape:window-y="-8"
     inkscape:window-maximized="1" />
  <metadata
     id="metadata2990">
    <rdf:RDF>
      <cc:Work
         rdf:about="">
        <dc:format>image/svg+xml</dc:format>
        <dc:type
           rdf:resource="http://purl.org/dc/dcmitype/StillImage" />
        <dc:title />
      </cc:Work>
    </rdf:RDF>
  </metadata>
  <g
     id="layer1"
     inkscape:label="Layer 1"
     inkscape:groupmode="layer">
    <path
       sodipodi:type="inkscape:offset"
       inkscape:radius="1.5"
       inkscape:original="M 15.78125 -16.65625 C 14.887205 -15.933472 14.137724 -15.011733 13.5 -13.90625 C 12.862225 -12.800695 12.430228 -11.619216 12.21875 -10.34375 C 10.900407 -12.044815 9.4482683 -13.405365 7.875 -14.46875 C 6.3016917 -15.532062 4.808894 -16.142481 3.40625 -16.3125 C 3.3634151 -16.056843 3.3437346 -15.617383 3.34375 -14.9375 C 3.3437346 -12.258007 3.7344246 -9.7837798 4.5 -7.53125 C 4.2443646 -7.2756014 3.8838442 -6.8849114 3.4375 -6.375 C 2.9911247 -5.8650313 2.5099259 -5.2441224 2 -4.5 C 1.4900459 -3.7558241 1.059346 -2.963955 0.71875 -2.15625 C 0.37812837 -1.3484961 0.21873769 -0.59901488 0.21875 0.125 C 0.21873769 0.9749222 -0.041002044 1.9668406 -0.59375 3.09375 C -1.1465209 4.2206977 -1.9882401 5.7633456 -3.09375 7.71875 C -4.3692579 9.8869829 -5.3310067 11.63952 -5.96875 13 C -6.6065056 14.360498 -6.9375052 15.613237 -6.9375 16.71875 C -6.9375052 18.547014 -6.3456854 20.109342 -5.21875 21.40625 C -4.0918283 22.703159 -2.7601504 23.343749 -1.1875 23.34375 C -0.76191209 23.343749 -0.35154154 23.28341 0.03125 23.15625 C 0.24403729 23.62337 0.59471743 24.014709 1.0625 24.3125 C 1.5302563 24.610287 2.0409759 24.749998 2.59375 24.75 C 3.1464948 24.749998 3.6572144 24.610287 4.125 24.3125 C 4.5927532 24.014709 4.9134809 23.62337 5.125 23.15625 L 5.1875 23.03125 C 5.6559009 22.09571 6.1062813 21.253991 6.53125 20.53125 C 6.9561814 19.808512 7.4275399 19.197444 7.9375 18.6875 C 8.44742 18.177564 9.2491294 17.566495 10.3125 16.84375 C 11.375826 16.121016 12.326005 15.589967 13.21875 15.25 L 13.5 15.125 C 14.648313 14.699408 15.699921 14.218858 16.65625 13.6875 C 17.612521 13.156159 18.513499 12.42398 19.40625 11.53125 C 19.406218 13.232358 18.93486 14.824856 18 16.3125 C 17.06508 17.800155 15.683552 19.623304 13.8125 21.75 C 11.771416 24.088199 10.229417 26.101556 9.1875 27.78125 C 8.1455402 29.460932 7.6249803 31.302681 7.625 33.34375 L 7.625 35.65625 L 44.9375 35.65625 C 45.191764 32.765279 45.312443 30.430113 45.3125 28.6875 C 45.312443 23.45704 44.671853 18.470954 43.375 13.6875 C 42.078036 8.9040634 40.234558 4.6877879 37.875 1.03125 C 35.515342 -2.6252454 32.801056 -5.5104918 29.71875 -7.59375 C 26.636361 -9.6769485 23.361505 -10.779056 19.875 -10.90625 C 19.535008 -12.140194 19.003959 -13.250844 18.28125 -14.25 C 17.55848 -15.249083 16.716761 -16.06193 15.78125 -16.65625 z M 20.25 -8.625 C 23.226564 -8.4121697 26.020221 -7.2696205 28.65625 -5.25 C 31.292197 -3.2303244 33.616225 -0.50684669 35.59375 2.9375 C 37.57118 6.3818853 39.113179 10.297331 40.21875 14.71875 C 41.324217 19.140184 41.874946 23.797 41.875 28.6875 C 41.874946 29.537394 41.865106 30.379762 41.84375 31.1875 C 41.822286 31.995221 41.773085 32.705341 41.6875 33.34375 L 38.21875 33.34375 C 38.34586 31.939782 38.437449 30.387294 38.4375 28.6875 C 38.437449 24.13696 37.96674 19.811793 37.03125 15.6875 C 36.095662 11.563221 34.782584 7.8871854 33.125 4.65625 C 31.467325 1.4253498 29.523498 -1.1387373 27.3125 -3.03125 C 25.101423 -4.9237121 22.759444 -5.9956502 20.25 -6.25 L 20.25 -8.625 z M 11.96875 -8.03125 C 11.968726 -7.2228415 12.029065 -6.4530309 12.15625 -5.6875 C 11.687808 -5.5174921 11.236778 -5.2461829 10.8125 -4.90625 C 10.429698 -4.5662628 10.019327 -4.4062233 9.59375 -4.40625 C 8.8281695 -4.4062233 8.4374795 -4.7969134 8.4375 -5.5625 C 8.4374795 -5.9024322 8.7783193 -6.3025309 9.4375 -6.8125 C 10.096638 -7.322411 10.947548 -7.7327815 11.96875 -8.03125 z M 8.6875 -3 C 9.4530381 -2.9999747 9.8437281 -2.6092847 9.84375 -1.84375 C 9.8437281 -1.0366452 9.3730183 -0.6249771 8.4375 -0.625 C 8.6074595 -0.4121777 8.6874792 -0.11307688 8.6875 0.3125 C 8.6874792 0.86528137 8.5175995 1.3261508 8.15625 1.6875 C 7.79486 2.0488903 7.3339906 2.21877 6.78125 2.21875 C 6.4412711 2.21877 6.1408727 2.1387503 5.84375 1.96875 C 5.8437321 2.9043091 5.4333615 3.3750189 4.625 3.375 C 3.8594244 3.3750189 3.4687344 2.9843289 3.46875 2.21875 C 3.4687344 0.98609053 3.9991346 -0.18554787 5.0625 -1.3125 C 6.1258311 -2.439405 7.3276391 -2.9999747 8.6875 -3 z M 21.53125 1.96875 C 22.296775 1.9687703 22.656215 2.3594603 22.65625 3.125 C 22.656215 3.9320998 22.546675 4.8741681 22.3125 5.9375 C 22.078256 7.0008646 21.828357 7.9022742 21.53125 8.625 C 21.318417 9.0921343 20.947408 9.3125129 20.4375 9.3125 C 19.671909 9.3125129 19.281219 8.9218229 19.28125 8.15625 C 19.281219 7.9862841 19.300899 7.8459252 19.34375 7.71875 C 19.59804 7.1660051 19.849668 6.4755655 20.0625 5.625 C 20.275267 4.7744678 20.374968 3.9320998 20.375 3.125 C 20.374968 2.3594603 20.765658 1.9687703 21.53125 1.96875 z M -1.3125 13.90625 C -0.41979131 13.906258 0.031237882 14.35599 0.03125 15.25 C 0.031237882 15.547148 -0.14848212 15.847546 -0.53125 16.1875 C -0.95686036 16.484647 -1.1875109 16.814998 -1.1875 17.15625 C -1.1875109 17.920516 -1.5794985 18.312504 -2.34375 18.3125 C -3.1093186 18.312504 -3.4687586 17.920516 -3.46875 17.15625 C -3.4687586 16.433516 -3.2687093 15.723395 -2.84375 15 C -2.4188092 14.276619 -1.9080896 13.906258 -1.3125 13.90625 z M 2.0625 17.84375 C 2.8280447 17.843754 3.2187347 18.234444 3.21875 19 C 3.2187347 19.297144 3.0390147 19.828193 2.65625 20.59375 C 2.4447334 21.01935 2.0934045 21.250001 1.625 21.25 C 0.85942745 21.250001 0.46873744 20.859311 0.46875 20.09375 C 0.46873744 19.880953 0.48841798 19.740594 0.53125 19.65625 L 0.59375 19.53125 C 0.76371732 19.191293 0.9156457 18.880622 1 18.625 C 1.1284451 18.115064 1.4682046 17.843754 2.0625 17.84375 z "
       style="font-size:63.77760315px;font-style:normal;font-variant:normal;font-weight:normal;font-stretch:normal;line-height:125%;letter-spacing:0px;word-spacing:0px;fill:#4d4d4d;fill-opacity:1;stroke:none;font-family:DiagramTTHabsburg;-inkscape-font-specification:DiagramTTHabsburg"
       id="path3217-4"
       d="m 15.59375,-18.15625 a 1.50015,1.50015 0 0 0 -0.75,0.34375 c -1.060181,0.857088 -1.944675,1.922748 -2.65625,3.15625 -0.260078,0.450834 -0.299553,0.990467 -0.5,1.46875 -0.937738,-0.953125 -1.9210711,-1.823115 -2.96875,-2.53125 -1.7173567,-1.160666 -3.4227946,-1.88742 -5.125,-2.09375 a 1.50015,1.50015 0 0 0 -1.65625,1.25 c -0.076754,0.458099 -0.093766,0.916155 -0.09375,1.625 -1.43e-5,2.487254 0.393009,4.790636 1.03125,6.96875 C 2.6890789,-7.7664164 2.5392662,-7.6340617 2.3125,-7.375 1.8205801,-6.8129981 1.2887221,-6.129894 0.75,-5.34375 0.18218823,-4.5151424 -0.27612551,-3.6514447 -0.65625,-2.75 c -0.404602,0.9594777 -0.6250161,1.93081917 -0.625,2.875 -7.9e-6,0.54433497 -0.174942,1.3312381 -0.65625,2.3125 -0.5259824,1.0723333 -1.3690447,2.5861126 -2.46875,4.53125 l 0.03125,0 c -1.287533,2.1886744 -2.2638908,3.969258 -2.9375,5.40625 -0.7032957,1.500312 -1.1250066,2.938824 -1.125,4.34375 -6.1e-6,2.151972 0.746151,4.105396 2.09375,5.65625 1.3502662,1.553943 3.1762687,2.468749 5.15625,2.46875 0.23075326,-1e-6 0.4568764,-0.06561 0.6875,-0.09375 0.25549892,0.274347 0.43383942,0.611232 0.75,0.8125 0.7057159,0.449279 1.538234,0.687497 2.34375,0.6875 0.8055001,-3e-6 1.6380329,-0.238249 2.34375,-0.6875 0.6947454,-0.442304 1.2124455,-1.065384 1.53125,-1.75 L 6.5,23.78125 6.53125,23.6875 C 6.9885726,22.774087 7.4107462,21.96451 7.8125,21.28125 8.1790218,20.657857 8.5869149,20.163072 9,19.75 c 0.3777281,-0.37774 1.128081,-0.957431 2.15625,-1.65625 1.002262,-0.681229 1.855702,-1.156443 2.59375,-1.4375 A 1.50015,1.50015 0 0 0 13.8125,16.625 L 14.03125,16.53125 14.09375,16.5 c 0.993857,-0.371338 1.880748,-0.796302 2.75,-1.25 -0.04922,0.08436 -0.0721,0.165819 -0.125,0.25 -0.874468,1.391463 -2.199147,3.167574 -4.03125,5.25 C 10.612015,23.127608 9.0145926,25.21322 7.90625,27 6.7233431,28.906894 6.1249778,31.04763 6.125,33.34375 l 0,2.3125 a 1.50015,1.50015 0 0 0 1.5,1.5 l 37.3125,0 a 1.50015,1.50015 0 0 0 1.5,-1.375 c 0.256811,-2.919933 0.374941,-5.281929 0.375,-7.09375 -5.8e-5,-5.352923 -0.666906,-10.489122 -2,-15.40625 -1.332651,-4.9150582 -3.236099,-9.2636363 -5.6875,-13.0625 -2.448892,-3.7947705 -5.286325,-6.8482101 -8.5625,-9.0625 -3.007986,-2.032914 -6.270765,-3.114118 -9.6875,-3.40625 -0.374101,-1.011462 -0.750239,-2.011259 -1.375,-2.875 -0.820466,-1.134128 -1.791963,-2.104605 -2.90625,-2.8125 a 1.50015,1.50015 0 0 0 -1,-0.21875 z m -8.625,17.25 A 1.50015,1.50015 0 0 0 7.25,0.3125 l -0.0625,0 c -9.2e-6,0.24549468 -0.017113,0.23586269 -0.09375,0.3125 -0.07671,0.0767104 -0.06713,0.0937589 -0.3125,0.09375 -0.1045603,6.15e-6 -0.092531,-0.008163 -0.1875,-0.0625 a 1.50015,1.50015 0 0 0 -1,-0.15625 c 0.1673001,-0.25409071 0.3004588,-0.50353937 0.5625,-0.78125 0.2821859,-0.29905712 0.5423812,-0.44471458 0.8125,-0.625 z m 27.875,5.78125 c 1.608261,3.0358877 2.949654,6.393116 3.90625,10.21875 1.073786,4.294723 1.624947,8.815851 1.625,13.59375 -5.3e-5,0.838379 -0.0103,1.676387 -0.03125,2.46875 -0.007,0.265022 -0.04909,0.448083 -0.0625,0.6875 l -0.5,0 c 0.0655,-1.021414 0.156215,-1.998414 0.15625,-3.15625 C 39.937448,24.03353 39.461523,19.582814 38.5,15.34375 37.620591,11.467119 36.363913,8.01673 34.84375,4.875 z"
       transform="translate(14.8125,24.606602)" />
    <path
       sodipodi:type="inkscape:offset"
       inkscape:radius="1.5"
       inkscape:original="M 15.78125 -16.65625 C 14.887205 -15.933472 14.137724 -15.011733 13.5 -13.90625 C 12.862225 -12.800695 12.430228 -11.619216 12.21875 -10.34375 C 10.900407 -12.044815 9.4482683 -13.405365 7.875 -14.46875 C 6.3016917 -15.532062 4.808894 -16.142481 3.40625 -16.3125 C 3.3634151 -16.056843 3.3437346 -15.617383 3.34375 -14.9375 C 3.3437346 -12.258007 3.7344246 -9.7837798 4.5 -7.53125 C 4.2443646 -7.2756014 3.8838442 -6.8849114 3.4375 -6.375 C 2.9911247 -5.8650313 2.5099259 -5.2441224 2 -4.5 C 1.4900459 -3.7558241 1.059346 -2.963955 0.71875 -2.15625 C 0.37812837 -1.3484961 0.21873769 -0.59901488 0.21875 0.125 C 0.21873769 0.9749222 -0.041002044 1.9668406 -0.59375 3.09375 C -1.1465209 4.2206977 -1.9882401 5.7633456 -3.09375 7.71875 C -4.3692579 9.8869829 -5.3310067 11.63952 -5.96875 13 C -6.6065056 14.360498 -6.9375052 15.613237 -6.9375 16.71875 C -6.9375052 18.547014 -6.3456854 20.109342 -5.21875 21.40625 C -4.0918283 22.703159 -2.7601504 23.343749 -1.1875 23.34375 C -0.76191209 23.343749 -0.35154154 23.28341 0.03125 23.15625 C 0.24403729 23.62337 0.59471743 24.014709 1.0625 24.3125 C 1.5302563 24.610287 2.0409759 24.749998 2.59375 24.75 C 3.1464948 24.749998 3.6572144 24.610287 4.125 24.3125 C 4.5927532 24.014709 4.9134809 23.62337 5.125 23.15625 L 5.1875 23.03125 C 5.6559009 22.09571 6.1062813 21.253991 6.53125 20.53125 C 6.9561814 19.808512 7.4275399 19.197444 7.9375 18.6875 C 8.44742 18.177564 9.2491294 17.566495 10.3125 16.84375 C 11.375826 16.121016 12.326005 15.589967 13.21875 15.25 L 13.5 15.125 C 14.648313 14.699408 15.699921 14.218858 16.65625 13.6875 C 17.612521 13.156159 18.513499 12.42398 19.40625 11.53125 C 19.406218 13.232358 18.93486 14.824856 18 16.3125 C 17.06508 17.800155 15.683552 19.623304 13.8125 21.75 C 11.771416 24.088199 10.229417 26.101556 9.1875 27.78125 C 8.1455402 29.460932 7.6249803 31.302681 7.625 33.34375 L 7.625 35.65625 L 44.9375 35.65625 C 45.191764 32.765279 45.312443 30.430113 45.3125 28.6875 C 45.312443 23.45704 44.671853 18.470954 43.375 13.6875 C 42.078036 8.9040634 40.234558 4.6877879 37.875 1.03125 C 35.515342 -2.6252454 32.801056 -5.5104918 29.71875 -7.59375 C 26.636361 -9.6769485 23.361505 -10.779056 19.875 -10.90625 C 19.535008 -12.140194 19.003959 -13.250844 18.28125 -14.25 C 17.55848 -15.249083 16.716761 -16.06193 15.78125 -16.65625 z M 20.25 -8.625 C 23.226564 -8.4121697 26.020221 -7.2696205 28.65625 -5.25 C 31.292197 -3.2303244 33.616225 -0.50684669 35.59375 2.9375 C 37.57118 6.3818853 39.113179 10.297331 40.21875 14.71875 C 41.324217 19.140184 41.874946 23.797 41.875 28.6875 C 41.874946 29.537394 41.865106 30.379762 41.84375 31.1875 C 41.822286 31.995221 41.773085 32.705341 41.6875 33.34375 L 38.21875 33.34375 C 38.34586 31.939782 38.437449 30.387294 38.4375 28.6875 C 38.437449 24.13696 37.96674 19.811793 37.03125 15.6875 C 36.095662 11.563221 34.782584 7.8871854 33.125 4.65625 C 31.467325 1.4253498 29.523498 -1.1387373 27.3125 -3.03125 C 25.101423 -4.9237121 22.759444 -5.9956502 20.25 -6.25 L 20.25 -8.625 z M 11.96875 -8.03125 C 11.968726 -7.2228415 12.029065 -6.4530309 12.15625 -5.6875 C 11.687808 -5.5174921 11.236778 -5.2461829 10.8125 -4.90625 C 10.429698 -4.5662628 10.019327 -4.4062233 9.59375 -4.40625 C 8.8281695 -4.4062233 8.4374795 -4.7969134 8.4375 -5.5625 C 8.4374795 -5.9024322 8.7783193 -6.3025309 9.4375 -6.8125 C 10.096638 -7.322411 10.947548 -7.7327815 11.96875 -8.03125 z M 8.6875 -3 C 9.4530381 -2.9999747 9.8437281 -2.6092847 9.84375 -1.84375 C 9.8437281 -1.0366452 9.3730183 -0.6249771 8.4375 -0.625 C 8.6074595 -0.4121777 8.6874792 -0.11307688 8.6875 0.3125 C 8.6874792 0.86528137 8.5175995 1.3261508 8.15625 1.6875 C 7.79486 2.0488903 7.3339906 2.21877 6.78125 2.21875 C 6.4412711 2.21877 6.1408727 2.1387503 5.84375 1.96875 C 5.8437321 2.9043091 5.4333615 3.3750189 4.625 3.375 C 3.8594244 3.3750189 3.4687344 2.9843289 3.46875 2.21875 C 3.4687344 0.98609053 3.9991346 -0.18554787 5.0625 -1.3125 C 6.1258311 -2.439405 7.3276391 -2.9999747 8.6875 -3 z M 21.53125 1.96875 C 22.296775 1.9687703 22.656215 2.3594603 22.65625 3.125 C 22.656215 3.9320998 22.546675 4.8741681 22.3125 5.9375 C 22.078256 7.0008646 21.828357 7.9022742 21.53125 8.625 C 21.318417 9.0921343 20.947408 9.3125129 20.4375 9.3125 C 19.671909 9.3125129 19.281219 8.9218229 19.28125 8.15625 C 19.281219 7.9862841 19.300899 7.8459252 19.34375 7.71875 C 19.59804 7.1660051 19.849668 6.4755655 20.0625 5.625 C 20.275267 4.7744678 20.374968 3.9320998 20.375 3.125 C 20.374968 2.3594603 20.765658 1.9687703 21.53125 1.96875 z M -1.3125 13.90625 C -0.41979131 13.906258 0.031237882 14.35599 0.03125 15.25 C 0.031237882 15.547148 -0.14848212 15.847546 -0.53125 16.1875 C -0.95686036 16.484647 -1.1875109 16.814998 -1.1875 17.15625 C -1.1875109 17.920516 -1.5794985 18.312504 -2.34375 18.3125 C -3.1093186 18.312504 -3.4687586 17.920516 -3.46875 17.15625 C -3.4687586 16.433516 -3.2687093 15.723395 -2.84375 15 C -2.4188092 14.276619 -1.9080896 13.906258 -1.3125 13.90625 z M 2.0625 17.84375 C 2.8280447 17.843754 3.2187347 18.234444 3.21875 19 C 3.2187347 19.297144 3.0390147 19.828193 2.65625 20.59375 C 2.4447334 21.01935 2.0934045 21.250001 1.625 21.25 C 0.85942745 21.250001 0.46873744 20.859311 0.46875 20.09375 C 0.46873744 19.880953 0.48841798 19.740594 0.53125 19.65625 L 0.59375 19.53125 C 0.76371732 19.191293 0.9156457 18.880622 1 18.625 C 1.1284451 18.115064 1.4682046 17.843754 2.0625 17.84375 z "
       style="font-size:63.77760315px;font-style:normal;font-variant:normal;font-weight:normal;font-stretch:normal;line-height:125%;letter-spacing:0px;word-spacing:0px;fill:#ffffff;fill-opacity:1;stroke:none;font-family:DiagramTTHabsburg;-inkscape-font-specification:DiagramTTHabsburg"
       id="path3217"
       d="m 15.59375,-18.15625 a 1.50015,1.50015 0 0 0 -0.75,0.34375 c -1.060181,0.857088 -1.944675,1.922748 -2.65625,3.15625 -0.260078,0.450834 -0.299553,0.990467 -0.5,1.46875 -0.937738,-0.953125 -1.9210711,-1.823115 -2.96875,-2.53125 -1.7173567,-1.160666 -3.4227946,-1.88742 -5.125,-2.09375 a 1.50015,1.50015 0 0 0 -1.65625,1.25 c -0.076754,0.458099 -0.093766,0.916155 -0.09375,1.625 -1.43e-5,2.487254 0.393009,4.790636 1.03125,6.96875 C 2.6890789,-7.7664164 2.5392662,-7.6340617 2.3125,-7.375 1.8205801,-6.8129981 1.2887221,-6.129894 0.75,-5.34375 0.18218823,-4.5151424 -0.27612551,-3.6514447 -0.65625,-2.75 c -0.404602,0.9594777 -0.6250161,1.93081917 -0.625,2.875 -7.9e-6,0.54433497 -0.174942,1.3312381 -0.65625,2.3125 -0.5259824,1.0723333 -1.3690447,2.5861126 -2.46875,4.53125 l 0.03125,0 c -1.287533,2.1886744 -2.2638908,3.969258 -2.9375,5.40625 -0.7032957,1.500312 -1.1250066,2.938824 -1.125,4.34375 -6.1e-6,2.151972 0.746151,4.105396 2.09375,5.65625 1.3502662,1.553943 3.1762687,2.468749 5.15625,2.46875 0.23075326,-1e-6 0.4568764,-0.06561 0.6875,-0.09375 0.25549892,0.274347 0.43383942,0.611232 0.75,0.8125 0.7057159,0.449279 1.538234,0.687497 2.34375,0.6875 0.8055001,-3e-6 1.6380329,-0.238249 2.34375,-0.6875 0.6947454,-0.442304 1.2124455,-1.065384 1.53125,-1.75 L 6.5,23.78125 6.53125,23.6875 C 6.9885726,22.774087 7.4107462,21.96451 7.8125,21.28125 8.1790218,20.657857 8.5869149,20.163072 9,19.75 c 0.3777281,-0.37774 1.128081,-0.957431 2.15625,-1.65625 1.002262,-0.681229 1.855702,-1.156443 2.59375,-1.4375 A 1.50015,1.50015 0 0 0 13.8125,16.625 L 14.03125,16.53125 14.09375,16.5 c 0.993857,-0.371338 1.880748,-0.796302 2.75,-1.25 -0.04922,0.08436 -0.0721,0.165819 -0.125,0.25 -0.874468,1.391463 -2.199147,3.167574 -4.03125,5.25 C 10.612015,23.127608 9.0145926,25.21322 7.90625,27 6.7233431,28.906894 6.1249778,31.04763 6.125,33.34375 l 0,2.3125 a 1.50015,1.50015 0 0 0 1.5,1.5 l 37.3125,0 a 1.50015,1.50015 0 0 0 1.5,-1.375 c 0.256811,-2.919933 0.374941,-5.281929 0.375,-7.09375 -5.8e-5,-5.352923 -0.666906,-10.489122 -2,-15.40625 -1.332651,-4.9150582 -3.236099,-9.2636363 -5.6875,-13.0625 -2.448892,-3.7947705 -5.286325,-6.8482101 -8.5625,-9.0625 -3.007986,-2.032914 -6.270765,-3.114118 -9.6875,-3.40625 -0.374101,-1.011462 -0.750239,-2.011259 -1.375,-2.875 -0.820466,-1.134128 -1.791963,-2.104605 -2.90625,-2.8125 a 1.50015,1.50015 0 0 0 -1,-0.21875 z m -8.625,17.25 A 1.50015,1.50015 0 0 0 7.25,0.3125 l -0.0625,0 c -9.2e-6,0.24549468 -0.017113,0.23586269 -0.09375,0.3125 -0.07671,0.0767104 -0.06713,0.0937589 -0.3125,0.09375 -0.1045603,6.15e-6 -0.092531,-0.008163 -0.1875,-0.0625 a 1.50015,1.50015 0 0 0 -1,-0.15625 c 0.1673001,-0.25409071 0.3004588,-0.50353937 0.5625,-0.78125 0.2821859,-0.29905712 0.5423812,-0.44471458 0.8125,-0.625 z m 27.875,5.78125 c 1.608261,3.0358877 2.949654,6.393116 3.90625,10.21875 1.073786,4.294723 1.624947,8.815851 1.625,13.59375 -5.3e-5,0.838379 -0.0103,1.676387 -0.03125,2.46875 -0.007,0.265022 -0.04909,0.448083 -0.0625,0.6875 l -0.5,0 c 0.0655,-1.021414 0.156215,-1.998414 0.15625,-3.15625 C 39.937448,24.03353 39.461523,19.582814 38.5,15.34375 37.620591,11.467119 36.363913,8.01673 34.84375,4.875 z"
       transform="translate(12.8125,22.606602)" />
    <path
       style="fill:#ffffff;fill-opacity:1;fill-rule:nonzero;stroke:none"
       d="m 32.897587,13.771019 c -0.328418,0.819197 -0.127854,1.836359 -0.09976,2.701346 0.501937,0.60018 1.566107,0.398043 2.269037,0.734488 5.020561,1.633352 8.431948,6.095598 10.7128,10.657533 4.194097,8.617436 5.501351,18.35889 4.954566,27.872215 -0.09165,1.121109 1.354239,0.569517 2.023032,0.696788 0.771248,-0.07298 2.172586,0.36761 2.141639,-0.842838 0.198571,-5.063145 0.145294,-10.181006 -0.855963,-15.165998 -1.492691,-7.723847 -4.428873,-15.47398 -9.98408,-21.20791 -2.873011,-2.96116 -6.677826,-5.166773 -10.83887,-5.537737 -0.107466,0.0307 -0.214931,0.06141 -0.322398,0.09211 z"
       id="path2984"
       inkscape:connector-curvature="0" />
    <path
       style="fill:#ffffff;fill-opacity:1;fill-rule:nonzero;stroke:none"
       d="m 34.085852,24.345649 c -1.029131,-0.01355 -1.285485,1.111029 -1.312476,1.919429 -0.01271,1.648307 -0.835146,3.116365 -1.041024,4.721955 0.0087,0.916369 0.966087,1.490716 1.814636,1.229716 1.237982,-0.09402 1.353124,-1.651095 1.692216,-2.564774 0.328188,-1.506229 0.767296,-3.108651 0.444817,-4.643108 -0.269056,-0.599946 -1.015335,-0.711691 -1.598169,-0.663218 z"
       id="path2986"
       inkscape:connector-curvature="0" />
    <path
       style="fill:#ffffff;fill-opacity:1;fill-rule:nonzero;stroke:none"
       d="m 24.501441,14.314489 c -1.282729,0.407876 -2.634487,1.091186 -3.417411,2.229147 -0.475428,0.917741 0.239261,2.225577 1.344858,2.008074 1.016177,-0.08564 1.834909,-0.837994 2.69432,-1.303406 0.387027,-0.535737 -0.05439,-1.240336 0.06908,-1.856087 0.01333,-0.439479 -0.08258,-1.153022 -0.69085,-1.077728 z"
       id="path2988"
       inkscape:connector-curvature="0" />
    <path
       style="fill:#ffffff;fill-opacity:1;fill-rule:nonzero;stroke:none"
       d="m 21.185355,19.325464 c -2.780557,0.229064 -5.205908,2.83193 -5.25047,5.618923 -0.09323,1.16807 1.276041,1.738886 2.224541,1.289589 0.473195,-0.162049 0.666742,-0.718371 0.819811,-1.100756 0.882278,0.17353 1.850895,0.05941 2.381134,-0.755331 0.638124,-0.504896 0.385675,-1.399241 0.414511,-2.054131 1.586357,-0.144774 1.645297,-2.893356 0.0092,-2.975266 -0.197617,-0.03037 -0.399309,-0.03086 -0.598738,-0.02303 z"
       id="path2990"
       inkscape:connector-curvature="0" />
    <path
       style="fill:#ffffff;fill-opacity:1;fill-rule:nonzero;stroke:none"
       d="m 11.402901,36.237503 c -1.6493804,0.163426 -2.2968689,2.100307 -2.3903456,3.509524 -0.1730087,0.952459 0.7240362,1.642413 1.6211976,1.506056 1.064351,0.133141 1.228447,-1.037022 1.547507,-1.759368 0.375403,-0.496482 1.012684,-0.930497 1.008643,-1.667254 0.09543,-0.958725 -0.887327,-1.69046 -1.787002,-1.588958 z"
       id="path2992"
       inkscape:connector-curvature="0" />
    <path
       style="fill:#ffffff;fill-opacity:1;fill-rule:nonzero;stroke:none"
       d="m 14.530154,40.179961 c -1.08585,0.258465 -1.380718,1.610944 -1.524478,2.569967 -0.163103,0.940636 0.766883,1.639753 1.644226,1.413942 1.162856,-0.09055 1.485028,-1.517134 1.690283,-2.454825 0.215231,-1.089116 -0.872288,-1.627478 -1.810031,-1.529084 z"
       id="path2994"
       inkscape:connector-curvature="0" />
    <text
       xml:space="preserve"
       style="font-size:63.77760315px;font-style:normal;font-variant:normal;font-weight:normal;font-stretch:normal;line-height:125%;letter-spacing:0px;word-spacing:0px;fill:#000000;fill-opacity:1;stroke:none;font-family:DiagramTTHabsburg;-inkscape-font-specification:DiagramTTHabsburg"
       x="0.71748269"
       y="44.884247"
       id="text5405"
       sodipodi:linespacing="125%"><tspan
         sodipodi:role="line"
         id="tspan5407"
         x="0.71748269"
         y="44.884247">n</tspan></text>
  </g>
</svg>
