<?xml version="1.0" encoding="UTF-8" standalone="no"?>
<!-- Created with Inkscape (http://www.inkscape.org/) -->

<svg
   xmlns:dc="http://purl.org/dc/elements/1.1/"
   xmlns:cc="http://creativecommons.org/ns#"
   xmlns:rdf="http://www.w3.org/1999/02/22-rdf-syntax-ns#"
   xmlns:svg="http://www.w3.org/2000/svg"
   xmlns="http://www.w3.org/2000/svg"
   xmlns:sodipodi="http://sodipodi.sourceforge.net/DTD/sodipodi-0.dtd"
   xmlns:inkscape="http://www.inkscape.org/namespaces/inkscape"
   width="64px"
   height="64px"
   id="svg2985"
   version="1.1"
   inkscape:version="0.48.2 r9819"
   sodipodi:docname="bq.svg">
  <defs
     id="defs2987" />
  <sodipodi:namedview
     id="base"
     pagecolor="#522e20"
     bordercolor="#666666"
     borderopacity="1.0"
     inkscape:pageopacity="0"
     inkscape:pageshadow="2"
     inkscape:zoom="12.456497"
     inkscape:cx="32"
     inkscape:cy="32"
     inkscape:current-layer="layer1"
     showgrid="true"
     inkscape:document-units="px"
     inkscape:grid-bbox="true"
     inkscape:window-width="1408"
     inkscape:window-height="878"
     inkscape:window-x="24"
     inkscape:window-y="-8"
     inkscape:window-maximized="1" />
  <metadata
     id="metadata2990">
    <rdf:RDF>
      <cc:Work
         rdf:about="">
        <dc:format>image/svg+xml</dc:format>
        <dc:type
           rdf:resource="http://purl.org/dc/dcmitype/StillImage" />
        <dc:title />
      </cc:Work>
    </rdf:RDF>
  </metadata>
  <g
     id="layer1"
     inkscape:label="Layer 1"
     inkscape:groupmode="layer">
    <path
       sodipodi:type="inkscape:offset"
       inkscape:radius="1.5"
       inkscape:original="M 92.875 -7.90625 C 91.812269 -7.9062111 90.93162 -7.5247126 90.1875 -6.78125 C 89.443322 -6.0377118 89.062472 -5.157712 89.0625 -4.09375 C 89.062472 -3.2009955 89.332052 -2.3887971 89.90625 -1.6875 C 90.48039 -0.98613756 91.232249 -0.52526809 92.125 -0.3125 L 88.34375 18.1875 L 81.96875 1.21875 C 82.691468 0.96445854 83.282208 0.50294029 83.75 -0.15625 C 84.217747 -0.81537798 84.468727 -1.5353384 84.46875 -2.34375 C 84.468727 -3.4064161 84.087877 -4.3183148 83.34375 -5.0625 C 82.599578 -5.8066131 81.68768 -6.1874628 80.625 -6.1875 C 79.560983 -6.1874628 78.681632 -5.8066131 77.9375 -5.0625 C 77.193334 -4.3183148 76.812484 -3.4064161 76.8125 -2.34375 C 76.812484 -1.322539 77.182845 -0.46286844 77.90625 0.28125 C 78.629621 1.0254299 79.4801 1.4272577 80.5 1.46875 L 79.6875 21.5 L 71.3125 6.0625 C 72.630808 5.2969661 73.312488 4.1758266 73.3125 2.6875 C 73.312488 1.6248288 72.931638 0.71293017 72.1875 -0.03125 C 71.44334 -0.77536812 70.531441 -1.1562179 69.46875 -1.15625 C 68.406042 -1.1562179 67.525393 -0.77536812 66.78125 -0.03125 C 66.037095 0.71293017 65.656245 1.6248288 65.65625 2.6875 C 65.656245 3.7502278 66.037095 4.6621265 66.78125 5.40625 C 67.525393 6.1504248 68.406042 6.5000245 69.46875 6.5 C 69.72436 6.5000245 69.93533 6.4803439 70.0625 6.4375 L 72.84375 25.25 L 75.71875 29.28125 L 77.0625 34.8125 L 74.65625 41.40625 C 77.420034 42.384598 80.37373 43.115047 83.5625 43.625 C 86.751225 44.134927 89.855552 44.406237 92.875 44.40625 C 95.894384 44.406237 98.998712 44.134927 102.1875 43.625 C 105.37621 43.115047 108.36115 42.384598 111.125 41.40625 L 108.6875 34.8125 L 110.03125 29.28125 L 112.90625 25.1875 L 115.71875 6.4375 C 115.84586 6.4803439 116.02558 6.5000245 116.28125 6.5 C 117.34389 6.5000245 118.25579 6.1504248 119 5.40625 C 119.74409 4.6621265 120.12494 3.7502278 120.125 2.6875 C 120.12494 1.6248288 119.74409 0.71293017 119 -0.03125 C 118.25579 -0.77536812 117.34389 -1.1562179 116.28125 -1.15625 C 115.2185 -1.1562179 114.33785 -0.77536812 113.59375 -0.03125 C 112.84955 0.71293017 112.4687 1.6248288 112.46875 2.6875 C 112.4687 4.1758266 113.11913 5.2969661 114.4375 6.0625 L 106.09375 21.5 L 105.25 1.46875 C 106.26984 1.4272577 107.15156 1.0254299 107.875 0.28125 C 108.59834 -0.46286844 108.9687 -1.322539 108.96875 -2.34375 C 108.9687 -3.4064161 108.58785 -4.3183148 107.84375 -5.0625 C 107.09955 -5.8066131 106.18895 -6.1874628 105.125 -6.1875 C 104.06226 -6.1874628 103.15036 -5.8066131 102.40625 -5.0625 C 101.66206 -4.3183148 101.31246 -3.4064161 101.3125 -2.34375 C 101.31246 -1.5781578 101.54203 -0.87787792 102.03125 -0.21875 C 102.52039 0.44044036 103.10129 0.92163915 103.78125 1.21875 L 97.40625 18.1875 L 93.65625 -0.3125 C 94.548937 -0.52526809 95.269546 -0.98613756 95.84375 -1.6875 C 96.417884 -2.3887971 96.718714 -3.2009955 96.71875 -4.09375 C 96.718714 -5.157712 96.337865 -6.0377118 95.59375 -6.78125 C 94.849566 -7.5247126 93.937668 -7.9062111 92.875 -7.90625 z M 92.875 26.40625 C 97.849803 26.406255 102.89796 26.997643 108 28.1875 L 107.4375 30.4375 C 105.3964 29.927561 103.03236 29.506701 100.375 29.1875 C 97.717563 28.868303 95.213166 28.687502 92.875 28.6875 C 90.53677 28.687502 88.063623 28.868303 85.40625 29.1875 C 82.748828 29.506701 80.38479 29.927561 78.34375 30.4375 L 77.78125 28.1875 C 80.37505 27.634743 82.948978 27.193554 85.5 26.875 C 88.050973 26.556454 90.49395 26.406255 92.875 26.40625 z M 92.875 31.125 C 95.086006 31.125 97.390353 31.265359 99.75 31.5625 C 102.10957 31.85964 104.46269 32.270011 106.84375 32.78125 L 106.34375 35.03125 C 104.13267 34.521306 101.88974 34.120127 99.59375 33.84375 C 97.297684 33.567367 95.043186 33.406248 92.875 33.40625 C 90.70675 33.406248 88.483503 33.567367 86.1875 33.84375 C 83.891447 34.120127 81.648519 34.521306 79.4375 35.03125 L 78.90625 32.78125 C 81.201611 32.270011 83.566298 31.85964 85.96875 31.5625 C 88.371152 31.265359 90.66393 31.125 92.875 31.125 z M 92.875 35.71875 C 95.170347 35.718745 97.544874 35.878785 99.96875 36.21875 C 102.39255 36.558705 104.8458 37.029415 107.3125 37.625 L 108.125 39.875 L 107.5625 40.0625 C 105.18144 39.42539 102.70786 38.924511 100.15625 38.5625 C 97.604564 38.200474 95.170347 37.999993 92.875 38 C 90.621111 37.999993 88.228633 38.200474 85.65625 38.5625 C 83.083818 38.924511 80.599751 39.42539 78.21875 40.0625 L 77.65625 39.875 L 78.46875 37.625 C 80.89257 37.029415 83.346467 36.558705 85.8125 36.21875 C 88.278483 35.878785 90.621111 35.718745 92.875 35.71875 z "
       style="font-size:63.77760315px;font-style:normal;font-variant:normal;font-weight:normal;font-stretch:normal;line-height:125%;letter-spacing:0px;word-spacing:0px;fill:#4d4d4d;fill-opacity:1;stroke:none;font-family:DiagramTTHabsburg;-inkscape-font-specification:DiagramTTHabsburg"
       id="path3170-5"
       d="m 92.875,-9.40625 c -1.42168,5.2e-5 -2.768775,0.5821414 -3.75,1.5625 -0.981782,0.980938 -1.562537,2.3280617 -1.5625,3.75 -3.7e-5,1.1947473 0.399459,2.3812759 1.1875,3.34375 0.460084,0.56203311 1.027262,1.00488727 1.65625,1.34375 l -2.5,12.1875 -4.0625,-10.875 c 0.43569,-0.3313693 0.806013,-0.7379983 1.125,-1.1875 0.619537,-0.87302295 0.999968,-1.9436531 1,-3.0625 -3.1e-5,-1.4210386 -0.566102,-2.7847743 -1.5625,-3.78125 -0.996467,-0.9963879 -2.360214,-1.5624503 -3.78125,-1.5625 -1.421924,4.97e-5 -2.769021,0.5815456 -3.75,1.5625 -0.996453,0.9964786 -1.562521,2.3601799 -1.5625,3.78125 -2.2e-5,1.38389263 0.58372,2.68158877 1.53125,3.65625 0.585629,0.6024754 1.305524,1.0331064 2.09375,1.3125 L 78.40625,16 73.15625,6.28125 C 74.108008,5.2963876 74.812489,4.1016364 74.8125,2.6875 74.812484,1.2664492 74.246417,-0.09727645 73.25,-1.09375 c -0.996461,-0.9964044 -2.360202,-1.5624571 -3.78125,-1.5625 -1.42106,4.29e-5 -2.768397,0.5809299 -3.75,1.5625 -0.996441,0.9964748 -1.562507,2.3601855 -1.5625,3.78125 -7e-6,1.4211021 0.566016,2.7848084 1.5625,3.78125 0.828413,0.8284484 1.922216,1.2576082 3.0625,1.40625 L 71.375,25.46875 a 1.50015,1.50015 0 0 0 0.25,0.65625 L 74.3125,29.90625 75.5,34.75 73.25,40.90625 a 1.50015,1.50015 0 0 0 0.90625,1.90625 c 2.859299,1.012159 5.889552,1.758835 9.15625,2.28125 3.2567,0.520797 6.453202,0.812487 9.5625,0.8125 3.109236,-1.3e-5 6.305741,-0.291704 9.5625,-0.8125 3.26513,-0.522174 6.32479,-1.267908 9.1875,-2.28125 a 1.50015,1.50015 0 0 0 0.90625,-1.9375 l -2.28125,-6.15625 1.1875,-4.8125 2.6875,-3.84375 a 1.50015,1.50015 0 0 0 0.25,-0.65625 L 117,7.875 c 1.1325,-0.1508956 2.22975,-0.5735355 3.0625,-1.40625 0.99639,-0.9964368 1.56242,-2.3602004 1.5625,-3.78125 -8e-5,-1.4210121 -0.56615,-2.78477999 -1.5625,-3.78125 -0.99649,-0.9963673 -2.36024,-1.5624571 -3.78125,-1.5625 -1.42109,4.29e-5 -2.76842,0.5808984 -3.75,1.5625 -0.9965,0.99647812 -1.56257,2.3601491 -1.5625,3.78125 -5e-5,1.4139457 0.69384,2.631186 1.65625,3.625 L 107.375,16 106.8125,2.625 c 0.79435,-0.2762571 1.53002,-0.7004635 2.125,-1.3125 0.94744,-0.97465472 1.53118,-2.27241276 1.53125,-3.65625 -7e-5,-1.4210168 -0.56614,-2.7847763 -1.5625,-3.78125 -0.99587,-0.9957502 -2.35937,-1.5624503 -3.78125,-1.5625 -1.42108,4.97e-5 -2.78482,0.5660645 -3.78125,1.5625 -1.01133,1.0113267 -1.531302,2.3895677 -1.53125,3.78125 -5.6e-5,1.0654994 0.34159,2.14416927 1,3.03125 0.31181,0.4202063 0.79057,0.6433887 1.1875,0.96875 L 97.84375,12.75 95.375,0.5625 C 95.988422,0.22125212 96.555316,-0.20683998 97,-0.75 c 0.771041,-0.9418166 1.2187,-2.1140638 1.21875,-3.34375 -4.8e-5,-1.4218876 -0.580806,-2.7690667 -1.5625,-3.75 -0.996117,-0.9951513 -2.359613,-1.562448 -3.78125,-1.5625 z"
       transform="translate(-58.890625,15.95)" />
    <path
       sodipodi:type="inkscape:offset"
       inkscape:radius="1.5"
       inkscape:original="M 92.875 -7.90625 C 91.812269 -7.9062111 90.93162 -7.5247126 90.1875 -6.78125 C 89.443322 -6.0377118 89.062472 -5.157712 89.0625 -4.09375 C 89.062472 -3.2009955 89.332052 -2.3887971 89.90625 -1.6875 C 90.48039 -0.98613756 91.232249 -0.52526809 92.125 -0.3125 L 88.34375 18.1875 L 81.96875 1.21875 C 82.691468 0.96445854 83.282208 0.50294029 83.75 -0.15625 C 84.217747 -0.81537798 84.468727 -1.5353384 84.46875 -2.34375 C 84.468727 -3.4064161 84.087877 -4.3183148 83.34375 -5.0625 C 82.599578 -5.8066131 81.68768 -6.1874628 80.625 -6.1875 C 79.560983 -6.1874628 78.681632 -5.8066131 77.9375 -5.0625 C 77.193334 -4.3183148 76.812484 -3.4064161 76.8125 -2.34375 C 76.812484 -1.322539 77.182845 -0.46286844 77.90625 0.28125 C 78.629621 1.0254299 79.4801 1.4272577 80.5 1.46875 L 79.6875 21.5 L 71.3125 6.0625 C 72.630808 5.2969661 73.312488 4.1758266 73.3125 2.6875 C 73.312488 1.6248288 72.931638 0.71293017 72.1875 -0.03125 C 71.44334 -0.77536812 70.531441 -1.1562179 69.46875 -1.15625 C 68.406042 -1.1562179 67.525393 -0.77536812 66.78125 -0.03125 C 66.037095 0.71293017 65.656245 1.6248288 65.65625 2.6875 C 65.656245 3.7502278 66.037095 4.6621265 66.78125 5.40625 C 67.525393 6.1504248 68.406042 6.5000245 69.46875 6.5 C 69.72436 6.5000245 69.93533 6.4803439 70.0625 6.4375 L 72.84375 25.25 L 75.71875 29.28125 L 77.0625 34.8125 L 74.65625 41.40625 C 77.420034 42.384598 80.37373 43.115047 83.5625 43.625 C 86.751225 44.134927 89.855552 44.406237 92.875 44.40625 C 95.894384 44.406237 98.998712 44.134927 102.1875 43.625 C 105.37621 43.115047 108.36115 42.384598 111.125 41.40625 L 108.6875 34.8125 L 110.03125 29.28125 L 112.90625 25.1875 L 115.71875 6.4375 C 115.84586 6.4803439 116.02558 6.5000245 116.28125 6.5 C 117.34389 6.5000245 118.25579 6.1504248 119 5.40625 C 119.74409 4.6621265 120.12494 3.7502278 120.125 2.6875 C 120.12494 1.6248288 119.74409 0.71293017 119 -0.03125 C 118.25579 -0.77536812 117.34389 -1.1562179 116.28125 -1.15625 C 115.2185 -1.1562179 114.33785 -0.77536812 113.59375 -0.03125 C 112.84955 0.71293017 112.4687 1.6248288 112.46875 2.6875 C 112.4687 4.1758266 113.11913 5.2969661 114.4375 6.0625 L 106.09375 21.5 L 105.25 1.46875 C 106.26984 1.4272577 107.15156 1.0254299 107.875 0.28125 C 108.59834 -0.46286844 108.9687 -1.322539 108.96875 -2.34375 C 108.9687 -3.4064161 108.58785 -4.3183148 107.84375 -5.0625 C 107.09955 -5.8066131 106.18895 -6.1874628 105.125 -6.1875 C 104.06226 -6.1874628 103.15036 -5.8066131 102.40625 -5.0625 C 101.66206 -4.3183148 101.31246 -3.4064161 101.3125 -2.34375 C 101.31246 -1.5781578 101.54203 -0.87787792 102.03125 -0.21875 C 102.52039 0.44044036 103.10129 0.92163915 103.78125 1.21875 L 97.40625 18.1875 L 93.65625 -0.3125 C 94.548937 -0.52526809 95.269546 -0.98613756 95.84375 -1.6875 C 96.417884 -2.3887971 96.718714 -3.2009955 96.71875 -4.09375 C 96.718714 -5.157712 96.337865 -6.0377118 95.59375 -6.78125 C 94.849566 -7.5247126 93.937668 -7.9062111 92.875 -7.90625 z M 92.875 26.40625 C 97.849803 26.406255 102.89796 26.997643 108 28.1875 L 107.4375 30.4375 C 105.3964 29.927561 103.03236 29.506701 100.375 29.1875 C 97.717563 28.868303 95.213166 28.687502 92.875 28.6875 C 90.53677 28.687502 88.063623 28.868303 85.40625 29.1875 C 82.748828 29.506701 80.38479 29.927561 78.34375 30.4375 L 77.78125 28.1875 C 80.37505 27.634743 82.948978 27.193554 85.5 26.875 C 88.050973 26.556454 90.49395 26.406255 92.875 26.40625 z M 92.875 31.125 C 95.086006 31.125 97.390353 31.265359 99.75 31.5625 C 102.10957 31.85964 104.46269 32.270011 106.84375 32.78125 L 106.34375 35.03125 C 104.13267 34.521306 101.88974 34.120127 99.59375 33.84375 C 97.297684 33.567367 95.043186 33.406248 92.875 33.40625 C 90.70675 33.406248 88.483503 33.567367 86.1875 33.84375 C 83.891447 34.120127 81.648519 34.521306 79.4375 35.03125 L 78.90625 32.78125 C 81.201611 32.270011 83.566298 31.85964 85.96875 31.5625 C 88.371152 31.265359 90.66393 31.125 92.875 31.125 z M 92.875 35.71875 C 95.170347 35.718745 97.544874 35.878785 99.96875 36.21875 C 102.39255 36.558705 104.8458 37.029415 107.3125 37.625 L 108.125 39.875 L 107.5625 40.0625 C 105.18144 39.42539 102.70786 38.924511 100.15625 38.5625 C 97.604564 38.200474 95.170347 37.999993 92.875 38 C 90.621111 37.999993 88.228633 38.200474 85.65625 38.5625 C 83.083818 38.924511 80.599751 39.42539 78.21875 40.0625 L 77.65625 39.875 L 78.46875 37.625 C 80.89257 37.029415 83.346467 36.558705 85.8125 36.21875 C 88.278483 35.878785 90.621111 35.718745 92.875 35.71875 z "
       style="font-size:63.77760315px;font-style:normal;font-variant:normal;font-weight:normal;font-stretch:normal;line-height:125%;letter-spacing:0px;word-spacing:0px;fill:#ffffff;fill-opacity:1;stroke:none;font-family:DiagramTTHabsburg;-inkscape-font-specification:DiagramTTHabsburg"
       id="path3170"
       d="m 92.875,-9.40625 c -1.42168,5.2e-5 -2.768775,0.5821414 -3.75,1.5625 -0.981782,0.980938 -1.562537,2.3280617 -1.5625,3.75 -3.7e-5,1.1947473 0.399459,2.3812759 1.1875,3.34375 0.460084,0.56203311 1.027262,1.00488727 1.65625,1.34375 l -2.5,12.1875 -4.0625,-10.875 c 0.43569,-0.3313693 0.806013,-0.7379983 1.125,-1.1875 0.619537,-0.87302295 0.999968,-1.9436531 1,-3.0625 -3.1e-5,-1.4210386 -0.566102,-2.7847743 -1.5625,-3.78125 -0.996467,-0.9963879 -2.360214,-1.5624503 -3.78125,-1.5625 -1.421924,4.97e-5 -2.769021,0.5815456 -3.75,1.5625 -0.996453,0.9964786 -1.562521,2.3601799 -1.5625,3.78125 -2.2e-5,1.38389263 0.58372,2.68158877 1.53125,3.65625 0.585629,0.6024754 1.305524,1.0331064 2.09375,1.3125 L 78.40625,16 73.15625,6.28125 C 74.108008,5.2963876 74.812489,4.1016364 74.8125,2.6875 74.812484,1.2664492 74.246417,-0.09727645 73.25,-1.09375 c -0.996461,-0.9964044 -2.360202,-1.5624571 -3.78125,-1.5625 -1.42106,4.29e-5 -2.768397,0.5809299 -3.75,1.5625 -0.996441,0.9964748 -1.562507,2.3601855 -1.5625,3.78125 -7e-6,1.4211021 0.566016,2.7848084 1.5625,3.78125 0.828413,0.8284484 1.922216,1.2576082 3.0625,1.40625 L 71.375,25.46875 a 1.50015,1.50015 0 0 0 0.25,0.65625 L 74.3125,29.90625 75.5,34.75 73.25,40.90625 a 1.50015,1.50015 0 0 0 0.90625,1.90625 c 2.859299,1.012159 5.889552,1.758835 9.15625,2.28125 3.2567,0.520797 6.453202,0.812487 9.5625,0.8125 3.109236,-1.3e-5 6.305741,-0.291704 9.5625,-0.8125 3.26513,-0.522174 6.32479,-1.267908 9.1875,-2.28125 a 1.50015,1.50015 0 0 0 0.90625,-1.9375 l -2.28125,-6.15625 1.1875,-4.8125 2.6875,-3.84375 a 1.50015,1.50015 0 0 0 0.25,-0.65625 L 117,7.875 c 1.1325,-0.1508956 2.22975,-0.5735355 3.0625,-1.40625 0.99639,-0.9964368 1.56242,-2.3602004 1.5625,-3.78125 -8e-5,-1.4210121 -0.56615,-2.78477999 -1.5625,-3.78125 -0.99649,-0.9963673 -2.36024,-1.5624571 -3.78125,-1.5625 -1.42109,4.29e-5 -2.76842,0.5808984 -3.75,1.5625 -0.9965,0.99647812 -1.56257,2.3601491 -1.5625,3.78125 -5e-5,1.4139457 0.69384,2.631186 1.65625,3.625 L 107.375,16 106.8125,2.625 c 0.79435,-0.2762571 1.53002,-0.7004635 2.125,-1.3125 0.94744,-0.97465472 1.53118,-2.27241276 1.53125,-3.65625 -7e-5,-1.4210168 -0.56614,-2.7847763 -1.5625,-3.78125 -0.99587,-0.9957502 -2.35937,-1.5624503 -3.78125,-1.5625 -1.42108,4.97e-5 -2.78482,0.5660645 -3.78125,1.5625 -1.01133,1.0113267 -1.531302,2.3895677 -1.53125,3.78125 -5.6e-5,1.0654994 0.34159,2.14416927 1,3.03125 0.31181,0.4202063 0.79057,0.6433887 1.1875,0.96875 L 97.84375,12.75 95.375,0.5625 C 95.988422,0.22125212 96.555316,-0.20683998 97,-0.75 c 0.771041,-0.9418166 1.2187,-2.1140638 1.21875,-3.34375 -4.8e-5,-1.4218876 -0.580806,-2.7690667 -1.5625,-3.75 -0.996117,-0.9951513 -2.359613,-1.562448 -3.78125,-1.5625 z"
       transform="translate(-60.890625,13.95)" />
    <path
       style="fill:#ffffff;fill-opacity:1;fill-rule:nonzero;stroke:none"
       d="m 30.802005,49.336044 c -4.487098,-0.0053 -8.920044,0.869628 -13.282768,1.837664 -0.633863,0.565306 -0.739522,1.578211 -1.008642,2.376528 -0.08362,0.958265 1.171796,0.808964 1.750648,0.577974 7.315087,-1.850519 15.053633,-2.397381 22.506109,-1.012361 2.063509,0.280813 4.086048,0.858181 6.122277,1.217352 0.938444,-0.200985 0.47232,-1.367522 0.245078,-1.957996 -0.08336,-1.007533 -0.863289,-1.41282 -1.785945,-1.455114 -4.531124,-1.002446 -9.126912,-1.715739 -13.782215,-1.588653 -0.254847,0.0015 -0.509694,0.0031 -0.764542,0.0046 z"
       id="path2984"
       inkscape:connector-curvature="0" />
    <path
       style="fill:#ffffff;fill-opacity:1;fill-rule:nonzero;stroke:none"
       d="m 31.713929,44.698129 c -4.566228,0.106086 -9.169436,0.553033 -13.595954,1.662648 -0.751244,0.533862 -0.112642,1.572149 0.0092,2.261387 0.295816,1.017001 1.481746,0.379345 2.185101,0.327101 4.209358,-0.947122 8.523639,-1.224515 12.834002,-1.122159 3.831544,-0.108565 7.594421,0.571115 11.343783,1.255626 0.723779,0.208374 1.53983,-0.21427 1.547506,-1.02246 0.111735,-0.595836 0.537078,-1.644879 -0.363848,-1.796214 -4.300074,-0.862635 -8.698258,-1.52229 -13.103147,-1.570535 -0.28557,-0.0015 -0.571103,0.0018 -0.856655,0.0046 z"
       id="path2986"
       inkscape:connector-curvature="0" />
    <path
       style="fill:#ffffff;fill-opacity:1;fill-rule:nonzero;stroke:none"
       d="m 30.949387,40.041791 c -4.668457,-0.03161 -9.294244,0.718274 -13.853872,1.648832 -0.934101,0.25631 -0.26663,1.403145 -0.188832,2.040314 0.04548,0.552178 0.445837,1.136038 1.066053,0.843636 7.939579,-1.732946 16.215771,-2.070841 24.237527,-0.705466 1.433093,0.221225 2.849307,0.577057 4.287884,0.74612 0.76778,-0.290154 0.595552,-1.369327 0.856655,-2.026497 0.324339,-0.922736 -0.861563,-1.006622 -1.470625,-1.135864 -4.45874,-0.889219 -8.981029,-1.552418 -13.543876,-1.420287 -0.463675,-0.0027 -0.927272,0.0051 -1.390914,0.0092 z"
       id="path2988"
       inkscape:connector-curvature="0" />
    <text
       xml:space="preserve"
       style="font-size:63.77760315px;font-style:normal;font-variant:normal;font-weight:normal;font-stretch:normal;line-height:125%;letter-spacing:0px;word-spacing:0px;fill:#000000;fill-opacity:1;stroke:none;font-family:DiagramTTHabsburg;-inkscape-font-specification:DiagramTTHabsburg"
       x="0.11119843"
       y="44.884247"
       id="text5289"
       sodipodi:linespacing="125%"><tspan
         sodipodi:role="line"
         id="tspan5291"
         x="0.11119843"
         y="44.884247">q</tspan></text>
  </g>
</svg>
