<?xml version="1.0" encoding="UTF-8" standalone="no"?>
<!-- Created with Inkscape (http://www.inkscape.org/) -->

<svg
   xmlns:dc="http://purl.org/dc/elements/1.1/"
   xmlns:cc="http://creativecommons.org/ns#"
   xmlns:rdf="http://www.w3.org/1999/02/22-rdf-syntax-ns#"
   xmlns:svg="http://www.w3.org/2000/svg"
   xmlns="http://www.w3.org/2000/svg"
   xmlns:sodipodi="http://sodipodi.sourceforge.net/DTD/sodipodi-0.dtd"
   xmlns:inkscape="http://www.inkscape.org/namespaces/inkscape"
   width="64px"
   height="64px"
   id="svg2985"
   version="1.1"
   inkscape:version="0.48.2 r9819"
   sodipodi:docname="br.svg">
  <defs
     id="defs2987" />
  <sodipodi:namedview
     id="base"
     pagecolor="#afa292"
     bordercolor="#666666"
     borderopacity="1.0"
     inkscape:pageopacity="0"
     inkscape:pageshadow="2"
     inkscape:zoom="10.765625"
     inkscape:cx="32"
     inkscape:cy="32"
     inkscape:current-layer="layer1"
     showgrid="true"
     inkscape:document-units="px"
     inkscape:grid-bbox="true"
     inkscape:window-width="1408"
     inkscape:window-height="878"
     inkscape:window-x="24"
     inkscape:window-y="-8"
     inkscape:window-maximized="1" />
  <metadata
     id="metadata2990">
    <rdf:RDF>
      <cc:Work
         rdf:about="">
        <dc:format>image/svg+xml</dc:format>
        <dc:type
           rdf:resource="http://purl.org/dc/dcmitype/StillImage" />
        <dc:title />
      </cc:Work>
    </rdf:RDF>
  </metadata>
  <g
     id="layer1"
     inkscape:label="Layer 1"
     inkscape:groupmode="layer">
    <path
       sodipodi:type="inkscape:offset"
       inkscape:radius="1.5"
       inkscape:original="M 67.8125 -7.875 L 67.8125 3.03125 L 74.0625 7.8125 L 74.0625 23 L 68.75 27.78125 L 68.75 33.5 L 64.4375 33.5 L 64.4375 40.59375 L 106.25 40.59375 L 106.25 33.5 L 101.9375 33.5 L 101.9375 27.78125 L 96.625 23 L 96.625 7.8125 L 102.875 3.03125 L 102.875 -7.875 L 94.34375 -7.875 L 94.34375 -4.0625 L 89.625 -4.0625 L 89.625 -7.875 L 81.0625 -7.875 L 81.0625 -4.0625 L 76.34375 -4.0625 L 76.34375 -7.875 L 67.8125 -7.875 z M 70.09375 0.71875 L 100.59375 0.71875 L 100.59375 1.875 L 99.0625 3.03125 L 71.625 3.03125 L 70.09375 1.875 L 70.09375 0.71875 z M 74.8125 5.53125 L 95.875 5.53125 L 94.34375 6.65625 L 94.34375 7.8125 L 76.34375 7.8125 L 76.34375 6.65625 L 74.8125 5.53125 z M 76.34375 23 L 94.34375 23 L 94.34375 24 L 95.8125 25.28125 L 74.875 25.28125 L 76.34375 24 L 76.34375 23 z M 72.15625 27.78125 L 98.53125 27.78125 L 99.625 28.78125 L 99.625 30.0625 L 71.0625 30.0625 L 71.0625 28.78125 L 72.15625 27.78125 z M 71.0625 33.5 L 99.625 33.5 L 99.625 35.8125 L 71.0625 35.8125 L 71.0625 33.5 z "
       style="font-size:63.77760315px;font-style:normal;font-variant:normal;font-weight:normal;font-stretch:normal;line-height:125%;letter-spacing:0px;word-spacing:0px;fill:#4d4d4d;fill-opacity:1;stroke:none;font-family:DiagramTTHabsburg;-inkscape-font-specification:DiagramTTHabsburg"
       id="path3253-1"
       d="m 67.65625,-9.375 a 1.50015,1.50015 0 0 0 -1.34375,1.5 l 0,10.90625 a 1.50015,1.50015 0 0 0 0.59375,1.1875 l 5.65625,4.3125 0,13.78125 -4.8125,4.34375 a 1.50015,1.50015 0 0 0 -0.5,1.125 l 0,4.21875 -2.8125,0 a 1.50015,1.50015 0 0 0 -1.5,1.5 l 0,7.09375 a 1.50015,1.50015 0 0 0 1.5,1.5 l 41.8125,0 a 1.50015,1.50015 0 0 0 1.5,-1.5 l 0,-7.09375 a 1.50015,1.50015 0 0 0 -1.5,-1.5 l -2.8125,0 0,-4.21875 a 1.50015,1.50015 0 0 0 -0.5,-1.125 l -4.8125,-4.34375 0,-13.78125 5.65625,-4.3125 a 1.50015,1.50015 0 0 0 0.59375,-1.1875 l 0,-10.90625 a 1.50015,1.50015 0 0 0 -1.5,-1.5 l -8.53125,0 a 1.50015,1.50015 0 0 0 -1.5,1.5 l 0,2.3125 -1.71875,0 0,-2.3125 a 1.50015,1.50015 0 0 0 -1.5,-1.5 l -8.5625,0 a 1.50015,1.50015 0 0 0 -1.5,1.5 l 0,2.3125 -1.71875,0 0,-2.3125 a 1.50015,1.50015 0 0 0 -1.5,-1.5 l -8.53125,0 a 1.50015,1.50015 0 0 0 -0.15625,0 z"
       transform="translate(-51.34375,19.441643)" />
    <path
       sodipodi:type="inkscape:offset"
       inkscape:radius="1.5"
       inkscape:original="M 67.8125 -7.875 L 67.8125 3.03125 L 74.0625 7.8125 L 74.0625 23 L 68.75 27.78125 L 68.75 33.5 L 64.4375 33.5 L 64.4375 40.59375 L 106.25 40.59375 L 106.25 33.5 L 101.9375 33.5 L 101.9375 27.78125 L 96.625 23 L 96.625 7.8125 L 102.875 3.03125 L 102.875 -7.875 L 94.34375 -7.875 L 94.34375 -4.0625 L 89.625 -4.0625 L 89.625 -7.875 L 81.0625 -7.875 L 81.0625 -4.0625 L 76.34375 -4.0625 L 76.34375 -7.875 L 67.8125 -7.875 z M 70.09375 0.71875 L 100.59375 0.71875 L 100.59375 1.875 L 99.0625 3.03125 L 71.625 3.03125 L 70.09375 1.875 L 70.09375 0.71875 z M 74.8125 5.53125 L 95.875 5.53125 L 94.34375 6.65625 L 94.34375 7.8125 L 76.34375 7.8125 L 76.34375 6.65625 L 74.8125 5.53125 z M 76.34375 23 L 94.34375 23 L 94.34375 24 L 95.8125 25.28125 L 74.875 25.28125 L 76.34375 24 L 76.34375 23 z M 72.15625 27.78125 L 98.53125 27.78125 L 99.625 28.78125 L 99.625 30.0625 L 71.0625 30.0625 L 71.0625 28.78125 L 72.15625 27.78125 z M 71.0625 33.5 L 99.625 33.5 L 99.625 35.8125 L 71.0625 35.8125 L 71.0625 33.5 z "
       style="font-size:63.77760315px;font-style:normal;font-variant:normal;font-weight:normal;font-stretch:normal;line-height:125%;letter-spacing:0px;word-spacing:0px;fill:#ffffff;fill-opacity:1;stroke:none;font-family:DiagramTTHabsburg;-inkscape-font-specification:DiagramTTHabsburg"
       id="path3253"
       d="m 67.65625,-9.375 a 1.50015,1.50015 0 0 0 -1.34375,1.5 l 0,10.90625 a 1.50015,1.50015 0 0 0 0.59375,1.1875 l 5.65625,4.3125 0,13.78125 -4.8125,4.34375 a 1.50015,1.50015 0 0 0 -0.5,1.125 l 0,4.21875 -2.8125,0 a 1.50015,1.50015 0 0 0 -1.5,1.5 l 0,7.09375 a 1.50015,1.50015 0 0 0 1.5,1.5 l 41.8125,0 a 1.50015,1.50015 0 0 0 1.5,-1.5 l 0,-7.09375 a 1.50015,1.50015 0 0 0 -1.5,-1.5 l -2.8125,0 0,-4.21875 a 1.50015,1.50015 0 0 0 -0.5,-1.125 l -4.8125,-4.34375 0,-13.78125 5.65625,-4.3125 a 1.50015,1.50015 0 0 0 0.59375,-1.1875 l 0,-10.90625 a 1.50015,1.50015 0 0 0 -1.5,-1.5 l -8.53125,0 a 1.50015,1.50015 0 0 0 -1.5,1.5 l 0,2.3125 -1.71875,0 0,-2.3125 a 1.50015,1.50015 0 0 0 -1.5,-1.5 l -8.5625,0 a 1.50015,1.50015 0 0 0 -1.5,1.5 l 0,2.3125 -1.71875,0 0,-2.3125 a 1.50015,1.50015 0 0 0 -1.5,-1.5 l -8.53125,0 a 1.50015,1.50015 0 0 0 -0.15625,0 z"
       transform="translate(-53.34375,17.441643)" />
    <path
       style="fill:#ffffff;fill-opacity:1;fill-rule:nonzero;stroke:none"
       d="m 16.501384,18.268053 c -0.44951,0.938898 0.141517,1.915971 0.986535,2.350737 0.958715,0.832201 2.361282,0.264633 3.52242,0.431091 8.253371,0 16.506741,0 24.760111,0 0.91102,-0.443798 2.107954,-1.196327 1.828453,-2.408768 -0.210854,-0.932301 -1.507486,-0.331361 -2.196907,-0.502019 -9.530678,0 -19.061355,0 -28.592032,0 -0.102861,0.04298 -0.20572,0.08598 -0.30858,0.128959 z"
       id="path2984"
       inkscape:connector-curvature="0" />
    <path
       style="fill:#ffffff;fill-opacity:1;fill-rule:nonzero;stroke:none"
       d="m 21.323526,22.984265 c -0.4664,1.008432 1.487064,1.039056 1.248137,2.072553 -0.24498,1.205854 1.190422,0.813227 1.902144,0.865867 5.502247,0 11.004494,0 16.50674,0 0.840853,-0.171526 0.0455,-1.307084 0.764543,-1.635014 0.573749,-0.241494 1.610965,-1.316141 0.455962,-1.432365 -6.856316,0 -13.712631,0 -20.568946,0 -0.102861,0.04298 -0.20572,0.08597 -0.30858,0.128959 z"
       id="path2986"
       inkscape:connector-curvature="0" />
    <path
       style="fill:#ffffff;fill-opacity:1;fill-rule:nonzero;stroke:none"
       d="m 22.691411,40.522677 c -0.199298,0.510391 0.04918,1.223469 -0.594132,1.501449 -0.844018,0.270437 -1.020457,1.539092 0.09211,1.284785 6.681298,-0.004 13.362598,-0.0052 20.043898,-0.0044 1.008012,-0.391589 -0.203392,-1.1698 -0.612554,-1.547507 -0.488912,-0.370766 0.114036,-1.4276 -0.787571,-1.36328 -5.944392,0 -11.888783,0 -17.833174,0 -0.102861,0.04298 -0.205721,0.08597 -0.308581,0.128959 z"
       id="path2988"
       inkscape:connector-curvature="0" />
    <path
       style="fill:#ffffff;fill-opacity:1;fill-rule:nonzero;stroke:none"
       d="m 18.514064,45.229677 c -0.735219,0.54757 -1.291894,1.368456 -1.100757,2.325865 0.01047,1.043479 1.390649,0.480451 2.049526,0.621767 8.941151,0 17.882301,0 26.823453,0 0.716884,-0.277481 0.491806,-1.431033 0.115142,-1.966623 -0.498635,-0.687982 -1.155941,-1.352606 -2.090977,-1.100757 -8.499007,0 -16.998013,0 -25.497018,0 -0.09979,0.03991 -0.19958,0.07983 -0.299369,0.119748 z"
       id="path2990"
       inkscape:connector-curvature="0" />
    <path
       style="fill:#ffffff;fill-opacity:1;fill-rule:nonzero;stroke:none"
       d="m 17.533055,50.98677 c -0.202891,0.876513 -0.188377,1.905153 -0.0061,2.782063 1.089783,0.362576 2.387828,0.05411 3.557064,0.156358 8.400752,0 16.801504,0 25.202255,0 0.835566,-0.347957 0.25794,-1.554547 0.428329,-2.270598 0.191014,-1.149653 -1.221824,-0.726906 -1.902145,-0.796781 -8.990277,0 -17.980556,0 -26.970834,0 -0.10286,0.04298 -0.205721,0.08597 -0.30858,0.128958 z"
       id="path2992"
       inkscape:connector-curvature="0" />
    <text
       xml:space="preserve"
       style="font-size:63.77760315px;font-style:normal;font-variant:normal;font-weight:normal;font-stretch:normal;line-height:125%;letter-spacing:0px;word-spacing:0px;fill:#000000;fill-opacity:1;stroke:none;font-family:DiagramTTHabsburg;-inkscape-font-specification:DiagramTTHabsburg"
       x="0.11119843"
       y="46.797497"
       id="text5299"
       sodipodi:linespacing="125%"><tspan
         sodipodi:role="line"
         id="tspan5301"
         x="0.11119843"
         y="46.797497">r</tspan></text>
  </g>
</svg>
