<?xml version="1.0" encoding="UTF-8" standalone="no"?>
<!-- Created with Inkscape (http://www.inkscape.org/) -->

<svg
   xmlns:dc="http://purl.org/dc/elements/1.1/"
   xmlns:cc="http://creativecommons.org/ns#"
   xmlns:rdf="http://www.w3.org/1999/02/22-rdf-syntax-ns#"
   xmlns:svg="http://www.w3.org/2000/svg"
   xmlns="http://www.w3.org/2000/svg"
   xmlns:sodipodi="http://sodipodi.sourceforge.net/DTD/sodipodi-0.dtd"
   xmlns:inkscape="http://www.inkscape.org/namespaces/inkscape"
   width="64px"
   height="64px"
   id="svg2985"
   version="1.1"
   inkscape:version="0.48.2 r9819"
   sodipodi:docname="wb.svg">
  <defs
     id="defs2987" />
  <sodipodi:namedview
     id="base"
     pagecolor="#1e7900"
     bordercolor="#666666"
     borderopacity="1.0"
     inkscape:pageopacity="0"
     inkscape:pageshadow="2"
     inkscape:zoom="10.765625"
     inkscape:cx="15.373004"
     inkscape:cy="32"
     inkscape:current-layer="layer1"
     showgrid="true"
     inkscape:document-units="px"
     inkscape:grid-bbox="true"
     inkscape:window-width="1408"
     inkscape:window-height="878"
     inkscape:window-x="24"
     inkscape:window-y="-8"
     inkscape:window-maximized="1" />
  <metadata
     id="metadata2990">
    <rdf:RDF>
      <cc:Work
         rdf:about="">
        <dc:format>image/svg+xml</dc:format>
        <dc:type
           rdf:resource="http://purl.org/dc/dcmitype/StillImage" />
        <dc:title />
      </cc:Work>
    </rdf:RDF>
  </metadata>
  <g
     id="layer1"
     inkscape:label="Layer 1"
     inkscape:groupmode="layer">
    <path
       sodipodi:type="inkscape:offset"
       inkscape:radius="1.5"
       inkscape:original="M 94.4375 0.53125 C 93.24631 0.53128903 92.234712 0.95214863 91.40625 1.78125 C 90.577731 2.6104269 90.156222 3.6226747 90.15625 4.8125 C 90.156222 6.2164918 90.72793 7.3573119 91.875 8.25 C 91.109412 8.887132 89.847913 9.8285515 88.0625 11.0625 C 85.384316 12.975128 83.370958 14.637806 82.03125 16.0625 C 80.691503 17.487241 79.999983 19.18928 80 21.1875 C 79.999983 23.355737 80.480533 25.418944 81.4375 27.375 C 82.39443 29.33108 83.716699 31.034848 85.375 32.4375 L 82.1875 41.40625 C 83.504501 41.831847 84.776489 42.202208 86.03125 42.5 C 87.285964 42.797786 88.528863 42.997836 89.71875 43.125 C 88.953164 43.847736 88.051754 44.429715 87.03125 44.8125 C 86.010697 45.195274 84.94795 45.374994 83.84375 45.375 C 82.992531 45.374994 81.70108 45.275294 80 45.0625 C 78.300182 44.849695 77.038684 44.718745 76.1875 44.71875 C 74.997626 44.718745 73.815499 44.870024 72.625 45.125 C 71.434481 45.379964 70.082042 45.759734 68.59375 46.3125 L 71.46875 53.09375 C 72.615782 52.583796 73.847759 52.182617 75.1875 51.90625 C 76.527215 51.629858 77.849485 51.499988 79.125 51.5 C 79.974883 51.499988 81.236382 51.600986 82.9375 51.8125 C 84.63728 52.025287 85.930028 52.124987 86.78125 52.125 C 88.353865 52.124987 89.826982 51.723808 91.1875 50.9375 C 92.54796 50.151169 93.62909 49.058901 94.4375 47.65625 C 95.245846 49.058901 96.326976 50.151169 97.6875 50.9375 C 99.047954 51.723808 100.52107 52.124987 102.09375 52.125 C 102.94491 52.124987 104.20641 52.025287 105.90625 51.8125 C 107.6073 51.600986 108.8688 51.499988 109.71875 51.5 C 110.9942 51.499988 112.32631 51.629858 113.6875 51.90625 C 115.04859 52.182617 116.27072 52.583796 117.375 53.09375 L 120.25 46.3125 C 117.86892 45.249794 115.33436 44.718745 112.65625 44.71875 C 111.805 44.718745 110.5435 44.849695 108.84375 45.0625 C 107.14261 45.275294 105.85116 45.374994 105 45.375 C 103.93726 45.374994 102.885 45.195274 101.84375 44.8125 C 100.80242 44.429715 99.921772 43.847736 99.15625 43.125 C 100.34607 42.997836 101.57805 42.787946 102.875 42.46875 C 104.17187 42.149548 105.42353 41.768049 106.65625 41.34375 L 103.46875 32.4375 C 105.12699 31.034848 106.44926 29.33108 107.40625 27.375 C 108.36315 25.418944 108.8437 23.355737 108.84375 21.1875 C 108.8437 19.18928 108.18343 17.477401 106.84375 16.03125 C 105.50398 14.585146 103.49062 12.932309 100.8125 11.0625 C 99.068545 9.8285515 97.775796 8.887132 96.96875 8.25 C 98.115756 7.3573119 98.687464 6.2164918 98.6875 4.8125 C 98.687464 3.6226747 98.297205 2.6104269 97.46875 1.78125 C 96.640225 0.95214863 95.628626 0.53128903 94.4375 0.53125 z M 94.4375 2.84375 C 94.990228 2.8437867 95.460937 3.0339958 95.84375 3.4375 C 96.226496 3.8410765 96.406216 4.3025947 96.40625 4.8125 C 96.406216 5.3652942 96.226496 5.8360039 95.84375 6.21875 C 95.460937 6.6015628 94.990228 6.7812828 94.4375 6.78125 C 93.884709 6.7812828 93.413999 6.6015628 93.03125 6.21875 C 92.64844 5.8360039 92.43747 5.3652942 92.4375 4.8125 C 92.43747 4.2597753 92.64844 3.7884168 93.03125 3.40625 C 93.413999 3.0241555 93.884709 2.8437867 94.4375 2.84375 z M 94.4375 9.09375 C 95.542987 10.072139 97.294876 11.393976 99.71875 13.09375 C 102.05691 14.752055 103.76944 16.154344 104.875 17.28125 C 105.98048 18.408201 106.53121 19.69922 106.53125 21.1875 C 106.53121 23.142937 106.09175 25.026425 105.15625 26.8125 C 104.22067 28.5986 102.92792 30.05074 101.3125 31.15625 C 99.228584 30.773479 96.945646 30.562509 94.4375 30.5625 C 91.970812 30.562509 89.656624 30.773479 87.53125 31.15625 C 85.915766 30.05074 84.654268 28.5986 83.71875 26.8125 C 82.78319 25.026425 82.31248 23.142937 82.3125 21.1875 C 82.31248 19.69922 82.86321 18.408201 83.96875 17.28125 C 85.074247 16.154344 86.786775 14.752055 89.125 13.09375 C 91.59163 11.393976 93.374769 10.072139 94.4375 9.09375 z M 94.4375 15.46875 C 93.671909 15.468774 93.281219 15.828214 93.28125 16.59375 L 93.28125 20.0625 L 89.84375 20.0625 C 89.078164 20.06252 88.687474 20.42196 88.6875 21.1875 C 88.687474 21.953077 89.078164 22.343767 89.84375 22.34375 L 93.28125 22.34375 L 93.28125 25.78125 C 93.281219 26.546823 93.671909 26.937513 94.4375 26.9375 C 95.203027 26.937513 95.562467 26.546823 95.5625 25.78125 L 95.5625 22.34375 L 99.03125 22.34375 C 99.796772 22.343767 100.15621 21.953077 100.15625 21.1875 C 100.15621 20.42196 99.796772 20.06252 99.03125 20.0625 L 95.5625 20.0625 L 95.5625 16.59375 C 95.562467 15.828214 95.203027 15.468774 94.4375 15.46875 z M 94.4375 32.875 C 96.775666 32.875007 99.099263 33.074407 101.4375 33.5 L 102.78125 37.28125 C 101.37725 36.984112 99.955283 36.732483 98.53125 36.5625 C 97.107145 36.392523 95.755786 36.312503 94.4375 36.3125 C 91.800832 36.312503 89.015934 36.644152 86.125 37.28125 L 87.40625 33.5 C 89.744423 33.074407 92.09927 32.875007 94.4375 32.875 z M 94.4375 38.625 C 97.584045 38.625001 100.66934 39.023802 103.6875 39.875 C 100.66934 40.7249 97.584045 41.156248 94.4375 41.15625 C 91.290892 41.156248 88.205596 40.7249 85.1875 39.875 C 88.205596 39.023802 91.290892 38.625001 94.4375 38.625 z M 92.5625 43.40625 L 93.28125 43.46875 C 93.2384 45.211366 92.58797 46.714004 91.3125 47.96875 C 90.036972 49.22348 88.523845 49.84374 86.78125 49.84375 C 86.101306 49.84374 84.808557 49.744039 82.9375 49.53125 C 81.066402 49.318441 79.804903 49.18749 79.125 49.1875 C 78.103806 49.18749 77.032516 49.26751 75.90625 49.4375 C 74.779957 49.60747 73.728348 49.859099 72.75 50.15625 L 71.65625 47.65625 C 72.974559 47.230643 74.487686 47.031243 76.1875 47.03125 C 76.783065 47.031243 78.044564 47.130943 80 47.34375 C 81.956699 47.556542 83.24815 47.656242 83.84375 47.65625 C 85.586348 47.656242 87.209016 47.306642 88.71875 46.5625 C 90.228432 45.818344 91.49977 44.767384 92.5625 43.40625 z M 96.28125 43.40625 C 97.343916 44.724564 98.615254 45.765684 100.125 46.53125 C 101.63467 47.296802 103.25734 47.656242 105 47.65625 C 105.59554 47.656242 106.88699 47.556542 108.84375 47.34375 C 110.79912 47.130943 112.06062 47.031243 112.65625 47.03125 C 114.356 47.031243 115.86913 47.230643 117.1875 47.65625 L 116.125 50.15625 C 115.14659 49.859099 114.09498 49.60747 112.96875 49.4375 C 111.84242 49.26751 110.73988 49.18749 109.71875 49.1875 C 109.03878 49.18749 107.77728 49.318441 105.90625 49.53125 C 104.03513 49.744039 102.77363 49.84374 102.09375 49.84375 C 100.35109 49.84374 98.837964 49.22348 97.5625 47.96875 C 96.286966 46.714004 95.605286 45.211366 95.5625 43.46875 L 96.28125 43.40625 z "
       style="font-size:63.77760315px;font-style:normal;font-variant:normal;font-weight:normal;font-stretch:normal;line-height:125%;letter-spacing:0px;word-spacing:0px;fill:#4d4d4d;fill-opacity:1;stroke:none;font-family:DiagramTTHabsburg;-inkscape-font-specification:DiagramTTHabsburg"
       id="path3028-9"
       d="m 94.4375,-0.96875 c -1.544472,5.061e-5 -3.013144,0.60606015 -4.09375,1.6875 -1.080162,1.0810196 -1.687536,2.5496434 -1.6875,4.09375 -2.3e-5,1.167434 0.455017,2.2098166 1.09375,3.15625 -0.712018,0.5449645 -1.323473,1.0402719 -2.53125,1.875 a 1.50015,1.50015 0 0 0 -0.03125,0 c -2.723427,1.944939 -4.795493,3.640725 -6.25,5.1875 -1.5717,1.671409 -2.43752,3.811955 -2.4375,6.15625 -1.9e-5,2.389876 0.540916,4.691741 1.59375,6.84375 0.885452,1.80997 2.119426,3.394126 3.5625,4.78125 l -2.875,8.09375 a 1.50015,1.50015 0 0 0 0.9375,1.9375 c 1.037421,0.335249 2.051983,0.611239 3.0625,0.875 -0.316758,0.03801 -0.605783,0.156248 -0.9375,0.15625 -0.734104,-5e-6 -1.990693,-0.10415 -3.65625,-0.3125 -1.715325,-0.214746 -2.994963,-0.343756 -4,-0.34375 -1.317017,-6e-6 -2.604473,0.165384 -3.875,0.4375 -1.2613,0.270123 -2.693881,0.672042 -4.25,1.25 a 1.50015,1.50015 0 0 0 -0.84375,2 l 2.875,6.78125 a 1.50015,1.50015 0 0 0 1.96875,0.78125 C 73.112059,54.002131 74.263362,53.630098 75.5,53.375 76.739499,53.119283 77.951312,52.999989 79.125,53 c 0.731025,-1e-5 1.955969,0.104976 3.625,0.3125 1.735491,0.217257 3.062925,0.312485 4.03125,0.3125 1.82771,-1.5e-5 3.580968,-0.46457 5.15625,-1.375 0.959417,-0.554532 1.772064,-1.303045 2.5,-2.125 0.72794,0.82197 1.540538,1.570467 2.5,2.125 1.575239,0.910448 3.32849,1.374985 5.15625,1.375 0.96827,-1.5e-5 2.2667,-0.09553 4,-0.3125 1.66896,-0.207524 2.8939,-0.31251 3.625,-0.3125 1.17362,-1.1e-5 2.39229,0.118351 3.65625,0.375 1.25527,0.254881 2.38131,0.634865 3.375,1.09375 a 1.50015,1.50015 0 0 0 2,-0.78125 l 2.875,-6.78125 a 1.50015,1.50015 0 0 0 -0.75,-1.96875 c -2.57302,-1.148369 -5.34235,-1.718755 -8.21875,-1.71875 -1.00509,-6e-6 -2.28474,0.129003 -4,0.34375 -1.66562,0.208351 -2.92221,0.312495 -3.65625,0.3125 -0.34096,-2e-6 -0.66454,-0.142937 -1,-0.1875 1.06357,-0.28526 2.14228,-0.588496 3.15625,-0.9375 a 1.50015,1.50015 0 0 0 0.90625,-1.90625 l -2.875,-8.03125 c 1.44303,-1.387116 2.677,-2.971301 3.5625,-4.78125 1.05275,-2.151991 1.59369,-4.453903 1.59375,-6.84375 -6e-5,-2.328628 -0.83249,-4.48867 -2.40625,-6.1875 -1.45377,-1.569152 -3.54274,-3.232235 -6.25,-5.125 -0.007,-0.00464 0.007,-0.026604 0,-0.03125 -0.009,-0.00659 -0.022,0.00657 -0.0312,0 C 100.48792,9.0168846 99.859437,8.4848419 99.125,7.9375 c 0.623428,-0.9385957 1.06247,-1.9724355 1.0625,-3.125 -5e-5,-1.5177965 -0.562845,-2.9993925 -1.65625,-4.09375 -1.080646,-1.08139786 -2.549323,-1.68744939 -4.09375,-1.6875 z m 0,5.3125 c 0.208657,1.39e-5 0.19025,-0.00386 0.3125,0.125 0.151165,0.1593917 0.156239,0.1862419 0.15625,0.34375 -1.4e-5,0.2277346 -0.01105,0.2297993 -0.125,0.34375 -0.114065,0.1140652 -0.116223,0.1250135 -0.34375,0.125 -0.227627,1.35e-5 -0.2298,-0.011031 -0.34375,-0.125 C 93.950921,5.0134453 93.937491,4.9836051 93.9375,4.8125 c -9e-6,-0.1709875 0.01486,-0.2026007 0.15625,-0.34375 0.114611,-0.1144153 0.11719,-0.124985 0.34375,-0.125 z m 0,6.625 c 1.150626,0.947631 2.411931,1.945207 4.40625,3.34375 2.29459,1.627406 3.96984,3.013057 4.96875,4.03125 0.87884,0.895911 1.21872,1.725491 1.21875,2.84375 -4e-5,1.730719 -0.39477,3.364342 -1.21875,4.9375 -0.7544,1.44022 -1.75483,2.569356 -3,3.5 -1.979572,-0.320801 -4.065561,-0.562492 -6.375,-0.5625 -2.263951,8e-6 -4.371211,0.24496 -6.375,0.5625 -1.242702,-0.927733 -2.236616,-2.04254 -3,-3.5 -0.830395,-1.585305 -1.250018,-3.222791 -1.25,-4.9375 -1.5e-5,-1.118224 0.339864,-1.947843 1.21875,-2.84375 0.991954,-1.011164 2.667278,-2.387311 4.9375,-4 0.0157,-0.01116 0.01549,-0.02007 0.03125,-0.03125 1.998066,-1.377739 3.293865,-2.389567 4.4375,-3.34375 z m 0,3 c -0.617534,1.9e-5 -1.348596,0.152376 -1.90625,0.6875 -0.557654,0.535124 -0.750026,1.299548 -0.75,1.9375 l 0,1.96875 -1.9375,0 c -0.617535,1.6e-5 -1.348596,0.152377 -1.90625,0.6875 -0.557654,0.535123 -0.750022,1.299549 -0.75,1.9375 -2.2e-5,0.637958 0.175425,1.394175 0.71875,1.9375 0.543325,0.543325 1.299544,0.718764 1.9375,0.71875 l 1.9375,0 0,1.9375 c -2.6e-5,0.637959 0.175425,1.394175 0.71875,1.9375 0.543325,0.543325 1.299544,0.718761 1.9375,0.71875 0.637945,1.1e-5 1.402389,-0.192358 1.9375,-0.75 0.535111,-0.557642 0.687473,-1.288722 0.6875,-1.90625 l 0,-1.9375 1.96875,0 c 0.637945,1.4e-5 1.40239,-0.192359 1.9375,-0.75 0.53511,-0.557641 0.68747,-1.288725 0.6875,-1.90625 -3e-5,-0.617519 -0.16855,-1.356051 -0.71875,-1.90625 -0.5502,-0.550199 -1.288727,-0.718734 -1.90625,-0.71875 l -1.96875,0 0,-1.96875 c -2.7e-5,-0.617521 -0.168551,-1.356051 -0.71875,-1.90625 -0.550199,-0.550199 -1.288727,-0.718731 -1.90625,-0.71875 z m 0,20.40625 c 1.98072,6e-6 3.933426,0.217473 5.90625,0.53125 l 0.1875,0.46875 c -0.607321,-0.09901 -1.199119,-0.239282 -1.8125,-0.3125 -1.479977,-0.176646 -2.902266,-0.249997 -4.28125,-0.25 -1.971931,2e-6 -4.067022,0.378595 -6.15625,0.71875 L 88.5,34.90625 c 1.978702,-0.313975 3.955473,-0.531244 5.9375,-0.53125 z"
       transform="matrix(0.99999296,0,0,1,-60.422669,7.183223)" />
    <path
       sodipodi:type="inkscape:offset"
       inkscape:radius="1.5"
       inkscape:original="M 94.4375 0.53125 C 93.24631 0.53128903 92.234712 0.95214863 91.40625 1.78125 C 90.577731 2.6104269 90.156222 3.6226747 90.15625 4.8125 C 90.156222 6.2164918 90.72793 7.3573119 91.875 8.25 C 91.109412 8.887132 89.847913 9.8285515 88.0625 11.0625 C 85.384316 12.975128 83.370958 14.637806 82.03125 16.0625 C 80.691503 17.487241 79.999983 19.18928 80 21.1875 C 79.999983 23.355737 80.480533 25.418944 81.4375 27.375 C 82.39443 29.33108 83.716699 31.034848 85.375 32.4375 L 82.1875 41.40625 C 83.504501 41.831847 84.776489 42.202208 86.03125 42.5 C 87.285964 42.797786 88.528863 42.997836 89.71875 43.125 C 88.953164 43.847736 88.051754 44.429715 87.03125 44.8125 C 86.010697 45.195274 84.94795 45.374994 83.84375 45.375 C 82.992531 45.374994 81.70108 45.275294 80 45.0625 C 78.300182 44.849695 77.038684 44.718745 76.1875 44.71875 C 74.997626 44.718745 73.815499 44.870024 72.625 45.125 C 71.434481 45.379964 70.082042 45.759734 68.59375 46.3125 L 71.46875 53.09375 C 72.615782 52.583796 73.847759 52.182617 75.1875 51.90625 C 76.527215 51.629858 77.849485 51.499988 79.125 51.5 C 79.974883 51.499988 81.236382 51.600986 82.9375 51.8125 C 84.63728 52.025287 85.930028 52.124987 86.78125 52.125 C 88.353865 52.124987 89.826982 51.723808 91.1875 50.9375 C 92.54796 50.151169 93.62909 49.058901 94.4375 47.65625 C 95.245846 49.058901 96.326976 50.151169 97.6875 50.9375 C 99.047954 51.723808 100.52107 52.124987 102.09375 52.125 C 102.94491 52.124987 104.20641 52.025287 105.90625 51.8125 C 107.6073 51.600986 108.8688 51.499988 109.71875 51.5 C 110.9942 51.499988 112.32631 51.629858 113.6875 51.90625 C 115.04859 52.182617 116.27072 52.583796 117.375 53.09375 L 120.25 46.3125 C 117.86892 45.249794 115.33436 44.718745 112.65625 44.71875 C 111.805 44.718745 110.5435 44.849695 108.84375 45.0625 C 107.14261 45.275294 105.85116 45.374994 105 45.375 C 103.93726 45.374994 102.885 45.195274 101.84375 44.8125 C 100.80242 44.429715 99.921772 43.847736 99.15625 43.125 C 100.34607 42.997836 101.57805 42.787946 102.875 42.46875 C 104.17187 42.149548 105.42353 41.768049 106.65625 41.34375 L 103.46875 32.4375 C 105.12699 31.034848 106.44926 29.33108 107.40625 27.375 C 108.36315 25.418944 108.8437 23.355737 108.84375 21.1875 C 108.8437 19.18928 108.18343 17.477401 106.84375 16.03125 C 105.50398 14.585146 103.49062 12.932309 100.8125 11.0625 C 99.068545 9.8285515 97.775796 8.887132 96.96875 8.25 C 98.115756 7.3573119 98.687464 6.2164918 98.6875 4.8125 C 98.687464 3.6226747 98.297205 2.6104269 97.46875 1.78125 C 96.640225 0.95214863 95.628626 0.53128903 94.4375 0.53125 z M 94.4375 2.84375 C 94.990228 2.8437867 95.460937 3.0339958 95.84375 3.4375 C 96.226496 3.8410765 96.406216 4.3025947 96.40625 4.8125 C 96.406216 5.3652942 96.226496 5.8360039 95.84375 6.21875 C 95.460937 6.6015628 94.990228 6.7812828 94.4375 6.78125 C 93.884709 6.7812828 93.413999 6.6015628 93.03125 6.21875 C 92.64844 5.8360039 92.43747 5.3652942 92.4375 4.8125 C 92.43747 4.2597753 92.64844 3.7884168 93.03125 3.40625 C 93.413999 3.0241555 93.884709 2.8437867 94.4375 2.84375 z M 94.4375 9.09375 C 95.542987 10.072139 97.294876 11.393976 99.71875 13.09375 C 102.05691 14.752055 103.76944 16.154344 104.875 17.28125 C 105.98048 18.408201 106.53121 19.69922 106.53125 21.1875 C 106.53121 23.142937 106.09175 25.026425 105.15625 26.8125 C 104.22067 28.5986 102.92792 30.05074 101.3125 31.15625 C 99.228584 30.773479 96.945646 30.562509 94.4375 30.5625 C 91.970812 30.562509 89.656624 30.773479 87.53125 31.15625 C 85.915766 30.05074 84.654268 28.5986 83.71875 26.8125 C 82.78319 25.026425 82.31248 23.142937 82.3125 21.1875 C 82.31248 19.69922 82.86321 18.408201 83.96875 17.28125 C 85.074247 16.154344 86.786775 14.752055 89.125 13.09375 C 91.59163 11.393976 93.374769 10.072139 94.4375 9.09375 z M 94.4375 15.46875 C 93.671909 15.468774 93.281219 15.828214 93.28125 16.59375 L 93.28125 20.0625 L 89.84375 20.0625 C 89.078164 20.06252 88.687474 20.42196 88.6875 21.1875 C 88.687474 21.953077 89.078164 22.343767 89.84375 22.34375 L 93.28125 22.34375 L 93.28125 25.78125 C 93.281219 26.546823 93.671909 26.937513 94.4375 26.9375 C 95.203027 26.937513 95.562467 26.546823 95.5625 25.78125 L 95.5625 22.34375 L 99.03125 22.34375 C 99.796772 22.343767 100.15621 21.953077 100.15625 21.1875 C 100.15621 20.42196 99.796772 20.06252 99.03125 20.0625 L 95.5625 20.0625 L 95.5625 16.59375 C 95.562467 15.828214 95.203027 15.468774 94.4375 15.46875 z M 94.4375 32.875 C 96.775666 32.875007 99.099263 33.074407 101.4375 33.5 L 102.78125 37.28125 C 101.37725 36.984112 99.955283 36.732483 98.53125 36.5625 C 97.107145 36.392523 95.755786 36.312503 94.4375 36.3125 C 91.800832 36.312503 89.015934 36.644152 86.125 37.28125 L 87.40625 33.5 C 89.744423 33.074407 92.09927 32.875007 94.4375 32.875 z M 94.4375 38.625 C 97.584045 38.625001 100.66934 39.023802 103.6875 39.875 C 100.66934 40.7249 97.584045 41.156248 94.4375 41.15625 C 91.290892 41.156248 88.205596 40.7249 85.1875 39.875 C 88.205596 39.023802 91.290892 38.625001 94.4375 38.625 z M 92.5625 43.40625 L 93.28125 43.46875 C 93.2384 45.211366 92.58797 46.714004 91.3125 47.96875 C 90.036972 49.22348 88.523845 49.84374 86.78125 49.84375 C 86.101306 49.84374 84.808557 49.744039 82.9375 49.53125 C 81.066402 49.318441 79.804903 49.18749 79.125 49.1875 C 78.103806 49.18749 77.032516 49.26751 75.90625 49.4375 C 74.779957 49.60747 73.728348 49.859099 72.75 50.15625 L 71.65625 47.65625 C 72.974559 47.230643 74.487686 47.031243 76.1875 47.03125 C 76.783065 47.031243 78.044564 47.130943 80 47.34375 C 81.956699 47.556542 83.24815 47.656242 83.84375 47.65625 C 85.586348 47.656242 87.209016 47.306642 88.71875 46.5625 C 90.228432 45.818344 91.49977 44.767384 92.5625 43.40625 z M 96.28125 43.40625 C 97.343916 44.724564 98.615254 45.765684 100.125 46.53125 C 101.63467 47.296802 103.25734 47.656242 105 47.65625 C 105.59554 47.656242 106.88699 47.556542 108.84375 47.34375 C 110.79912 47.130943 112.06062 47.031243 112.65625 47.03125 C 114.356 47.031243 115.86913 47.230643 117.1875 47.65625 L 116.125 50.15625 C 115.14659 49.859099 114.09498 49.60747 112.96875 49.4375 C 111.84242 49.26751 110.73988 49.18749 109.71875 49.1875 C 109.03878 49.18749 107.77728 49.318441 105.90625 49.53125 C 104.03513 49.744039 102.77363 49.84374 102.09375 49.84375 C 100.35109 49.84374 98.837964 49.22348 97.5625 47.96875 C 96.286966 46.714004 95.605286 45.211366 95.5625 43.46875 L 96.28125 43.40625 z "
       style="font-size:63.77760315px;font-style:normal;font-variant:normal;font-weight:normal;font-stretch:normal;line-height:125%;letter-spacing:0px;word-spacing:0px;fill:#ffffff;fill-opacity:1;stroke:none;font-family:DiagramTTHabsburg;-inkscape-font-specification:DiagramTTHabsburg"
       id="path3028"
       d="m 94.4375,-0.96875 c -1.544472,5.061e-5 -3.013144,0.60606015 -4.09375,1.6875 -1.080162,1.0810196 -1.687536,2.5496434 -1.6875,4.09375 -2.3e-5,1.167434 0.455017,2.2098166 1.09375,3.15625 -0.712018,0.5449645 -1.323473,1.0402719 -2.53125,1.875 a 1.50015,1.50015 0 0 0 -0.03125,0 c -2.723427,1.944939 -4.795493,3.640725 -6.25,5.1875 -1.5717,1.671409 -2.43752,3.811955 -2.4375,6.15625 -1.9e-5,2.389876 0.540916,4.691741 1.59375,6.84375 0.885452,1.80997 2.119426,3.394126 3.5625,4.78125 l -2.875,8.09375 a 1.50015,1.50015 0 0 0 0.9375,1.9375 c 1.037421,0.335249 2.051983,0.611239 3.0625,0.875 -0.316758,0.03801 -0.605783,0.156248 -0.9375,0.15625 -0.734104,-5e-6 -1.990693,-0.10415 -3.65625,-0.3125 -1.715325,-0.214746 -2.994963,-0.343756 -4,-0.34375 -1.317017,-6e-6 -2.604473,0.165384 -3.875,0.4375 -1.2613,0.270123 -2.693881,0.672042 -4.25,1.25 a 1.50015,1.50015 0 0 0 -0.84375,2 l 2.875,6.78125 a 1.50015,1.50015 0 0 0 1.96875,0.78125 C 73.112059,54.002131 74.263362,53.630098 75.5,53.375 76.739499,53.119283 77.951312,52.999989 79.125,53 c 0.731025,-1e-5 1.955969,0.104976 3.625,0.3125 1.735491,0.217257 3.062925,0.312485 4.03125,0.3125 1.82771,-1.5e-5 3.580968,-0.46457 5.15625,-1.375 0.959417,-0.554532 1.772064,-1.303045 2.5,-2.125 0.72794,0.82197 1.540538,1.570467 2.5,2.125 1.575239,0.910448 3.32849,1.374985 5.15625,1.375 0.96827,-1.5e-5 2.2667,-0.09553 4,-0.3125 1.66896,-0.207524 2.8939,-0.31251 3.625,-0.3125 1.17362,-1.1e-5 2.39229,0.118351 3.65625,0.375 1.25527,0.254881 2.38131,0.634865 3.375,1.09375 a 1.50015,1.50015 0 0 0 2,-0.78125 l 2.875,-6.78125 a 1.50015,1.50015 0 0 0 -0.75,-1.96875 c -2.57302,-1.148369 -5.34235,-1.718755 -8.21875,-1.71875 -1.00509,-6e-6 -2.28474,0.129003 -4,0.34375 -1.66562,0.208351 -2.92221,0.312495 -3.65625,0.3125 -0.34096,-2e-6 -0.66454,-0.142937 -1,-0.1875 1.06357,-0.28526 2.14228,-0.588496 3.15625,-0.9375 a 1.50015,1.50015 0 0 0 0.90625,-1.90625 l -2.875,-8.03125 c 1.44303,-1.387116 2.677,-2.971301 3.5625,-4.78125 1.05275,-2.151991 1.59369,-4.453903 1.59375,-6.84375 -6e-5,-2.328628 -0.83249,-4.48867 -2.40625,-6.1875 -1.45377,-1.569152 -3.54274,-3.232235 -6.25,-5.125 -0.007,-0.00464 0.007,-0.026604 0,-0.03125 -0.009,-0.00659 -0.022,0.00657 -0.0312,0 C 100.48792,9.0168846 99.859437,8.4848419 99.125,7.9375 c 0.623428,-0.9385957 1.06247,-1.9724355 1.0625,-3.125 -5e-5,-1.5177965 -0.562845,-2.9993925 -1.65625,-4.09375 -1.080646,-1.08139786 -2.549323,-1.68744939 -4.09375,-1.6875 z m 0,5.3125 c 0.208657,1.39e-5 0.19025,-0.00386 0.3125,0.125 0.151165,0.1593917 0.156239,0.1862419 0.15625,0.34375 -1.4e-5,0.2277346 -0.01105,0.2297993 -0.125,0.34375 -0.114065,0.1140652 -0.116223,0.1250135 -0.34375,0.125 -0.227627,1.35e-5 -0.2298,-0.011031 -0.34375,-0.125 C 93.950921,5.0134453 93.937491,4.9836051 93.9375,4.8125 c -9e-6,-0.1709875 0.01486,-0.2026007 0.15625,-0.34375 0.114611,-0.1144153 0.11719,-0.124985 0.34375,-0.125 z m 0,6.625 c 1.150626,0.947631 2.411931,1.945207 4.40625,3.34375 2.29459,1.627406 3.96984,3.013057 4.96875,4.03125 0.87884,0.895911 1.21872,1.725491 1.21875,2.84375 -4e-5,1.730719 -0.39477,3.364342 -1.21875,4.9375 -0.7544,1.44022 -1.75483,2.569356 -3,3.5 -1.979572,-0.320801 -4.065561,-0.562492 -6.375,-0.5625 -2.263951,8e-6 -4.371211,0.24496 -6.375,0.5625 -1.242702,-0.927733 -2.236616,-2.04254 -3,-3.5 -0.830395,-1.585305 -1.250018,-3.222791 -1.25,-4.9375 -1.5e-5,-1.118224 0.339864,-1.947843 1.21875,-2.84375 0.991954,-1.011164 2.667278,-2.387311 4.9375,-4 0.0157,-0.01116 0.01549,-0.02007 0.03125,-0.03125 1.998066,-1.377739 3.293865,-2.389567 4.4375,-3.34375 z m 0,3 c -0.617534,1.9e-5 -1.348596,0.152376 -1.90625,0.6875 -0.557654,0.535124 -0.750026,1.299548 -0.75,1.9375 l 0,1.96875 -1.9375,0 c -0.617535,1.6e-5 -1.348596,0.152377 -1.90625,0.6875 -0.557654,0.535123 -0.750022,1.299549 -0.75,1.9375 -2.2e-5,0.637958 0.175425,1.394175 0.71875,1.9375 0.543325,0.543325 1.299544,0.718764 1.9375,0.71875 l 1.9375,0 0,1.9375 c -2.6e-5,0.637959 0.175425,1.394175 0.71875,1.9375 0.543325,0.543325 1.299544,0.718761 1.9375,0.71875 0.637945,1.1e-5 1.402389,-0.192358 1.9375,-0.75 0.535111,-0.557642 0.687473,-1.288722 0.6875,-1.90625 l 0,-1.9375 1.96875,0 c 0.637945,1.4e-5 1.40239,-0.192359 1.9375,-0.75 0.53511,-0.557641 0.68747,-1.288725 0.6875,-1.90625 -3e-5,-0.617519 -0.16855,-1.356051 -0.71875,-1.90625 -0.5502,-0.550199 -1.288727,-0.718734 -1.90625,-0.71875 l -1.96875,0 0,-1.96875 c -2.7e-5,-0.617521 -0.168551,-1.356051 -0.71875,-1.90625 -0.550199,-0.550199 -1.288727,-0.718731 -1.90625,-0.71875 z m 0,20.40625 c 1.98072,6e-6 3.933426,0.217473 5.90625,0.53125 l 0.1875,0.46875 c -0.607321,-0.09901 -1.199119,-0.239282 -1.8125,-0.3125 -1.479977,-0.176646 -2.902266,-0.249997 -4.28125,-0.25 -1.971931,2e-6 -4.067022,0.378595 -6.15625,0.71875 L 88.5,34.90625 c 1.978702,-0.313975 3.955473,-0.531244 5.9375,-0.53125 z"
       transform="matrix(0.99999296,0,0,1,-62.422669,5.1746959)" />
    <path
       style="fill:#ffffff;fill-opacity:1;fill-rule:nonzero;stroke:none"
       d="m 30.553299,48.230718 c -1.416291,0.54851 -2.21689,2.021736 -3.569399,2.703532 -2.292613,1.466464 -5.063573,1.725482 -7.718698,1.421342 -3.33171,-0.238397 -6.832534,-0.939811 -10.0776308,0.176827 -0.7107147,0.570013 0.2796742,1.433767 0.4099051,2.114005 0.099958,0.663687 0.6981917,1.295931 1.3770967,0.911924 3.632958,-0.977009 7.444955,-0.753381 11.145242,-0.291935 2.112592,0.251787 4.488511,0.252153 6.19052,-1.209516 1.709043,-1.244441 2.925769,-3.274773 2.901576,-5.420879 -0.08265,-0.277363 -0.372559,-0.456351 -0.658612,-0.4053 z"
       id="path2984"
       inkscape:connector-curvature="0" />
    <path
       style="fill:#ffffff;fill-opacity:1;fill-rule:nonzero;stroke:none"
       d="m 33.298281,48.230718 c -0.923455,0.253072 -0.381346,1.413425 -0.280946,2.058737 0.835494,3.105579 3.986975,5.428996 7.226304,5.089272 3.633848,-0.193984 7.309916,-0.95619 10.924663,-0.207256 0.888006,0.04921 1.737206,0.569132 2.616023,0.432933 0.665618,-0.723129 1.002688,-1.752753 1.211292,-2.698926 -0.224537,-0.844005 -1.429679,-0.578591 -2.086371,-0.805993 -3.906658,-0.639407 -7.826661,0.640578 -11.726049,0.313187 -2.669716,-0.315426 -4.982029,-1.827855 -6.830216,-3.693752 -0.311306,-0.220848 -0.638192,-0.551928 -1.0547,-0.488202 z"
       id="path2986"
       inkscape:connector-curvature="0" />
    <path
       style="fill:#ffffff;fill-opacity:1;fill-rule:nonzero;stroke:none"
       d="m 31.396137,43.528324 c -2.799248,0.01792 -5.638425,0.318338 -8.308638,1.165235 -0.656651,0.420515 0.0605,1.05592 0.5991,1.029936 3.380019,0.887059 6.88333,1.108263 10.366895,0.940009 2.32249,-0.120043 4.677537,-0.482162 6.890208,-1.154739 0.630483,-0.533229 -0.288153,-1.059543 -0.801899,-1.066167 -2.861397,-0.70605 -5.799912,-0.990198 -8.745666,-0.914274 z"
       id="path2988"
       inkscape:connector-curvature="0" />
    <path
       style="fill:#ffffff;fill-opacity:1;fill-rule:nonzero;stroke:none"
       d="m 30.318409,37.849526 c -1.841169,0.08449 -3.774979,0.0026 -5.512993,0.686246 -0.647207,1.129901 -1.012719,2.449126 -1.312618,3.71678 0.256414,0.840672 1.35892,0.256706 1.985046,0.271735 4.328734,-0.829026 8.828273,-0.744775 13.144598,0.01382 0.601524,0.0091 1.175657,0.349934 1.745551,0.290158 0.624052,-0.628167 -0.194952,-1.541571 -0.286911,-2.246446 C 39.704907,39.880802 39.734004,38.849552 39.055375,38.374577 36.207359,37.73106 33.22712,37.851505 30.318409,37.84953 z"
       id="path2990"
       inkscape:connector-curvature="0" />
    <path
       style="fill:#ffffff;fill-opacity:1;fill-rule:nonzero;stroke:none"
       d="m 31.847494,14.056608 c -2.112762,1.561191 -4.195241,3.166944 -6.351227,4.693183 -2.080111,1.663136 -4.568174,3.195376 -5.646558,5.743277 -0.757569,2.335507 -0.108949,4.897752 0.815697,7.089022 0.948579,2.020073 2.455834,3.826429 4.27818,5.097595 2.079933,-0.170916 4.197499,-0.509127 6.318987,-0.455962 2.543867,-0.04321 5.090587,0.09083 7.60397,0.497413 1.825832,-0.951024 3.148381,-2.743527 4.13919,-4.529293 1.137183,-2.293915 1.946952,-5.039933 1.189576,-7.574422 -1.04591,-2.633097 -3.619251,-4.196412 -5.733864,-5.897066 -2.142878,-1.498784 -4.192399,-3.167674 -6.323794,-4.668353 -0.09211,0.02991 -0.198919,-0.0307 -0.290157,0.0046 z m 0.124353,7.023654 c 0.530346,-0.09808 0.870844,0.400787 0.75533,0.902713 0.101792,1.175895 -0.15388,2.413758 0.142777,3.54637 1.345769,0.370042 2.874227,-0.144689 4.214192,0.27634 0.456812,0.409821 0.253461,1.481469 -0.511229,1.321829 -1.230666,0.120462 -2.524381,-0.14912 -3.712175,0.151987 -0.359928,1.354568 0.122339,2.874622 -0.257917,4.232616 -0.429768,0.421718 -1.500958,0.240981 -1.340252,-0.529653 -0.120463,-1.230666 0.14912,-2.52438 -0.151988,-3.712174 -1.354567,-0.359928 -2.874621,0.12234 -4.232615,-0.257918 -0.522225,-0.512541 -0.05748,-1.56991 0.736908,-1.349463 1.161544,-0.104163 2.386912,0.157488 3.504919,-0.142775 0.351103,-1.326615 -0.10337,-2.810105 0.239495,-4.145108 0.152508,-0.188018 0.378659,-0.272964 0.612555,-0.294764 z"
       id="path2992"
       inkscape:connector-curvature="0" />
    <path
       style="fill:#ffffff;fill-opacity:1;fill-rule:nonzero;stroke:none"
       d="m 31.86131,7.7007758 c -1.891746,0.021903 -2.913367,2.5987862 -1.584352,3.9378522 1.175331,1.310735 3.661153,0.708759 3.988515,-1.063911 C 34.646326,9.1224635 33.35446,7.5868032 31.86131,7.7007758 z"
       id="path2994"
       inkscape:connector-curvature="0" />
    <text
       xml:space="preserve"
       style="font-size:63.77760315px;font-style:normal;font-variant:normal;font-weight:normal;font-stretch:normal;line-height:125%;letter-spacing:0px;word-spacing:0px;fill:#000000;fill-opacity:1;stroke:none;font-family:DiagramTTHabsburg;-inkscape-font-specification:DiagramTTHabsburg"
       x="0.11119843"
       y="44.755325"
       id="text5369"
       sodipodi:linespacing="125%"><tspan
         sodipodi:role="line"
         id="tspan5371"
         x="0.11119843"
         y="44.755325">L</tspan></text>
  </g>
</svg>
