<?xml version="1.0" encoding="UTF-8" standalone="no"?>
<!-- Created with Inkscape (http://www.inkscape.org/) -->

<svg
   xmlns:dc="http://purl.org/dc/elements/1.1/"
   xmlns:cc="http://creativecommons.org/ns#"
   xmlns:rdf="http://www.w3.org/1999/02/22-rdf-syntax-ns#"
   xmlns:svg="http://www.w3.org/2000/svg"
   xmlns="http://www.w3.org/2000/svg"
   xmlns:sodipodi="http://sodipodi.sourceforge.net/DTD/sodipodi-0.dtd"
   xmlns:inkscape="http://www.inkscape.org/namespaces/inkscape"
   width="64px"
   height="64px"
   id="svg2985"
   version="1.1"
   inkscape:version="0.48.2 r9819"
   sodipodi:docname="wp.svg">
  <defs
     id="defs2987" />
  <sodipodi:namedview
     id="base"
     pagecolor="#22bdff"
     bordercolor="#666666"
     borderopacity="1.0"
     inkscape:pageopacity="0"
     inkscape:pageshadow="2"
     inkscape:zoom="9.6594116"
     inkscape:cx="16.197984"
     inkscape:cy="31.789775"
     inkscape:current-layer="layer1"
     showgrid="true"
     inkscape:document-units="px"
     inkscape:grid-bbox="true"
     inkscape:window-width="1408"
     inkscape:window-height="878"
     inkscape:window-x="24"
     inkscape:window-y="-8"
     inkscape:window-maximized="1" />
  <metadata
     id="metadata2990">
    <rdf:RDF>
      <cc:Work
         rdf:about="">
        <dc:format>image/svg+xml</dc:format>
        <dc:type
           rdf:resource="http://purl.org/dc/dcmitype/StillImage" />
        <dc:title />
      </cc:Work>
    </rdf:RDF>
  </metadata>
  <g
     id="layer1"
     inkscape:label="Layer 1"
     inkscape:groupmode="layer">
    <path
       sodipodi:type="inkscape:offset"
       inkscape:radius="1.5"
       inkscape:original="M 50.03125 27.59375 C 48.33012 27.593786 46.909231 28.184526 45.71875 29.375 C 44.528214 30.565544 43.906224 32.01898 43.90625 33.71875 C 43.906224 35.505517 44.568223 36.997666 45.84375 38.1875 C 43.718323 38.867446 41.974546 39.968905 40.65625 41.5 C 39.337909 43.03114 38.687479 44.703009 38.6875 46.53125 C 38.687479 47.891108 39.078169 49.204185 39.84375 50.4375 C 40.609287 51.670842 41.630726 52.732291 42.90625 53.625 C 39.546849 55.02767 36.863381 57.270598 34.84375 60.375 C 32.824085 63.47941 31.812486 66.823796 31.8125 70.4375 C 31.812486 72.095772 31.992206 73.62858 32.375 75.03125 L 67.71875 75.03125 C 68.10148 73.62858 68.2812 72.095772 68.28125 70.4375 C 68.2812 66.780977 67.269601 63.416261 65.25 60.3125 C 63.230305 57.208747 60.546837 54.986148 57.1875 53.625 C 58.46296 52.732291 59.484399 51.660353 60.25 50.40625 C 61.015517 49.152174 61.406207 47.849586 61.40625 46.53125 C 61.406207 44.703009 60.724527 43.03114 59.40625 41.5 C 58.08789 39.968905 56.375363 38.867446 54.25 38.1875 C 55.525463 36.997666 56.156212 35.505517 56.15625 33.71875 C 56.156212 32.01898 55.565473 30.565544 54.375 29.375 C 53.184455 28.184526 51.732316 27.593786 50.03125 27.59375 z M 50.03125 29.875 C 51.051098 29.875034 51.953157 30.255884 52.71875 31 C 53.484274 31.744182 53.874964 32.656081 53.875 33.71875 C 53.874964 34.867119 53.464594 35.808538 52.65625 36.53125 C 52.189095 36.999696 51.968716 37.550425 51.96875 38.1875 C 51.968716 39.293045 52.499765 40.003814 53.5625 40.34375 C 55.220743 40.855011 56.532091 41.686241 57.53125 42.8125 C 58.53033 43.938801 59.031209 45.17013 59.03125 46.53125 C 59.031209 48.613847 57.988792 50.306694 55.90625 51.625 C 55.224995 52.093431 54.874963 52.75543 54.875 53.5625 C 54.874963 54.540869 55.325992 55.23066 56.21875 55.65625 C 59.195309 56.888938 61.579027 58.872775 63.34375 61.59375 C 65.108383 64.31473 65.999952 67.248098 66 70.4375 C 65.999952 71.330213 65.908363 72.112891 65.78125 72.75 L 34.28125 72.75 C 34.154073 72.112891 34.093734 71.330213 34.09375 70.4375 C 34.093734 67.248098 34.985303 64.324571 36.75 61.625 C 38.514659 58.925434 40.867128 56.931757 43.84375 55.65625 C 44.736444 55.23066 45.187473 54.540869 45.1875 53.5625 C 45.187473 52.75543 44.868692 52.093431 44.1875 51.625 C 42.062075 50.306694 40.999977 48.613847 41 46.53125 C 40.999977 45.17013 41.510697 43.938801 42.53125 42.8125 C 43.551755 41.686241 44.872943 40.855011 46.53125 40.34375 C 47.593921 40.003814 48.12497 39.293045 48.125 38.1875 C 48.12497 37.550425 47.904591 36.999696 47.4375 36.53125 C 46.629092 35.808538 46.218722 34.867119 46.21875 33.71875 C 46.218722 32.656081 46.599572 31.744182 47.34375 31 C 48.08787 30.255884 48.968519 29.875034 50.03125 29.875 z "
       style="font-size:63.77760315px;font-style:normal;font-variant:normal;font-weight:normal;font-stretch:normal;line-height:125%;letter-spacing:0px;word-spacing:0px;fill:#4d4d4d;fill-opacity:1;stroke:none;font-family:DiagramTTHabsburg;-inkscape-font-specification:DiagramTTHabsburg"
       id="path3027-4"
       d="m 50.03125,26.09375 c -2.048376,4.3e-5 -3.937979,0.781737 -5.375,2.21875 -1.437447,1.437456 -2.250032,3.340541 -2.25,5.40625 -2.1e-5,1.41691 0.492306,2.686014 1.1875,3.84375 -1.56168,0.745554 -2.963303,1.692121 -4.0625,2.96875 -1.511444,1.755413 -2.343775,3.81598 -2.34375,6 -2.5e-5,1.647175 0.478413,3.24314 1.375,4.6875 0.503488,0.81116 1.122227,1.542169 1.8125,2.21875 -2.680974,1.512863 -5.043651,3.454114 -6.78125,6.125 -2.163353,3.325272 -3.281265,6.981358 -3.28125,10.875 -1.5e-5,1.766658 0.200528,3.444609 0.625,5 a 1.50015,1.50015 0 0 0 1.4375,1.09375 l 35.34375,0 a 1.50015,1.50015 0 0 0 1.4375,-1.09375 c 0.424391,-1.555352 0.624947,-3.233378 0.625,-5 C 69.781196,66.504334 68.665003,62.827217 66.5,59.5 c -1.739563,-2.673262 -4.094018,-4.606511 -6.78125,-6.09375 0.685588,-0.680007 1.312942,-1.400442 1.8125,-2.21875 0.887933,-1.454618 1.374947,-3.041595 1.375,-4.65625 -5.2e-5,-2.201081 -0.871282,-4.253476 -2.375,-6 -1.095114,-1.271825 -2.505097,-2.18946 -4.0625,-2.9375 0.706078,-1.173552 1.18747,-2.448493 1.1875,-3.875 -4.6e-5,-2.047291 -0.772102,-3.959515 -2.21875,-5.40625 -1.44635,-1.446264 -3.357926,-2.218707 -5.40625,-2.21875 z m 0,5.28125 c 0.646439,2.2e-5 1.129508,0.175534 1.65625,0.6875 0.509283,0.495084 0.687476,0.961202 0.6875,1.65625 -2.5e-5,0.791044 -0.204873,1.22806 -0.71875,1.6875 a 1.50015,1.50015 0 0 0 -0.0625,0.0625 c -0.715678,0.717656 -1.125052,1.735706 -1.125,2.71875 -2.4e-5,0.792958 0.203372,1.59676 0.6875,2.25 0.484128,0.65324 1.186243,1.103446 1.9375,1.34375 a 1.50015,1.50015 0 0 0 0.03125,0 c 1.433573,0.441992 2.471331,1.118304 3.28125,2.03125 0.804089,0.90648 1.12497,1.725593 1.125,2.71875 -3.1e-5,1.582076 -0.65416,2.683597 -2.4375,3.8125 A 1.50015,1.50015 0 0 0 55.0625,50.375 c -1.027263,0.706346 -1.687557,1.946685 -1.6875,3.1875 -5.4e-5,1.439397 0.903581,2.825438 2.1875,3.4375 a 1.50015,1.50015 0 0 0 0.09375,0.03125 c 2.71249,1.123329 4.82721,2.892141 6.4375,5.375 1.622345,2.501579 2.406206,5.121375 2.40625,8.03125 -1.7e-5,0.315621 -0.03996,0.532419 -0.0625,0.8125 l -28.78125,0 c -0.01778,-0.284632 -0.06251,-0.482457 -0.0625,-0.8125 -1.5e-5,-2.909856 0.78633,-5.521903 2.40625,-8 1.615663,-2.471633 3.718018,-4.24093 6.4375,-5.40625 A 1.50015,1.50015 0 0 0 44.5,57 c 1.283855,-0.612075 2.18746,-1.99815 2.1875,-3.4375 -4e-5,-1.202028 -0.611418,-2.469007 -1.65625,-3.1875 a 1.50015,1.50015 0 0 0 -0.0625,-0.03125 C 43.141908,49.210642 42.499983,48.103851 42.5,46.53125 c -1.7e-5,-0.985884 0.33376,-1.811035 1.15625,-2.71875 0.834544,-0.921027 1.877268,-1.588764 3.3125,-2.03125 a 1.50015,1.50015 0 0 0 0.03125,0 c 0.751231,-0.24031 1.45339,-0.690534 1.9375,-1.34375 0.48411,-0.653216 0.687478,-1.457061 0.6875,-2.25 -4.6e-5,-0.982957 -0.409426,-2.0011 -1.125,-2.71875 a 1.50015,1.50015 0 0 0 -0.0625,-0.0625 c -0.513919,-0.45944 -0.718769,-0.896501 -0.71875,-1.6875 -1.9e-5,-0.704256 0.195616,-1.164364 0.6875,-1.65625 0.506651,-0.506648 0.920612,-0.687477 1.625,-0.6875 z"
       transform="translate(-16.046875,-14.8125)" />
    <path
       sodipodi:type="inkscape:offset"
       inkscape:radius="1.5"
       inkscape:original="M 50.03125 27.59375 C 48.33012 27.593786 46.909231 28.184526 45.71875 29.375 C 44.528214 30.565544 43.906224 32.01898 43.90625 33.71875 C 43.906224 35.505517 44.568223 36.997666 45.84375 38.1875 C 43.718323 38.867446 41.974546 39.968905 40.65625 41.5 C 39.337909 43.03114 38.687479 44.703009 38.6875 46.53125 C 38.687479 47.891108 39.078169 49.204185 39.84375 50.4375 C 40.609287 51.670842 41.630726 52.732291 42.90625 53.625 C 39.546849 55.02767 36.863381 57.270598 34.84375 60.375 C 32.824085 63.47941 31.812486 66.823796 31.8125 70.4375 C 31.812486 72.095772 31.992206 73.62858 32.375 75.03125 L 67.71875 75.03125 C 68.10148 73.62858 68.2812 72.095772 68.28125 70.4375 C 68.2812 66.780977 67.269601 63.416261 65.25 60.3125 C 63.230305 57.208747 60.546837 54.986148 57.1875 53.625 C 58.46296 52.732291 59.484399 51.660353 60.25 50.40625 C 61.015517 49.152174 61.406207 47.849586 61.40625 46.53125 C 61.406207 44.703009 60.724527 43.03114 59.40625 41.5 C 58.08789 39.968905 56.375363 38.867446 54.25 38.1875 C 55.525463 36.997666 56.156212 35.505517 56.15625 33.71875 C 56.156212 32.01898 55.565473 30.565544 54.375 29.375 C 53.184455 28.184526 51.732316 27.593786 50.03125 27.59375 z M 50.03125 29.875 C 51.051098 29.875034 51.953157 30.255884 52.71875 31 C 53.484274 31.744182 53.874964 32.656081 53.875 33.71875 C 53.874964 34.867119 53.464594 35.808538 52.65625 36.53125 C 52.189095 36.999696 51.968716 37.550425 51.96875 38.1875 C 51.968716 39.293045 52.499765 40.003814 53.5625 40.34375 C 55.220743 40.855011 56.532091 41.686241 57.53125 42.8125 C 58.53033 43.938801 59.031209 45.17013 59.03125 46.53125 C 59.031209 48.613847 57.988792 50.306694 55.90625 51.625 C 55.224995 52.093431 54.874963 52.75543 54.875 53.5625 C 54.874963 54.540869 55.325992 55.23066 56.21875 55.65625 C 59.195309 56.888938 61.579027 58.872775 63.34375 61.59375 C 65.108383 64.31473 65.999952 67.248098 66 70.4375 C 65.999952 71.330213 65.908363 72.112891 65.78125 72.75 L 34.28125 72.75 C 34.154073 72.112891 34.093734 71.330213 34.09375 70.4375 C 34.093734 67.248098 34.985303 64.324571 36.75 61.625 C 38.514659 58.925434 40.867128 56.931757 43.84375 55.65625 C 44.736444 55.23066 45.187473 54.540869 45.1875 53.5625 C 45.187473 52.75543 44.868692 52.093431 44.1875 51.625 C 42.062075 50.306694 40.999977 48.613847 41 46.53125 C 40.999977 45.17013 41.510697 43.938801 42.53125 42.8125 C 43.551755 41.686241 44.872943 40.855011 46.53125 40.34375 C 47.593921 40.003814 48.12497 39.293045 48.125 38.1875 C 48.12497 37.550425 47.904591 36.999696 47.4375 36.53125 C 46.629092 35.808538 46.218722 34.867119 46.21875 33.71875 C 46.218722 32.656081 46.599572 31.744182 47.34375 31 C 48.08787 30.255884 48.968519 29.875034 50.03125 29.875 z "
       style="font-size:63.77760315px;font-style:normal;font-variant:normal;font-weight:normal;font-stretch:normal;line-height:125%;letter-spacing:0px;word-spacing:0px;fill:#ffffff;fill-opacity:1;stroke:none;font-family:DiagramTTHabsburg;-inkscape-font-specification:DiagramTTHabsburg"
       id="path3027"
       d="m 50.03125,26.09375 c -2.048376,4.3e-5 -3.937979,0.781737 -5.375,2.21875 -1.437447,1.437456 -2.250032,3.340541 -2.25,5.40625 -2.1e-5,1.41691 0.492306,2.686014 1.1875,3.84375 -1.56168,0.745554 -2.963303,1.692121 -4.0625,2.96875 -1.511444,1.755413 -2.343775,3.81598 -2.34375,6 -2.5e-5,1.647175 0.478413,3.24314 1.375,4.6875 0.503488,0.81116 1.122227,1.542169 1.8125,2.21875 -2.680974,1.512863 -5.043651,3.454114 -6.78125,6.125 -2.163353,3.325272 -3.281265,6.981358 -3.28125,10.875 -1.5e-5,1.766658 0.200528,3.444609 0.625,5 a 1.50015,1.50015 0 0 0 1.4375,1.09375 l 35.34375,0 a 1.50015,1.50015 0 0 0 1.4375,-1.09375 c 0.424391,-1.555352 0.624947,-3.233378 0.625,-5 C 69.781196,66.504334 68.665003,62.827217 66.5,59.5 c -1.739563,-2.673262 -4.094018,-4.606511 -6.78125,-6.09375 0.685588,-0.680007 1.312942,-1.400442 1.8125,-2.21875 0.887933,-1.454618 1.374947,-3.041595 1.375,-4.65625 -5.2e-5,-2.201081 -0.871282,-4.253476 -2.375,-6 -1.095114,-1.271825 -2.505097,-2.18946 -4.0625,-2.9375 0.706078,-1.173552 1.18747,-2.448493 1.1875,-3.875 -4.6e-5,-2.047291 -0.772102,-3.959515 -2.21875,-5.40625 -1.44635,-1.446264 -3.357926,-2.218707 -5.40625,-2.21875 z m 0,5.28125 c 0.646439,2.2e-5 1.129508,0.175534 1.65625,0.6875 0.509283,0.495084 0.687476,0.961202 0.6875,1.65625 -2.5e-5,0.791044 -0.204873,1.22806 -0.71875,1.6875 a 1.50015,1.50015 0 0 0 -0.0625,0.0625 c -0.715678,0.717656 -1.125052,1.735706 -1.125,2.71875 -2.4e-5,0.792958 0.203372,1.59676 0.6875,2.25 0.484128,0.65324 1.186243,1.103446 1.9375,1.34375 a 1.50015,1.50015 0 0 0 0.03125,0 c 1.433573,0.441992 2.471331,1.118304 3.28125,2.03125 0.804089,0.90648 1.12497,1.725593 1.125,2.71875 -3.1e-5,1.582076 -0.65416,2.683597 -2.4375,3.8125 A 1.50015,1.50015 0 0 0 55.0625,50.375 c -1.027263,0.706346 -1.687557,1.946685 -1.6875,3.1875 -5.4e-5,1.439397 0.903581,2.825438 2.1875,3.4375 a 1.50015,1.50015 0 0 0 0.09375,0.03125 c 2.71249,1.123329 4.82721,2.892141 6.4375,5.375 1.622345,2.501579 2.406206,5.121375 2.40625,8.03125 -1.7e-5,0.315621 -0.03996,0.532419 -0.0625,0.8125 l -28.78125,0 c -0.01778,-0.284632 -0.06251,-0.482457 -0.0625,-0.8125 -1.5e-5,-2.909856 0.78633,-5.521903 2.40625,-8 1.615663,-2.471633 3.718018,-4.24093 6.4375,-5.40625 A 1.50015,1.50015 0 0 0 44.5,57 c 1.283855,-0.612075 2.18746,-1.99815 2.1875,-3.4375 -4e-5,-1.202028 -0.611418,-2.469007 -1.65625,-3.1875 a 1.50015,1.50015 0 0 0 -0.0625,-0.03125 C 43.141908,49.210642 42.499983,48.103851 42.5,46.53125 c -1.7e-5,-0.985884 0.33376,-1.811035 1.15625,-2.71875 0.834544,-0.921027 1.877268,-1.588764 3.3125,-2.03125 a 1.50015,1.50015 0 0 0 0.03125,0 c 0.751231,-0.24031 1.45339,-0.690534 1.9375,-1.34375 0.48411,-0.653216 0.687478,-1.457061 0.6875,-2.25 -4.6e-5,-0.982957 -0.409426,-2.0011 -1.125,-2.71875 a 1.50015,1.50015 0 0 0 -0.0625,-0.0625 c -0.513919,-0.45944 -0.718769,-0.896501 -0.71875,-1.6875 -1.9e-5,-0.704256 0.195616,-1.164364 0.6875,-1.65625 0.506651,-0.506648 0.920612,-0.687477 1.625,-0.6875 z"
       transform="translate(-18.046875,-16.8125)" />
    <path
       style="fill:#ffffff;fill-opacity:1;fill-rule:nonzero;stroke:none"
       d="m 31.704717,12.804433 c -2.325829,0.100661 -4.2449,2.429756 -3.799682,4.743846 0.02282,1.134146 0.786277,2.006475 1.436972,2.83249 0.56913,0.918803 0.401051,2.383535 -0.755332,2.740377 -2.278562,0.894479 -4.656334,2.209827 -5.586683,4.619492 -0.49109,1.22988 -0.492234,2.686702 -0.09672,3.942458 0.605594,1.797417 2.26212,2.841382 3.527947,4.122079 0.700199,0.936489 0.221822,2.36755 -0.856656,2.777222 -5.749032,2.633305 -9.987831,8.643712 -9.911413,15.065164 0.07086,0.865179 -0.02642,1.808781 0.322397,2.606813 2.366435,0.224071 4.804474,0.03344 7.19867,0.09672 8.178144,0 16.356289,0 24.534433,0 0.755778,-0.32819 0.475659,-1.441867 0.598737,-2.141639 0.09795,-3.553986 -0.986335,-7.059977 -3.010885,-9.979368 -1.66114,-2.602245 -4.264072,-4.39438 -6.988036,-5.735196 C 37.026189,37.985119 36.9464,36.0781 38.00528,35.303158 c 1.963112,-1.332924 3.669241,-3.543218 3.313263,-6.04631 -0.294115,-2.834031 -2.677977,-4.918809 -5.227384,-5.841663 -0.823298,-0.254878 -1.79954,-0.749322 -1.761208,-1.754038 -0.117632,-1.475708 1.564285,-2.266617 1.745552,-3.689145 0.702896,-2.683605 -1.611177,-5.402976 -4.370787,-5.167568 z"
       id="path2984"
       inkscape:connector-curvature="0" />
    <text
       xml:space="preserve"
       style="font-size:63.77760315px;font-style:normal;font-variant:normal;font-weight:normal;font-stretch:normal;line-height:125%;letter-spacing:0px;word-spacing:0px;fill:#000000;fill-opacity:1;stroke:none;font-family:DiagramTTHabsburg;-inkscape-font-specification:DiagramTTHabsburg"
       x="0.11119843"
       y="47.307438"
       id="text5333"
       sodipodi:linespacing="125%"><tspan
         sodipodi:role="line"
         id="tspan5335"
         x="0.11119843"
         y="47.307438">P</tspan></text>
  </g>
</svg>
