<?xml version="1.0" encoding="UTF-8" standalone="no"?>
<!-- Created with Inkscape (http://www.inkscape.org/) -->

<svg
   xmlns:dc="http://purl.org/dc/elements/1.1/"
   xmlns:cc="http://creativecommons.org/ns#"
   xmlns:rdf="http://www.w3.org/1999/02/22-rdf-syntax-ns#"
   xmlns:svg="http://www.w3.org/2000/svg"
   xmlns="http://www.w3.org/2000/svg"
   xmlns:sodipodi="http://sodipodi.sourceforge.net/DTD/sodipodi-0.dtd"
   xmlns:inkscape="http://www.inkscape.org/namespaces/inkscape"
   width="64px"
   height="64px"
   id="svg2985"
   version="1.1"
   inkscape:version="0.48.2 r9819"
   sodipodi:docname="bb.svg">
  <defs
     id="defs2987" />
  <sodipodi:namedview
     id="base"
     pagecolor="#495b72"
     bordercolor="#666666"
     borderopacity="1.0"
     inkscape:pageopacity="0"
     inkscape:pageshadow="2"
     inkscape:zoom="10.765625"
     inkscape:cx="32"
     inkscape:cy="32"
     inkscape:current-layer="layer1"
     showgrid="true"
     inkscape:document-units="px"
     inkscape:grid-bbox="true"
     inkscape:window-width="1408"
     inkscape:window-height="878"
     inkscape:window-x="24"
     inkscape:window-y="-8"
     inkscape:window-maximized="1" />
  <metadata
     id="metadata2990">
    <rdf:RDF>
      <cc:Work
         rdf:about="">
        <dc:format>image/svg+xml</dc:format>
        <dc:type
           rdf:resource="http://purl.org/dc/dcmitype/StillImage" />
        <dc:title />
      </cc:Work>
    </rdf:RDF>
  </metadata>
  <g
     id="layer1"
     inkscape:label="Layer 1"
     inkscape:groupmode="layer">
    <path
       sodipodi:type="inkscape:offset"
       inkscape:radius="1.5"
       inkscape:original="M 80.71875 0.71875 C 79.52756 0.71878903 78.515962 1.1083986 77.6875 1.9375 C 76.858981 2.7666769 76.437472 3.7789247 76.4375 4.96875 C 76.437472 6.3727418 77.00918 7.5448119 78.15625 8.4375 C 77.390662 9.074632 76.129163 9.9848015 74.34375 11.21875 C 71.665566 13.131378 69.652208 14.825306 68.3125 16.25 C 66.972753 17.674741 66.312483 19.37678 66.3125 21.375 C 66.312483 23.543237 66.793033 25.606444 67.75 27.5625 C 68.70693 29.51858 69.997949 31.191098 71.65625 32.59375 L 68.46875 41.59375 C 69.785751 42.019347 71.088989 42.389708 72.34375 42.6875 C 73.598464 42.985286 74.810113 43.185336 76 43.3125 C 75.234414 44.035236 74.333004 44.585965 73.3125 44.96875 C 72.291947 45.351524 71.2292 45.531244 70.125 45.53125 C 69.273781 45.531244 68.01358 45.431544 66.3125 45.21875 C 64.612682 45.005945 63.319934 44.906245 62.46875 44.90625 C 61.278876 44.906245 60.096749 45.026274 58.90625 45.28125 C 57.715731 45.536214 56.363292 45.947234 54.875 46.5 L 57.75 53.25 C 58.897032 52.740046 60.160259 52.370117 61.5 52.09375 C 62.839715 51.817358 64.130735 51.656238 65.40625 51.65625 C 66.256133 51.656238 67.548882 51.757236 69.25 51.96875 C 70.94978 52.181537 72.211278 52.312487 73.0625 52.3125 C 74.635115 52.312487 76.108232 51.911308 77.46875 51.125 C 78.82921 50.338669 79.91034 49.246401 80.71875 47.84375 C 81.527096 49.246401 82.608226 50.338669 83.96875 51.125 C 85.329204 51.911308 86.802321 52.312487 88.375 52.3125 C 89.226158 52.312487 90.487656 52.181537 92.1875 51.96875 C 93.888554 51.757236 95.181303 51.656238 96.03125 51.65625 C 97.306702 51.656238 98.607561 51.817358 99.96875 52.09375 C 101.32984 52.370117 102.58322 52.740046 103.6875 53.25 L 106.5625 46.5 C 104.18142 45.437294 101.64686 44.906245 98.96875 44.90625 C 98.117502 44.906245 96.824754 45.005945 95.125 45.21875 C 93.423856 45.431544 92.163655 45.531244 91.3125 45.53125 C 90.249758 45.531244 89.1975 45.351524 88.15625 44.96875 C 87.114921 44.585965 86.203022 44.035236 85.4375 43.3125 C 86.627323 43.185336 87.859301 42.944196 89.15625 42.625 C 90.453118 42.305798 91.736026 41.955549 92.96875 41.53125 L 89.78125 32.59375 C 91.439487 31.191098 92.730507 29.51858 93.6875 27.5625 C 94.644404 25.606444 95.124954 23.543237 95.125 21.375 C 95.124954 19.37678 94.464684 17.664901 93.125 16.21875 C 91.785228 14.772646 89.77187 13.088559 87.09375 11.21875 C 85.349795 9.9848015 84.088296 9.074632 83.28125 8.4375 C 84.428256 7.5448119 84.999964 6.3727418 85 4.96875 C 84.999964 3.7789247 84.578455 2.7666769 83.75 1.9375 C 82.921475 1.1083986 81.909876 0.71878903 80.71875 0.71875 z M 80.71875 15.625 C 81.484277 15.625024 81.874967 16.015714 81.875 16.78125 L 81.875 20.21875 L 85.3125 20.21875 C 86.078022 20.21877 86.468712 20.60946 86.46875 21.375 C 86.468712 22.140577 86.078022 22.531267 85.3125 22.53125 L 81.875 22.53125 L 81.875 25.96875 C 81.874967 26.734323 81.484277 27.125013 80.71875 27.125 C 79.953159 27.125013 79.562469 26.734323 79.5625 25.96875 L 79.5625 22.53125 L 76.125 22.53125 C 75.359414 22.531267 74.968724 22.140577 74.96875 21.375 C 74.968724 20.60946 75.359414 20.21877 76.125 20.21875 L 79.5625 20.21875 L 79.5625 16.78125 C 79.562469 16.015714 79.953159 15.625024 80.71875 15.625 z M 80.71875 30.75 C 83.226896 30.750009 85.509834 30.929729 87.59375 31.3125 L 87.03125 31.78125 L 87.71875 33.6875 C 85.380513 33.261907 83.056916 33.031257 80.71875 33.03125 C 78.38052 33.031257 76.025673 33.261907 73.6875 33.6875 L 74.40625 31.78125 L 73.84375 31.3125 C 75.969124 30.929729 78.252062 30.750009 80.71875 30.75 z M 80.71875 36.5 C 83.355355 36.500003 86.109002 36.800402 89 37.4375 L 89.96875 40.0625 C 86.95059 39.211302 83.865295 38.781251 80.71875 38.78125 C 77.572142 38.781251 74.486846 39.211302 71.46875 40.0625 L 72.375 37.4375 C 73.736114 37.140362 75.116993 36.919983 76.5625 36.75 C 78.007951 36.580023 79.4004 36.500003 80.71875 36.5 z M 78.875 43.5625 L 79.5625 43.625 C 79.562469 44.262097 79.42211 45.004116 79.125 45.8125 L 76.6875 45.65625 C 77.580192 44.976324 78.322211 44.285236 78.875 43.5625 z M 82.5625 43.5625 C 83.115226 44.285236 83.857245 44.976324 84.75 45.65625 L 82.3125 45.8125 C 82.015326 45.004116 81.874967 44.262097 81.875 43.625 L 82.5625 43.5625 z "
       style="font-size:63.77760315px;font-style:normal;font-variant:normal;font-weight:normal;font-stretch:normal;line-height:125%;letter-spacing:0px;word-spacing:0px;fill:#4d4d4d;fill-opacity:1;stroke:none;font-family:DiagramTTHabsburg;-inkscape-font-specification:DiagramTTHabsburg"
       id="path3039-4"
       d="m 80.71875,-0.78125 c -1.518238,4.975e-5 -2.999823,0.56147904 -4.09375,1.65625 -1.080162,1.0810196 -1.687536,2.5496434 -1.6875,4.09375 -2.3e-5,1.1674343 0.455386,2.2321245 1.09375,3.1875 C 75.322276,8.689639 74.712208,9.1622091 73.5,10 a 1.50015,1.50015 0 0 0 -0.03125,0 c -2.729716,1.949429 -4.802992,3.679949 -6.25,5.21875 -1.579674,1.679889 -2.40627,3.827594 -2.40625,6.15625 -1.9e-5,2.389876 0.540916,4.691741 1.59375,6.84375 0.881974,1.802862 2.097277,3.370069 3.53125,4.75 l -2.875,8.125 A 1.50015,1.50015 0 0 0 68,43.03125 c 1.01267,0.327251 2.011553,0.585987 3,0.84375 -0.29706,0.03321 -0.564765,0.156248 -0.875,0.15625 -0.734103,-5e-6 -1.957198,-0.103869 -3.625,-0.3125 -1.735534,-0.217276 -3.062926,-0.312506 -4.03125,-0.3125 -1.290754,-5e-6 -2.579931,0.128878 -3.875,0.40625 -1.285841,0.275378 -2.711178,0.709717 -4.25,1.28125 a 1.50015,1.50015 0 0 0 -0.84375,2 l 2.875,6.75 a 1.50015,1.50015 0 0 0 1.96875,0.78125 c 1.019532,-0.453269 2.20568,-0.801949 3.46875,-1.0625 1.265932,-0.26117 2.444562,-0.406261 3.59375,-0.40625 0.731024,-1e-5 1.989451,0.105253 3.65625,0.3125 1.715281,0.214728 2.994963,0.343735 4,0.34375 1.82771,-1.5e-5 3.580968,-0.46457 5.15625,-1.375 0.959417,-0.554532 1.772064,-1.303045 2.5,-2.125 0.72794,0.82197 1.540538,1.570467 2.5,2.125 1.575239,0.910449 3.328486,1.374985 5.15625,1.375 1.004985,-1.5e-5 2.284659,-0.129023 4,-0.34375 1.66673,-0.207246 2.925153,-0.31251 3.65625,-0.3125 1.149119,-1.1e-5 2.335046,0.144322 3.625,0.40625 1.28127,0.260159 2.44351,0.61791 3.40625,1.0625 a 1.50015,1.50015 0 0 0 2,-0.78125 l 2.875,-6.75 a 1.50015,1.50015 0 0 0 -0.75,-1.96875 c -2.57302,-1.148369 -5.34235,-1.718755 -8.21875,-1.71875 -0.968379,-6e-6 -2.295776,0.09522 -4.03125,0.3125 -1.66787,0.208632 -2.89097,0.312495 -3.625,0.3125 -0.340959,-2e-6 -0.664543,-0.142937 -1,-0.1875 1.049815,-0.271644 2.127252,-0.552073 3.15625,-0.90625 A 1.50015,1.50015 0 0 0 94.375,41.03125 L 91.5,32.96875 c 1.433924,-1.379922 2.649228,-2.947161 3.53125,-4.75 1.052756,-2.151992 1.593699,-4.453902 1.59375,-6.84375 -5.4e-5,-2.328629 -0.83249,-4.48867 -2.40625,-6.1875 -1.446505,-1.561308 -3.536357,-3.258669 -6.25,-5.15625 -0.0067,-0.0047 0.0067,-0.02659 0,-0.03125 -0.0094,-0.00667 -0.02186,0.0066 -0.03125,0 C 86.772828,9.1757869 86.160758,8.6614872 85.4375,8.125 86.060435,7.1775842 86.49997,6.1213141 86.5,4.96875 86.499953,3.4246892 85.892574,1.9560154 84.8125,0.875 83.718533,-0.21972847 82.236942,-0.78120025 80.71875,-0.78125 z m 0,21.96875 a 1.50015,1.50015 0 0 0 0.1875,0.1875 1.50015,1.50015 0 0 0 -0.1875,0.1875 1.50015,1.50015 0 0 0 -0.1875,-0.1875 1.50015,1.50015 0 0 0 0.1875,-0.1875 z"
       transform="translate(-46.720209,6.8975612)" />
    <path
       sodipodi:type="inkscape:offset"
       inkscape:radius="1.5"
       inkscape:original="M 80.71875 0.71875 C 79.52756 0.71878903 78.515962 1.1083986 77.6875 1.9375 C 76.858981 2.7666769 76.437472 3.7789247 76.4375 4.96875 C 76.437472 6.3727418 77.00918 7.5448119 78.15625 8.4375 C 77.390662 9.074632 76.129163 9.9848015 74.34375 11.21875 C 71.665566 13.131378 69.652208 14.825306 68.3125 16.25 C 66.972753 17.674741 66.312483 19.37678 66.3125 21.375 C 66.312483 23.543237 66.793033 25.606444 67.75 27.5625 C 68.70693 29.51858 69.997949 31.191098 71.65625 32.59375 L 68.46875 41.59375 C 69.785751 42.019347 71.088989 42.389708 72.34375 42.6875 C 73.598464 42.985286 74.810113 43.185336 76 43.3125 C 75.234414 44.035236 74.333004 44.585965 73.3125 44.96875 C 72.291947 45.351524 71.2292 45.531244 70.125 45.53125 C 69.273781 45.531244 68.01358 45.431544 66.3125 45.21875 C 64.612682 45.005945 63.319934 44.906245 62.46875 44.90625 C 61.278876 44.906245 60.096749 45.026274 58.90625 45.28125 C 57.715731 45.536214 56.363292 45.947234 54.875 46.5 L 57.75 53.25 C 58.897032 52.740046 60.160259 52.370117 61.5 52.09375 C 62.839715 51.817358 64.130735 51.656238 65.40625 51.65625 C 66.256133 51.656238 67.548882 51.757236 69.25 51.96875 C 70.94978 52.181537 72.211278 52.312487 73.0625 52.3125 C 74.635115 52.312487 76.108232 51.911308 77.46875 51.125 C 78.82921 50.338669 79.91034 49.246401 80.71875 47.84375 C 81.527096 49.246401 82.608226 50.338669 83.96875 51.125 C 85.329204 51.911308 86.802321 52.312487 88.375 52.3125 C 89.226158 52.312487 90.487656 52.181537 92.1875 51.96875 C 93.888554 51.757236 95.181303 51.656238 96.03125 51.65625 C 97.306702 51.656238 98.607561 51.817358 99.96875 52.09375 C 101.32984 52.370117 102.58322 52.740046 103.6875 53.25 L 106.5625 46.5 C 104.18142 45.437294 101.64686 44.906245 98.96875 44.90625 C 98.117502 44.906245 96.824754 45.005945 95.125 45.21875 C 93.423856 45.431544 92.163655 45.531244 91.3125 45.53125 C 90.249758 45.531244 89.1975 45.351524 88.15625 44.96875 C 87.114921 44.585965 86.203022 44.035236 85.4375 43.3125 C 86.627323 43.185336 87.859301 42.944196 89.15625 42.625 C 90.453118 42.305798 91.736026 41.955549 92.96875 41.53125 L 89.78125 32.59375 C 91.439487 31.191098 92.730507 29.51858 93.6875 27.5625 C 94.644404 25.606444 95.124954 23.543237 95.125 21.375 C 95.124954 19.37678 94.464684 17.664901 93.125 16.21875 C 91.785228 14.772646 89.77187 13.088559 87.09375 11.21875 C 85.349795 9.9848015 84.088296 9.074632 83.28125 8.4375 C 84.428256 7.5448119 84.999964 6.3727418 85 4.96875 C 84.999964 3.7789247 84.578455 2.7666769 83.75 1.9375 C 82.921475 1.1083986 81.909876 0.71878903 80.71875 0.71875 z M 80.71875 15.625 C 81.484277 15.625024 81.874967 16.015714 81.875 16.78125 L 81.875 20.21875 L 85.3125 20.21875 C 86.078022 20.21877 86.468712 20.60946 86.46875 21.375 C 86.468712 22.140577 86.078022 22.531267 85.3125 22.53125 L 81.875 22.53125 L 81.875 25.96875 C 81.874967 26.734323 81.484277 27.125013 80.71875 27.125 C 79.953159 27.125013 79.562469 26.734323 79.5625 25.96875 L 79.5625 22.53125 L 76.125 22.53125 C 75.359414 22.531267 74.968724 22.140577 74.96875 21.375 C 74.968724 20.60946 75.359414 20.21877 76.125 20.21875 L 79.5625 20.21875 L 79.5625 16.78125 C 79.562469 16.015714 79.953159 15.625024 80.71875 15.625 z M 80.71875 30.75 C 83.226896 30.750009 85.509834 30.929729 87.59375 31.3125 L 87.03125 31.78125 L 87.71875 33.6875 C 85.380513 33.261907 83.056916 33.031257 80.71875 33.03125 C 78.38052 33.031257 76.025673 33.261907 73.6875 33.6875 L 74.40625 31.78125 L 73.84375 31.3125 C 75.969124 30.929729 78.252062 30.750009 80.71875 30.75 z M 80.71875 36.5 C 83.355355 36.500003 86.109002 36.800402 89 37.4375 L 89.96875 40.0625 C 86.95059 39.211302 83.865295 38.781251 80.71875 38.78125 C 77.572142 38.781251 74.486846 39.211302 71.46875 40.0625 L 72.375 37.4375 C 73.736114 37.140362 75.116993 36.919983 76.5625 36.75 C 78.007951 36.580023 79.4004 36.500003 80.71875 36.5 z M 78.875 43.5625 L 79.5625 43.625 C 79.562469 44.262097 79.42211 45.004116 79.125 45.8125 L 76.6875 45.65625 C 77.580192 44.976324 78.322211 44.285236 78.875 43.5625 z M 82.5625 43.5625 C 83.115226 44.285236 83.857245 44.976324 84.75 45.65625 L 82.3125 45.8125 C 82.015326 45.004116 81.874967 44.262097 81.875 43.625 L 82.5625 43.5625 z "
       style="font-size:63.77760315px;font-style:normal;font-variant:normal;font-weight:normal;font-stretch:normal;line-height:125%;letter-spacing:0px;word-spacing:0px;fill:#ffffff;fill-opacity:1;stroke:none;font-family:DiagramTTHabsburg;-inkscape-font-specification:DiagramTTHabsburg"
       id="path3039"
       d="m 80.71875,-0.78125 c -1.518238,4.975e-5 -2.999823,0.56147904 -4.09375,1.65625 -1.080162,1.0810196 -1.687536,2.5496434 -1.6875,4.09375 -2.3e-5,1.1674343 0.455386,2.2321245 1.09375,3.1875 C 75.322276,8.689639 74.712208,9.1622091 73.5,10 a 1.50015,1.50015 0 0 0 -0.03125,0 c -2.729716,1.949429 -4.802992,3.679949 -6.25,5.21875 -1.579674,1.679889 -2.40627,3.827594 -2.40625,6.15625 -1.9e-5,2.389876 0.540916,4.691741 1.59375,6.84375 0.881974,1.802862 2.097277,3.370069 3.53125,4.75 l -2.875,8.125 A 1.50015,1.50015 0 0 0 68,43.03125 c 1.01267,0.327251 2.011553,0.585987 3,0.84375 -0.29706,0.03321 -0.564765,0.156248 -0.875,0.15625 -0.734103,-5e-6 -1.957198,-0.103869 -3.625,-0.3125 -1.735534,-0.217276 -3.062926,-0.312506 -4.03125,-0.3125 -1.290754,-5e-6 -2.579931,0.128878 -3.875,0.40625 -1.285841,0.275378 -2.711178,0.709717 -4.25,1.28125 a 1.50015,1.50015 0 0 0 -0.84375,2 l 2.875,6.75 a 1.50015,1.50015 0 0 0 1.96875,0.78125 c 1.019532,-0.453269 2.20568,-0.801949 3.46875,-1.0625 1.265932,-0.26117 2.444562,-0.406261 3.59375,-0.40625 0.731024,-1e-5 1.989451,0.105253 3.65625,0.3125 1.715281,0.214728 2.994963,0.343735 4,0.34375 1.82771,-1.5e-5 3.580968,-0.46457 5.15625,-1.375 0.959417,-0.554532 1.772064,-1.303045 2.5,-2.125 0.72794,0.82197 1.540538,1.570467 2.5,2.125 1.575239,0.910449 3.328486,1.374985 5.15625,1.375 1.004985,-1.5e-5 2.284659,-0.129023 4,-0.34375 1.66673,-0.207246 2.925153,-0.31251 3.65625,-0.3125 1.149119,-1.1e-5 2.335046,0.144322 3.625,0.40625 1.28127,0.260159 2.44351,0.61791 3.40625,1.0625 a 1.50015,1.50015 0 0 0 2,-0.78125 l 2.875,-6.75 a 1.50015,1.50015 0 0 0 -0.75,-1.96875 c -2.57302,-1.148369 -5.34235,-1.718755 -8.21875,-1.71875 -0.968379,-6e-6 -2.295776,0.09522 -4.03125,0.3125 -1.66787,0.208632 -2.89097,0.312495 -3.625,0.3125 -0.340959,-2e-6 -0.664543,-0.142937 -1,-0.1875 1.049815,-0.271644 2.127252,-0.552073 3.15625,-0.90625 A 1.50015,1.50015 0 0 0 94.375,41.03125 L 91.5,32.96875 c 1.433924,-1.379922 2.649228,-2.947161 3.53125,-4.75 1.052756,-2.151992 1.593699,-4.453902 1.59375,-6.84375 -5.4e-5,-2.328629 -0.83249,-4.48867 -2.40625,-6.1875 -1.446505,-1.561308 -3.536357,-3.258669 -6.25,-5.15625 -0.0067,-0.0047 0.0067,-0.02659 0,-0.03125 -0.0094,-0.00667 -0.02186,0.0066 -0.03125,0 C 86.772828,9.1757869 86.160758,8.6614872 85.4375,8.125 86.060435,7.1775842 86.49997,6.1213141 86.5,4.96875 86.499953,3.4246892 85.892574,1.9560154 84.8125,0.875 83.718533,-0.21972847 82.236942,-0.78120025 80.71875,-0.78125 z m 0,21.96875 a 1.50015,1.50015 0 0 0 0.1875,0.1875 1.50015,1.50015 0 0 0 -0.1875,0.1875 1.50015,1.50015 0 0 0 -0.1875,-0.1875 1.50015,1.50015 0 0 0 0.1875,-0.1875 z"
       transform="translate(-48.720209,4.9)" />
    <path
       style="fill:#ffffff;fill-opacity:1;fill-rule:nonzero;stroke:none"
       d="m 31.885013,20.384807 c -0.912057,-0.0487 -1.484303,0.805494 -1.358675,1.653437 -0.02649,0.966963 -0.0085,1.934394 -0.01382,2.901576 -1.336466,0.11761 -2.791606,-0.25319 -4.0576,0.271734 -0.852886,0.709147 -0.699203,2.577903 0.617161,2.639052 1.130156,0.221425 2.294678,0.136889 3.440439,0.156593 0.07845,1.292375 -0.16044,2.666317 0.20265,3.914824 0.7554,0.973344 2.758623,0.687027 2.754194,-0.713879 0.106423,-1.064493 0.0876,-2.137255 0.128958,-3.20555 1.276967,-0.134288 2.700276,0.216731 3.891796,-0.345426 1.118619,-0.729001 0.602314,-2.828524 -0.829022,-2.685108 -1.025828,-0.05943 -2.05428,-0.02118 -3.081197,-0.03224 -0.118243,-1.381206 0.289101,-2.98113 -0.488201,-4.218799 -0.295771,-0.341081 -0.788133,-0.366359 -1.206683,-0.336212 z"
       id="path2984"
       inkscape:connector-curvature="0" />
    <path
       style="fill:#ffffff;fill-opacity:1;fill-rule:nonzero;stroke:none"
       d="m 31.751448,35.486816 c -2.159229,0.09366 -4.386671,-0.0195 -6.48479,0.548075 -0.523046,0.185167 -0.300191,0.781457 -0.07369,1.017854 -0.09552,0.643416 -0.912213,1.49589 -0.257918,2.012681 4.533522,-0.628376 9.221106,-0.787168 13.761758,-0.05987 0.993595,0.01047 0.441403,-1.110987 0.230284,-1.621197 -0.356459,-0.44719 0.33708,-1.021522 -0.198045,-1.372491 -2.25719,-0.553475 -4.654915,-0.519062 -6.977598,-0.525047 z"
       id="path2986"
       inkscape:connector-curvature="0" />
    <path
       style="fill:#ffffff;fill-opacity:1;fill-rule:nonzero;stroke:none"
       d="m 31.15271,41.197853 c -2.455893,0.102846 -4.940868,0.326305 -7.323024,0.925741 -1.029857,0.475388 -0.926434,1.855047 -1.390913,2.735771 0.01815,1.017335 1.213548,0.285172 1.805425,0.248707 5.390081,-1.275668 11.087873,-1.119033 16.437654,0.216466 0.735771,0.296976 0.981969,-0.584696 0.635583,-1.096151 -0.360354,-0.687041 -0.31158,-1.853369 -1.125939,-2.140773 -2.976069,-0.604701 -5.995358,-0.988688 -9.038786,-0.889761 z"
       id="path2988"
       inkscape:connector-curvature="0" />
    <path
       style="fill:#ffffff;fill-opacity:1;fill-rule:nonzero;stroke:none"
       d="m 33.298955,48.230719 c -0.949378,0.218163 -0.370066,1.407492 -0.271735,2.026497 0.0067,1.077385 1.07962,0.922787 1.837664,0.888896 0.782183,0.288965 1.968967,-0.353558 0.942634,-1.04286 -0.785936,-0.615113 -1.437974,-1.784295 -2.508563,-1.872533 z"
       id="path2990"
       inkscape:connector-curvature="0" />
    <path
       style="fill:#ffffff;fill-opacity:1;fill-rule:nonzero;stroke:none"
       d="m 30.425013,48.235325 c -1.049421,0.508836 -1.857261,1.472179 -2.62219,2.309863 -0.200541,0.911884 1.138669,0.523767 1.682632,0.600924 0.799172,0.144816 1.583649,-0.390803 1.585623,-1.236065 0.112242,-0.607904 0.415624,-1.818317 -0.646065,-1.674722 z"
       id="path2992"
       inkscape:connector-curvature="0" />
    <text
       xml:space="preserve"
       style="font-size:63.77760315px;font-style:normal;font-variant:normal;font-weight:normal;font-stretch:normal;line-height:125%;letter-spacing:0px;word-spacing:0px;fill:#000000;fill-opacity:1;stroke:none;font-family:DiagramTTHabsburg;-inkscape-font-specification:DiagramTTHabsburg"
       x="0.11119843"
       y="44.755329"
       id="text5385"
       sodipodi:linespacing="125%"><tspan
         sodipodi:role="line"
         id="tspan5387"
         x="0.11119843"
         y="44.755329">l</tspan></text>
  </g>
</svg>
