<?xml version="1.0" encoding="UTF-8" standalone="no"?>
<!-- Created with Inkscape (http://www.inkscape.org/) -->

<svg
   xmlns:dc="http://purl.org/dc/elements/1.1/"
   xmlns:cc="http://creativecommons.org/ns#"
   xmlns:rdf="http://www.w3.org/1999/02/22-rdf-syntax-ns#"
   xmlns:svg="http://www.w3.org/2000/svg"
   xmlns="http://www.w3.org/2000/svg"
   xmlns:sodipodi="http://sodipodi.sourceforge.net/DTD/sodipodi-0.dtd"
   xmlns:inkscape="http://www.inkscape.org/namespaces/inkscape"
   width="64px"
   height="64px"
   id="svg2985"
   version="1.1"
   inkscape:version="0.48.2 r9819"
   sodipodi:docname="bp.svg">
  <defs
     id="defs2987" />
  <sodipodi:namedview
     id="base"
     pagecolor="#502220"
     bordercolor="#666666"
     borderopacity="1.0"
     inkscape:pageopacity="0"
     inkscape:pageshadow="2"
     inkscape:zoom="10.765625"
     inkscape:cx="32"
     inkscape:cy="32"
     inkscape:current-layer="layer1"
     showgrid="true"
     inkscape:document-units="px"
     inkscape:grid-bbox="true"
     inkscape:window-width="1408"
     inkscape:window-height="878"
     inkscape:window-x="24"
     inkscape:window-y="-8"
     inkscape:window-maximized="1" />
  <metadata
     id="metadata2990">
    <rdf:RDF>
      <cc:Work
         rdf:about="">
        <dc:format>image/svg+xml</dc:format>
        <dc:type
           rdf:resource="http://purl.org/dc/dcmitype/StillImage" />
        <dc:title />
      </cc:Work>
    </rdf:RDF>
  </metadata>
  <g
     id="layer1"
     inkscape:label="Layer 1"
     inkscape:groupmode="layer">
    <path
       sodipodi:type="inkscape:offset"
       inkscape:radius="1.5"
       inkscape:original="M 32 8.28125 C 30.29887 8.2812865 28.846731 8.8720258 27.65625 10.0625 C 26.465714 11.253044 25.874974 12.70648 25.875 14.40625 C 25.874974 16.193017 26.505723 17.685166 27.78125 18.875 C 25.655823 19.554946 23.943296 20.656405 22.625 22.1875 C 21.306659 23.71864 20.656229 25.390509 20.65625 27.21875 C 20.656229 28.578608 21.015669 29.860435 21.78125 31.09375 C 22.546787 32.327092 23.568226 33.388541 24.84375 34.28125 C 21.484349 35.68392 18.800881 37.958098 16.78125 41.0625 C 14.761585 44.16691 13.749986 47.511296 13.75 51.125 C 13.749986 52.783272 13.960956 54.31608 14.34375 55.71875 L 49.65625 55.71875 C 50.03898 54.31608 50.24995 52.783272 50.25 51.125 C 50.24995 47.468477 49.238351 44.103761 47.21875 41 C 45.199055 37.896247 42.515587 35.642398 39.15625 34.28125 C 40.43171 33.388541 41.453149 32.316603 42.21875 31.0625 C 42.984267 29.808424 43.343707 28.537086 43.34375 27.21875 C 43.343707 25.390509 42.693277 23.71864 41.375 22.1875 C 40.05664 20.656405 38.344113 19.554946 36.21875 18.875 C 37.494213 17.685166 38.124962 16.193017 38.125 14.40625 C 38.124962 12.70648 37.534223 11.253044 36.34375 10.0625 C 35.153205 8.8720258 33.701066 8.2812865 32 8.28125 z "
       style="font-size:63.77760315px;font-style:normal;font-variant:normal;font-weight:normal;font-stretch:normal;line-height:125%;letter-spacing:0px;word-spacing:0px;fill:#4d4d4d;fill-opacity:1;stroke:none;font-family:DiagramTTHabsburg;-inkscape-font-specification:DiagramTTHabsburg"
       id="path3020-4"
       d="M 32,6.78125 C 29.951625,6.781294 28.040052,7.5537059 26.59375,9 c -1.446727,1.446737 -2.218781,3.358926 -2.21875,5.40625 -2.1e-5,1.426527 0.481397,2.701431 1.1875,3.875 -1.557432,0.748042 -2.967423,1.665656 -4.0625,2.9375 -1.511444,1.755413 -2.343775,3.81598 -2.34375,6 -2.5e-5,1.624194 0.443505,3.205997 1.34375,4.65625 0.503488,0.81116 1.122227,1.542169 1.8125,2.21875 -2.683416,1.522502 -5.04566,3.488451 -6.78125,6.15625 -2.163353,3.325272 -3.281265,6.981358 -3.28125,10.875 -1.5e-5,1.785503 0.237237,3.464612 0.65625,5 a 1.50015,1.50015 0 0 0 1.4375,1.09375 l 35.3125,0 a 1.50015,1.50015 0 0 0 1.4375,-1.09375 c 0.418932,-1.535348 0.656196,-3.214533 0.65625,-5 -5.4e-5,-3.933166 -1.116247,-7.610283 -3.28125,-10.9375 -1.73574,-2.667387 -4.095294,-4.597143 -6.78125,-6.09375 0.691628,-0.683757 1.30945,-1.425972 1.8125,-2.25 0.891618,-1.460655 1.343698,-3.034049 1.34375,-4.625 -5.1e-5,-2.183988 -0.832384,-4.244593 -2.34375,-6 -1.095114,-1.271825 -2.505097,-2.18946 -4.0625,-2.9375 0.706078,-1.173552 1.18747,-2.448493 1.1875,-3.875 C 39.624954,12.358959 38.852898,10.446735 37.40625,9 35.9599,7.553736 34.048324,6.781294 32,6.78125 z"
       transform="translate(2,4.4)" />
    <path
       sodipodi:type="inkscape:offset"
       inkscape:radius="1.5"
       inkscape:original="M 32 8.28125 C 30.29887 8.2812865 28.846731 8.8720258 27.65625 10.0625 C 26.465714 11.253044 25.874974 12.70648 25.875 14.40625 C 25.874974 16.193017 26.505723 17.685166 27.78125 18.875 C 25.655823 19.554946 23.943296 20.656405 22.625 22.1875 C 21.306659 23.71864 20.656229 25.390509 20.65625 27.21875 C 20.656229 28.578608 21.015669 29.860435 21.78125 31.09375 C 22.546787 32.327092 23.568226 33.388541 24.84375 34.28125 C 21.484349 35.68392 18.800881 37.958098 16.78125 41.0625 C 14.761585 44.16691 13.749986 47.511296 13.75 51.125 C 13.749986 52.783272 13.960956 54.31608 14.34375 55.71875 L 49.65625 55.71875 C 50.03898 54.31608 50.24995 52.783272 50.25 51.125 C 50.24995 47.468477 49.238351 44.103761 47.21875 41 C 45.199055 37.896247 42.515587 35.642398 39.15625 34.28125 C 40.43171 33.388541 41.453149 32.316603 42.21875 31.0625 C 42.984267 29.808424 43.343707 28.537086 43.34375 27.21875 C 43.343707 25.390509 42.693277 23.71864 41.375 22.1875 C 40.05664 20.656405 38.344113 19.554946 36.21875 18.875 C 37.494213 17.685166 38.124962 16.193017 38.125 14.40625 C 38.124962 12.70648 37.534223 11.253044 36.34375 10.0625 C 35.153205 8.8720258 33.701066 8.2812865 32 8.28125 z "
       style="font-size:63.77760315px;font-style:normal;font-variant:normal;font-weight:normal;font-stretch:normal;line-height:125%;letter-spacing:0px;word-spacing:0px;fill:#ffffff;fill-opacity:1;stroke:none;font-family:DiagramTTHabsburg;-inkscape-font-specification:DiagramTTHabsburg"
       id="path3020"
       d="M 32,6.78125 C 29.951625,6.781294 28.040052,7.5537059 26.59375,9 c -1.446727,1.446737 -2.218781,3.358926 -2.21875,5.40625 -2.1e-5,1.426527 0.481397,2.701431 1.1875,3.875 -1.557432,0.748042 -2.967423,1.665656 -4.0625,2.9375 -1.511444,1.755413 -2.343775,3.81598 -2.34375,6 -2.5e-5,1.624194 0.443505,3.205997 1.34375,4.65625 0.503488,0.81116 1.122227,1.542169 1.8125,2.21875 -2.683416,1.522502 -5.04566,3.488451 -6.78125,6.15625 -2.163353,3.325272 -3.281265,6.981358 -3.28125,10.875 -1.5e-5,1.785503 0.237237,3.464612 0.65625,5 a 1.50015,1.50015 0 0 0 1.4375,1.09375 l 35.3125,0 a 1.50015,1.50015 0 0 0 1.4375,-1.09375 c 0.418932,-1.535348 0.656196,-3.214533 0.65625,-5 -5.4e-5,-3.933166 -1.116247,-7.610283 -3.28125,-10.9375 -1.73574,-2.667387 -4.095294,-4.597143 -6.78125,-6.09375 0.691628,-0.683757 1.30945,-1.425972 1.8125,-2.25 0.891618,-1.460655 1.343698,-3.034049 1.34375,-4.625 -5.1e-5,-2.183988 -0.832384,-4.244593 -2.34375,-6 -1.095114,-1.271825 -2.505097,-2.18946 -4.0625,-2.9375 0.706078,-1.173552 1.18747,-2.448493 1.1875,-3.875 C 39.624954,12.358959 38.852898,10.446735 37.40625,9 35.9599,7.553736 34.048324,6.781294 32,6.78125 z"
       transform="translate(0,2.4)" />
    <text
       xml:space="preserve"
       style="font-size:63.77760315px;font-style:normal;font-variant:normal;font-weight:normal;font-stretch:normal;line-height:125%;letter-spacing:0px;word-spacing:0px;fill:#000000;fill-opacity:1;stroke:none;font-family:DiagramTTHabsburg;-inkscape-font-specification:DiagramTTHabsburg"
       x="0.11119843"
       y="47.307438"
       id="text5329"
       sodipodi:linespacing="125%"><tspan
         sodipodi:role="line"
         id="tspan5331"
         x="0.11119843"
         y="47.307438">p</tspan></text>
  </g>
</svg>
