<?xml version="1.0" encoding="UTF-8" standalone="no"?>
<!-- Created with Inkscape (http://www.inkscape.org/) -->

<svg
   xmlns:dc="http://purl.org/dc/elements/1.1/"
   xmlns:cc="http://creativecommons.org/ns#"
   xmlns:rdf="http://www.w3.org/1999/02/22-rdf-syntax-ns#"
   xmlns:svg="http://www.w3.org/2000/svg"
   xmlns="http://www.w3.org/2000/svg"
   xmlns:sodipodi="http://sodipodi.sourceforge.net/DTD/sodipodi-0.dtd"
   xmlns:inkscape="http://www.inkscape.org/namespaces/inkscape"
   width="64px"
   height="64px"
   id="svg2985"
   version="1.1"
   inkscape:version="0.48.2 r9819"
   sodipodi:docname="wn.svg">
  <defs
     id="defs2987" />
  <sodipodi:namedview
     id="base"
     pagecolor="#ff869b"
     bordercolor="#666666"
     borderopacity="1.0"
     inkscape:pageopacity="0"
     inkscape:pageshadow="2"
     inkscape:zoom="10.765625"
     inkscape:cx="15.373004"
     inkscape:cy="32"
     inkscape:current-layer="layer1"
     showgrid="true"
     inkscape:document-units="px"
     inkscape:grid-bbox="true"
     inkscape:window-width="1408"
     inkscape:window-height="878"
     inkscape:window-x="24"
     inkscape:window-y="-8"
     inkscape:window-maximized="1" />
  <metadata
     id="metadata2990">
    <rdf:RDF>
      <cc:Work
         rdf:about="">
        <dc:format>image/svg+xml</dc:format>
        <dc:type
           rdf:resource="http://purl.org/dc/dcmitype/StillImage" />
        <dc:title />
      </cc:Work>
    </rdf:RDF>
  </metadata>
  <g
     id="layer1"
     inkscape:label="Layer 1"
     inkscape:groupmode="layer">
    <path
       sodipodi:type="inkscape:offset"
       inkscape:radius="1.5"
       inkscape:original="M 85.875 32.71875 C 84.980955 33.441528 84.200224 34.332017 83.5625 35.4375 C 82.924725 36.543055 82.523978 37.755784 82.3125 39.03125 C 80.994157 37.330185 79.542018 35.938385 77.96875 34.875 C 76.395442 33.811688 74.902644 33.201269 73.5 33.03125 C 73.457165 33.286907 73.437485 33.757617 73.4375 34.4375 C 73.437485 37.116993 73.828175 39.59122 74.59375 41.84375 C 74.338115 42.099399 73.977594 42.458839 73.53125 42.96875 C 73.084875 43.478719 72.603676 44.099628 72.09375 44.84375 C 71.583796 45.587926 71.153096 46.379795 70.8125 47.1875 C 70.471878 47.995254 70.312488 48.744735 70.3125 49.46875 C 70.312488 50.318672 70.021498 51.310591 69.46875 52.4375 C 68.915979 53.564448 68.10551 55.107096 67 57.0625 C 65.724492 59.230733 64.762743 61.01452 64.125 62.375 C 63.487244 63.735498 63.156245 64.956987 63.15625 66.0625 C 63.156245 67.890764 63.716815 69.453092 64.84375 70.75 C 65.970672 72.046909 67.3336 72.687499 68.90625 72.6875 C 69.331838 72.687499 69.742208 72.62716 70.125 72.5 C 70.337787 72.96712 70.688467 73.358459 71.15625 73.65625 C 71.624006 73.954037 72.134726 74.093748 72.6875 74.09375 C 73.240245 74.093748 73.750964 73.954037 74.21875 73.65625 C 74.686503 73.358459 75.007231 72.96712 75.21875 72.5 L 75.28125 72.375 C 75.749651 71.43946 76.200031 70.628991 76.625 69.90625 C 77.049931 69.183512 77.52129 68.541194 78.03125 68.03125 C 78.54117 67.521314 79.311629 66.910245 80.375 66.1875 C 81.438326 65.464766 82.419755 64.933717 83.3125 64.59375 L 83.59375 64.46875 C 84.742063 64.043158 85.793671 63.562608 86.75 63.03125 C 87.706271 62.499909 88.607249 61.79898 89.5 60.90625 C 89.499968 62.607358 89.02861 64.199856 88.09375 65.6875 C 87.15883 67.175155 85.777302 68.967054 83.90625 71.09375 C 81.865166 73.431949 80.323167 75.445306 79.28125 77.125 C 78.23929 78.804682 77.71873 80.677681 77.71875 82.71875 L 77.71875 85 L 115.03125 85 C 115.28551 82.109029 115.40619 79.805113 115.40625 78.0625 C 115.40619 72.83204 114.7656 67.814704 113.46875 63.03125 C 112.17179 58.247813 110.32831 54.031538 107.96875 50.375 C 105.60909 46.718505 102.89481 43.864508 99.8125 41.78125 C 96.730111 39.698052 93.455255 38.564694 89.96875 38.4375 C 89.628758 37.203556 89.097709 36.092906 88.375 35.09375 C 87.65223 34.094667 86.810511 33.31307 85.875 32.71875 z M 86 35.84375 C 86.679892 36.566525 87.201101 37.436685 87.5625 38.5 C 87.92384 39.563381 88.09372 40.71642 88.09375 41.90625 L 88.09375 42.65625 C 88.09372 43.421838 88.48441 43.812528 89.25 43.8125 C 90.015528 43.812528 90.406218 43.421838 90.40625 42.65625 C 90.406218 41.636399 90.386537 41.00565 90.34375 40.75 C 93.320314 40.96283 96.113971 42.074129 98.75 44.09375 C 101.38595 46.113426 103.70997 48.836903 105.6875 52.28125 C 107.66493 55.725635 109.20693 59.672331 110.3125 64.09375 C 111.41797 68.515184 111.9687 73.172 111.96875 78.0625 C 111.9687 78.912394 111.95886 79.723512 111.9375 80.53125 C 111.91604 81.338971 111.86684 82.080341 111.78125 82.71875 L 80 82.71875 C 79.999978 81.101982 80.491017 79.540303 81.46875 78.03125 C 82.446436 76.522184 83.898575 74.687898 85.8125 72.5625 C 87.85353 70.265823 89.375848 68.364383 90.375 66.8125 C 91.374087 65.260626 91.874966 63.587677 91.875 61.84375 C 91.874966 60.78106 91.644316 59.738643 91.21875 58.71875 C 91.644316 57.996023 92.014676 56.994265 92.3125 55.71875 C 92.610255 54.443267 92.749965 53.361489 92.75 52.46875 C 92.749965 51.70321 92.390525 51.34377 91.625 51.34375 C 90.859408 51.34377 90.468718 51.70321 90.46875 52.46875 C 90.468718 53.531469 90.279157 54.734357 89.875 56.03125 C 89.470779 57.328174 88.79894 58.419793 87.90625 59.3125 C 86.54638 60.672352 84.734152 61.73445 82.4375 62.5 C 81.204796 63.009949 80.001908 63.660379 78.875 64.46875 C 77.748051 65.277135 76.947422 65.927565 76.4375 66.4375 C 75.757562 67.117425 75.196343 67.849604 74.75 68.59375 C 74.303624 69.337902 73.843403 70.158212 73.375 71.09375 C 73.332165 71.220911 73.271826 71.37284 73.1875 71.5 C 73.101846 71.7128 72.941807 71.8125 72.6875 71.8125 C 72.431867 71.8125 72.241875 71.7128 72.15625 71.5 L 71.96875 71.09375 C 72.308696 70.710971 72.629855 70.230421 72.90625 69.65625 C 73.182615 69.082083 73.312485 68.672144 73.3125 68.375 C 73.312485 67.609444 72.921795 67.218754 72.15625 67.21875 C 71.561955 67.218754 71.190945 67.458814 71.0625 67.96875 C 70.681005 69.584213 69.970236 70.406251 68.90625 70.40625 C 67.9707 70.406251 67.179912 69.974903 66.5 69.125 C 65.820071 68.275102 65.468743 67.253663 65.46875 66.0625 C 65.468743 65.212605 65.728482 64.220687 66.28125 63.09375 C 66.834001 61.96683 67.67572 60.464841 68.78125 58.59375 C 70.056738 56.425545 71.018487 54.663167 71.65625 53.28125 C 72.293986 51.89937 72.593735 50.615813 72.59375 49.46875 C 72.593735 49.043173 72.735175 48.584033 72.96875 48.03125 C 73.202295 47.478514 73.471875 46.906375 73.8125 46.375 C 74.153093 45.843675 74.493933 45.404216 74.8125 45 C 75.131034 44.595838 75.361252 44.295008 75.53125 44.125 C 75.616871 44.380646 75.787831 44.600376 76 44.8125 C 76.212133 45.024677 76.451543 45.156276 76.75 45.15625 C 77.51554 45.156276 77.90623 44.765586 77.90625 44 C 77.90623 43.745706 77.847188 43.545008 77.71875 43.375 C 77.54875 43.119409 77.327291 42.678869 77.09375 42.0625 C 76.860171 41.44619 76.669962 40.773702 76.5 40.09375 C 76.031563 38.477025 75.781232 37.195846 75.78125 36.21875 C 76.46245 36.601565 77.233341 37.142454 78.0625 37.84375 C 78.891619 38.545114 79.552538 39.226362 80.0625 39.90625 C 79.76404 39.99192 79.455099 40.272421 79.09375 40.71875 C 78.732359 41.165141 78.531229 41.56632 78.53125 41.90625 C 78.531229 42.671839 78.921919 43.031279 79.6875 43.03125 C 80.070258 43.031279 80.421587 42.831878 80.71875 42.40625 C 81.101507 41.939159 81.551238 41.60751 82.0625 41.4375 C 82.146817 42.16027 82.507555 42.531279 83.1875 42.53125 C 83.953034 42.531279 84.343724 42.140589 84.34375 41.375 C 84.343724 39.163992 84.894453 37.332084 86 35.84375 z M 78.78125 46.34375 C 77.421389 46.343775 76.219581 46.935595 75.15625 48.0625 C 74.092885 49.189452 73.562484 50.361091 73.5625 51.59375 C 73.562484 52.359329 73.953174 52.750019 74.71875 52.75 C 75.527112 52.750019 75.937482 52.279309 75.9375 51.34375 C 76.234623 51.51375 76.535021 51.59377 76.875 51.59375 C 77.427741 51.59377 77.88861 51.39264 78.25 51.03125 C 78.611349 50.669901 78.781229 50.240281 78.78125 49.6875 C 78.781229 49.261923 78.701209 48.931572 78.53125 48.71875 C 79.466768 48.718773 79.937478 48.307105 79.9375 47.5 C 79.937478 46.734465 79.546788 46.343775 78.78125 46.34375 z M 68.78125 63.25 C 68.18566 63.250008 67.674941 63.620369 67.25 64.34375 C 66.825041 65.067145 66.624991 65.777266 66.625 66.5 C 66.624991 67.264266 66.984431 67.656254 67.75 67.65625 C 68.514252 67.656254 68.906239 67.264266 68.90625 66.5 C 68.906239 66.158748 69.13689 65.859647 69.5625 65.5625 C 69.945268 65.222546 70.124988 64.890898 70.125 64.59375 C 70.124988 63.69974 69.673959 63.250008 68.78125 63.25 z "
       style="font-size:63.77760315px;font-style:normal;font-variant:normal;font-weight:normal;font-stretch:normal;line-height:125%;letter-spacing:0px;word-spacing:0px;fill:#4d4d4d;fill-opacity:1;stroke:none;font-family:DiagramTTHabsburg;-inkscape-font-specification:DiagramTTHabsburg"
       id="path3064-8"
       d="m 85.6875,31.21875 a 1.50015,1.50015 0 0 0 -0.75,0.34375 c -1.030453,0.833055 -1.959213,1.862527 -2.6875,3.125 -0.264931,0.459246 -0.305064,0.984767 -0.5,1.46875 -0.927025,-0.948221 -1.894263,-1.826117 -2.9375,-2.53125 -1.717357,-1.160666 -3.422795,-1.88742 -5.125,-2.09375 a 1.50015,1.50015 0 0 0 -1.65625,1.25 c -0.08005,0.477748 -0.09377,0.947406 -0.09375,1.65625 -1.4e-5,2.476256 0.398634,4.767551 1.03125,6.9375 -0.19087,0.199117 -0.322548,0.319624 -0.5625,0.59375 -0.491919,0.562002 -1.023778,1.245107 -1.5625,2.03125 -0.567811,0.828607 -1.026125,1.692305 -1.40625,2.59375 -0.404603,0.959479 -0.625016,1.93082 -0.625,2.875 -7e-6,0.507566 -0.196348,1.31117 -0.6875,2.3125 -0.535826,1.092402 -1.343755,2.596655 -2.4375,4.53125 l 0.03125,0 c -1.290727,2.194103 -2.267638,4.008501 -2.9375,5.4375 -0.69955,1.49232 -1.125006,2.907574 -1.125,4.3125 -6e-6,2.13488 0.705896,4.095033 2.0625,5.65625 1.359272,1.564307 3.207519,2.468749 5.1875,2.46875 0.230753,-10e-7 0.456876,-0.06561 0.6875,-0.09375 0.255499,0.274347 0.433839,0.611232 0.75,0.8125 0.705716,0.449279 1.538234,0.687497 2.34375,0.6875 0.8055,-3e-6 1.638033,-0.238249 2.34375,-0.6875 0.694745,-0.442303 1.212445,-1.065384 1.53125,-1.75 L 76.59375,73.125 76.625,73.03125 c 0.451336,-0.901456 0.869921,-1.675456 1.28125,-2.375 0.376096,-0.639677 0.796081,-1.171093 1.1875,-1.5625 0.399395,-0.399408 1.108131,-0.965111 2.125,-1.65625 0.990962,-0.673549 1.876072,-1.1523 2.625,-1.4375 a 1.50015,1.50015 0 0 0 0.0625,-0.03125 L 84.125,65.875 84.1875,65.84375 c 0.993857,-0.371338 1.880748,-0.796302 2.75,-1.25 -0.05378,0.0929 -0.06676,0.188567 -0.125,0.28125 -0.869432,1.38345 -2.194333,3.130853 -4.03125,5.21875 -2.075485,2.377608 -3.672907,4.46322 -4.78125,6.25 -1.1873,1.913977 -1.781272,4.078879 -1.78125,6.375 l 0,2.28125 a 1.50015,1.50015 0 0 0 1.5,1.5 l 37.3125,0 a 1.50015,1.50015 0 0 0 1.5,-1.375 c 0.25672,-2.918992 0.37494,-5.25068 0.375,-7.0625 -6e-5,-5.352922 -0.66648,-10.518781 -2,-15.4375 -1.33265,-4.91506 -3.2361,-9.263636 -5.6875,-13.0625 -2.451,-3.79804 -5.29209,-6.820857 -8.5625,-9.03125 -3.00133,-2.028415 -6.266139,-3.108232 -9.6875,-3.40625 -0.375131,-1.021645 -0.744707,-2.03486 -1.375,-2.90625 -0.829173,-1.146163 -1.812051,-2.086117 -2.90625,-2.78125 a 1.50015,1.50015 0 0 0 -1,-0.21875 z M 86.15625,39 c 0.294904,0.87915 0.437474,1.87007 0.4375,2.90625 l 0,0.75 c -2.5e-5,0.637961 0.175418,1.394168 0.71875,1.9375 0.543332,0.543332 1.29954,0.718773 1.9375,0.71875 0.63795,2.3e-5 1.394197,-0.175447 1.9375,-0.71875 0.543303,-0.543303 0.718723,-1.29956 0.71875,-1.9375 0,-0.01503 -5e-6,-0.01643 0,-0.03125 2.044161,0.418291 4.018424,1.18593 5.9375,2.65625 2.45706,1.882608 4.63639,4.449639 6.53125,7.75 1.89874,3.307318 3.39185,7.130719 4.46875,11.4375 1.07379,4.294723 1.62495,8.815852 1.625,13.59375 -5e-5,0.838372 -0.0103,1.64412 -0.0312,2.4375 -0.007,0.273107 -0.0484,0.467301 -0.0625,0.71875 l -28.65625,0 c 0.188776,-0.786742 0.481784,-1.575175 1,-2.375 0.910749,-1.405749 2.339534,-3.194396 4.21875,-5.28125 2.068094,-2.327131 3.614833,-4.271433 4.6875,-5.9375 1.141169,-1.772569 1.74996,-3.750128 1.75,-5.78125 -3.3e-5,-1.040368 -0.291655,-2.023074 -0.625,-3 0.399878,-0.812212 0.7697,-1.661091 1.03125,-2.78125 0.316825,-1.357172 0.468709,-2.544563 0.46875,-3.59375 -2.8e-5,-0.617522 -0.16855,-1.35605 -0.71875,-1.90625 -0.5502,-0.5502 -1.288727,-0.718734 -1.90625,-0.71875 -0.617536,1.6e-5 -1.348593,0.152374 -1.90625,0.6875 -0.557657,0.535126 -0.750027,1.299547 -0.75,1.9375 -2.7e-5,0.884379 -0.16584,1.952442 -0.53125,3.125 -0.334875,1.074432 -0.867306,1.929792 -1.59375,2.65625 -1.164846,1.16483 -2.748625,2.103709 -4.875,2.8125 A 1.50015,1.50015 0 0 0 81.875,61.125 c -1.330517,0.550413 -2.646952,1.244078 -3.875,2.125 -1.163188,0.83438 -2.010928,1.510912 -2.625,2.125 -0.453542,0.453533 -0.762847,0.95064 -1.125,1.4375 -0.08051,-0.119922 -0.04953,-0.268279 -0.15625,-0.375 -0.543297,-0.543297 -1.299558,-0.718747 -1.9375,-0.71875 -0.328794,2e-6 -0.683483,0.154134 -1.03125,0.28125 0.28265,-0.401621 0.499977,-0.844858 0.5,-1.40625 -9e-6,-0.699252 -0.204686,-1.486353 -0.78125,-2.0625 -0.576564,-0.576147 -1.364256,-0.781244 -2.0625,-0.78125 -0.02409,0 -0.03856,0.03059 -0.0625,0.03125 0.435465,-0.78926 0.737768,-1.411886 1.34375,-2.4375 1.288518,-2.190356 2.293889,-3.975199 2.96875,-5.4375 0.04015,-0.08699 0.02457,-0.163324 0.0625,-0.25 0.502907,0.361492 1.090915,0.593763 1.625,0.59375 0.695337,1.6e-5 1.504866,-0.268536 2.03125,-0.875 0.07277,-0.08384 0.03487,-0.192678 0.09375,-0.28125 0.01,9.7e-5 0.02127,10e-7 0.03125,0 0.916649,3.3e-5 1.822003,-0.384503 2.4375,-1 0.615485,-0.615485 0.968717,-1.54618 0.96875,-2.40625 -10e-7,-0.02124 -0.03105,-0.04114 -0.03125,-0.0625 0.09783,-0.06334 0.220368,-0.01372 0.3125,-0.09375 0.605936,-0.526345 0.874981,-1.336101 0.875,-2.03125 -1.8e-5,-0.637935 -0.175466,-1.394216 -0.71875,-1.9375 -0.465388,-0.465388 -1.089007,-0.576051 -1.65625,-0.625 0.06317,-0.191875 0.16455,-0.370955 0.1875,-0.5625 0.149851,0.01924 0.295926,0.156255 0.4375,0.15625 0.798461,6e-5 1.525248,-0.476612 2.03125,-1.0625 0.460811,0.304124 0.981714,0.562521 1.46875,0.5625 0.637951,2.4e-5 1.394193,-0.175443 1.9375,-0.71875 0.543307,-0.543307 0.718728,-1.299558 0.71875,-1.9375 -1.1e-5,-0.898114 0.121062,-1.66155 0.3125,-2.375 z M 69.1875,68.625 c -0.02229,0.03279 -0.04425,0.166747 -0.0625,0.1875 -0.118085,0.134252 -0.07306,0.09375 -0.21875,0.09375 -0.06887,0 -0.12561,-0.08766 -0.1875,-0.09375 0.163058,-0.05577 0.315798,-0.097 0.46875,-0.1875 z m 2.65625,2.25 a 1.50015,1.50015 0 0 0 -0.0625,0.0625 c 0.0066,-0.01633 0.05212,-0.04264 0.0625,-0.0625 z"
       transform="translate(-55.28125,-24.705009)" />
    <path
       sodipodi:type="inkscape:offset"
       inkscape:radius="1.5"
       inkscape:original="M 85.875 32.71875 C 84.980955 33.441528 84.200224 34.332017 83.5625 35.4375 C 82.924725 36.543055 82.523978 37.755784 82.3125 39.03125 C 80.994157 37.330185 79.542018 35.938385 77.96875 34.875 C 76.395442 33.811688 74.902644 33.201269 73.5 33.03125 C 73.457165 33.286907 73.437485 33.757617 73.4375 34.4375 C 73.437485 37.116993 73.828175 39.59122 74.59375 41.84375 C 74.338115 42.099399 73.977594 42.458839 73.53125 42.96875 C 73.084875 43.478719 72.603676 44.099628 72.09375 44.84375 C 71.583796 45.587926 71.153096 46.379795 70.8125 47.1875 C 70.471878 47.995254 70.312488 48.744735 70.3125 49.46875 C 70.312488 50.318672 70.021498 51.310591 69.46875 52.4375 C 68.915979 53.564448 68.10551 55.107096 67 57.0625 C 65.724492 59.230733 64.762743 61.01452 64.125 62.375 C 63.487244 63.735498 63.156245 64.956987 63.15625 66.0625 C 63.156245 67.890764 63.716815 69.453092 64.84375 70.75 C 65.970672 72.046909 67.3336 72.687499 68.90625 72.6875 C 69.331838 72.687499 69.742208 72.62716 70.125 72.5 C 70.337787 72.96712 70.688467 73.358459 71.15625 73.65625 C 71.624006 73.954037 72.134726 74.093748 72.6875 74.09375 C 73.240245 74.093748 73.750964 73.954037 74.21875 73.65625 C 74.686503 73.358459 75.007231 72.96712 75.21875 72.5 L 75.28125 72.375 C 75.749651 71.43946 76.200031 70.628991 76.625 69.90625 C 77.049931 69.183512 77.52129 68.541194 78.03125 68.03125 C 78.54117 67.521314 79.311629 66.910245 80.375 66.1875 C 81.438326 65.464766 82.419755 64.933717 83.3125 64.59375 L 83.59375 64.46875 C 84.742063 64.043158 85.793671 63.562608 86.75 63.03125 C 87.706271 62.499909 88.607249 61.79898 89.5 60.90625 C 89.499968 62.607358 89.02861 64.199856 88.09375 65.6875 C 87.15883 67.175155 85.777302 68.967054 83.90625 71.09375 C 81.865166 73.431949 80.323167 75.445306 79.28125 77.125 C 78.23929 78.804682 77.71873 80.677681 77.71875 82.71875 L 77.71875 85 L 115.03125 85 C 115.28551 82.109029 115.40619 79.805113 115.40625 78.0625 C 115.40619 72.83204 114.7656 67.814704 113.46875 63.03125 C 112.17179 58.247813 110.32831 54.031538 107.96875 50.375 C 105.60909 46.718505 102.89481 43.864508 99.8125 41.78125 C 96.730111 39.698052 93.455255 38.564694 89.96875 38.4375 C 89.628758 37.203556 89.097709 36.092906 88.375 35.09375 C 87.65223 34.094667 86.810511 33.31307 85.875 32.71875 z M 86 35.84375 C 86.679892 36.566525 87.201101 37.436685 87.5625 38.5 C 87.92384 39.563381 88.09372 40.71642 88.09375 41.90625 L 88.09375 42.65625 C 88.09372 43.421838 88.48441 43.812528 89.25 43.8125 C 90.015528 43.812528 90.406218 43.421838 90.40625 42.65625 C 90.406218 41.636399 90.386537 41.00565 90.34375 40.75 C 93.320314 40.96283 96.113971 42.074129 98.75 44.09375 C 101.38595 46.113426 103.70997 48.836903 105.6875 52.28125 C 107.66493 55.725635 109.20693 59.672331 110.3125 64.09375 C 111.41797 68.515184 111.9687 73.172 111.96875 78.0625 C 111.9687 78.912394 111.95886 79.723512 111.9375 80.53125 C 111.91604 81.338971 111.86684 82.080341 111.78125 82.71875 L 80 82.71875 C 79.999978 81.101982 80.491017 79.540303 81.46875 78.03125 C 82.446436 76.522184 83.898575 74.687898 85.8125 72.5625 C 87.85353 70.265823 89.375848 68.364383 90.375 66.8125 C 91.374087 65.260626 91.874966 63.587677 91.875 61.84375 C 91.874966 60.78106 91.644316 59.738643 91.21875 58.71875 C 91.644316 57.996023 92.014676 56.994265 92.3125 55.71875 C 92.610255 54.443267 92.749965 53.361489 92.75 52.46875 C 92.749965 51.70321 92.390525 51.34377 91.625 51.34375 C 90.859408 51.34377 90.468718 51.70321 90.46875 52.46875 C 90.468718 53.531469 90.279157 54.734357 89.875 56.03125 C 89.470779 57.328174 88.79894 58.419793 87.90625 59.3125 C 86.54638 60.672352 84.734152 61.73445 82.4375 62.5 C 81.204796 63.009949 80.001908 63.660379 78.875 64.46875 C 77.748051 65.277135 76.947422 65.927565 76.4375 66.4375 C 75.757562 67.117425 75.196343 67.849604 74.75 68.59375 C 74.303624 69.337902 73.843403 70.158212 73.375 71.09375 C 73.332165 71.220911 73.271826 71.37284 73.1875 71.5 C 73.101846 71.7128 72.941807 71.8125 72.6875 71.8125 C 72.431867 71.8125 72.241875 71.7128 72.15625 71.5 L 71.96875 71.09375 C 72.308696 70.710971 72.629855 70.230421 72.90625 69.65625 C 73.182615 69.082083 73.312485 68.672144 73.3125 68.375 C 73.312485 67.609444 72.921795 67.218754 72.15625 67.21875 C 71.561955 67.218754 71.190945 67.458814 71.0625 67.96875 C 70.681005 69.584213 69.970236 70.406251 68.90625 70.40625 C 67.9707 70.406251 67.179912 69.974903 66.5 69.125 C 65.820071 68.275102 65.468743 67.253663 65.46875 66.0625 C 65.468743 65.212605 65.728482 64.220687 66.28125 63.09375 C 66.834001 61.96683 67.67572 60.464841 68.78125 58.59375 C 70.056738 56.425545 71.018487 54.663167 71.65625 53.28125 C 72.293986 51.89937 72.593735 50.615813 72.59375 49.46875 C 72.593735 49.043173 72.735175 48.584033 72.96875 48.03125 C 73.202295 47.478514 73.471875 46.906375 73.8125 46.375 C 74.153093 45.843675 74.493933 45.404216 74.8125 45 C 75.131034 44.595838 75.361252 44.295008 75.53125 44.125 C 75.616871 44.380646 75.787831 44.600376 76 44.8125 C 76.212133 45.024677 76.451543 45.156276 76.75 45.15625 C 77.51554 45.156276 77.90623 44.765586 77.90625 44 C 77.90623 43.745706 77.847188 43.545008 77.71875 43.375 C 77.54875 43.119409 77.327291 42.678869 77.09375 42.0625 C 76.860171 41.44619 76.669962 40.773702 76.5 40.09375 C 76.031563 38.477025 75.781232 37.195846 75.78125 36.21875 C 76.46245 36.601565 77.233341 37.142454 78.0625 37.84375 C 78.891619 38.545114 79.552538 39.226362 80.0625 39.90625 C 79.76404 39.99192 79.455099 40.272421 79.09375 40.71875 C 78.732359 41.165141 78.531229 41.56632 78.53125 41.90625 C 78.531229 42.671839 78.921919 43.031279 79.6875 43.03125 C 80.070258 43.031279 80.421587 42.831878 80.71875 42.40625 C 81.101507 41.939159 81.551238 41.60751 82.0625 41.4375 C 82.146817 42.16027 82.507555 42.531279 83.1875 42.53125 C 83.953034 42.531279 84.343724 42.140589 84.34375 41.375 C 84.343724 39.163992 84.894453 37.332084 86 35.84375 z M 78.78125 46.34375 C 77.421389 46.343775 76.219581 46.935595 75.15625 48.0625 C 74.092885 49.189452 73.562484 50.361091 73.5625 51.59375 C 73.562484 52.359329 73.953174 52.750019 74.71875 52.75 C 75.527112 52.750019 75.937482 52.279309 75.9375 51.34375 C 76.234623 51.51375 76.535021 51.59377 76.875 51.59375 C 77.427741 51.59377 77.88861 51.39264 78.25 51.03125 C 78.611349 50.669901 78.781229 50.240281 78.78125 49.6875 C 78.781229 49.261923 78.701209 48.931572 78.53125 48.71875 C 79.466768 48.718773 79.937478 48.307105 79.9375 47.5 C 79.937478 46.734465 79.546788 46.343775 78.78125 46.34375 z M 68.78125 63.25 C 68.18566 63.250008 67.674941 63.620369 67.25 64.34375 C 66.825041 65.067145 66.624991 65.777266 66.625 66.5 C 66.624991 67.264266 66.984431 67.656254 67.75 67.65625 C 68.514252 67.656254 68.906239 67.264266 68.90625 66.5 C 68.906239 66.158748 69.13689 65.859647 69.5625 65.5625 C 69.945268 65.222546 70.124988 64.890898 70.125 64.59375 C 70.124988 63.69974 69.673959 63.250008 68.78125 63.25 z "
       style="font-size:63.77760315px;font-style:normal;font-variant:normal;font-weight:normal;font-stretch:normal;line-height:125%;letter-spacing:0px;word-spacing:0px;fill:#ffffff;fill-opacity:1;stroke:none;font-family:DiagramTTHabsburg;-inkscape-font-specification:DiagramTTHabsburg"
       id="path3064"
       d="m 85.6875,31.21875 a 1.50015,1.50015 0 0 0 -0.75,0.34375 c -1.030453,0.833055 -1.959213,1.862527 -2.6875,3.125 -0.264931,0.459246 -0.305064,0.984767 -0.5,1.46875 -0.927025,-0.948221 -1.894263,-1.826117 -2.9375,-2.53125 -1.717357,-1.160666 -3.422795,-1.88742 -5.125,-2.09375 a 1.50015,1.50015 0 0 0 -1.65625,1.25 c -0.08005,0.477748 -0.09377,0.947406 -0.09375,1.65625 -1.4e-5,2.476256 0.398634,4.767551 1.03125,6.9375 -0.19087,0.199117 -0.322548,0.319624 -0.5625,0.59375 -0.491919,0.562002 -1.023778,1.245107 -1.5625,2.03125 -0.567811,0.828607 -1.026125,1.692305 -1.40625,2.59375 -0.404603,0.959479 -0.625016,1.93082 -0.625,2.875 -7e-6,0.507566 -0.196348,1.31117 -0.6875,2.3125 -0.535826,1.092402 -1.343755,2.596655 -2.4375,4.53125 l 0.03125,0 c -1.290727,2.194103 -2.267638,4.008501 -2.9375,5.4375 -0.69955,1.49232 -1.125006,2.907574 -1.125,4.3125 -6e-6,2.13488 0.705896,4.095033 2.0625,5.65625 1.359272,1.564307 3.207519,2.468749 5.1875,2.46875 0.230753,-10e-7 0.456876,-0.06561 0.6875,-0.09375 0.255499,0.274347 0.433839,0.611232 0.75,0.8125 0.705716,0.449279 1.538234,0.687497 2.34375,0.6875 0.8055,-3e-6 1.638033,-0.238249 2.34375,-0.6875 0.694745,-0.442303 1.212445,-1.065384 1.53125,-1.75 L 76.59375,73.125 76.625,73.03125 c 0.451336,-0.901456 0.869921,-1.675456 1.28125,-2.375 0.376096,-0.639677 0.796081,-1.171093 1.1875,-1.5625 0.399395,-0.399408 1.108131,-0.965111 2.125,-1.65625 0.990962,-0.673549 1.876072,-1.1523 2.625,-1.4375 a 1.50015,1.50015 0 0 0 0.0625,-0.03125 L 84.125,65.875 84.1875,65.84375 c 0.993857,-0.371338 1.880748,-0.796302 2.75,-1.25 -0.05378,0.0929 -0.06676,0.188567 -0.125,0.28125 -0.869432,1.38345 -2.194333,3.130853 -4.03125,5.21875 -2.075485,2.377608 -3.672907,4.46322 -4.78125,6.25 -1.1873,1.913977 -1.781272,4.078879 -1.78125,6.375 l 0,2.28125 a 1.50015,1.50015 0 0 0 1.5,1.5 l 37.3125,0 a 1.50015,1.50015 0 0 0 1.5,-1.375 c 0.25672,-2.918992 0.37494,-5.25068 0.375,-7.0625 -6e-5,-5.352922 -0.66648,-10.518781 -2,-15.4375 -1.33265,-4.91506 -3.2361,-9.263636 -5.6875,-13.0625 -2.451,-3.79804 -5.29209,-6.820857 -8.5625,-9.03125 -3.00133,-2.028415 -6.266139,-3.108232 -9.6875,-3.40625 -0.375131,-1.021645 -0.744707,-2.03486 -1.375,-2.90625 -0.829173,-1.146163 -1.812051,-2.086117 -2.90625,-2.78125 a 1.50015,1.50015 0 0 0 -1,-0.21875 z M 86.15625,39 c 0.294904,0.87915 0.437474,1.87007 0.4375,2.90625 l 0,0.75 c -2.5e-5,0.637961 0.175418,1.394168 0.71875,1.9375 0.543332,0.543332 1.29954,0.718773 1.9375,0.71875 0.63795,2.3e-5 1.394197,-0.175447 1.9375,-0.71875 0.543303,-0.543303 0.718723,-1.29956 0.71875,-1.9375 0,-0.01503 -5e-6,-0.01643 0,-0.03125 2.044161,0.418291 4.018424,1.18593 5.9375,2.65625 2.45706,1.882608 4.63639,4.449639 6.53125,7.75 1.89874,3.307318 3.39185,7.130719 4.46875,11.4375 1.07379,4.294723 1.62495,8.815852 1.625,13.59375 -5e-5,0.838372 -0.0103,1.64412 -0.0312,2.4375 -0.007,0.273107 -0.0484,0.467301 -0.0625,0.71875 l -28.65625,0 c 0.188776,-0.786742 0.481784,-1.575175 1,-2.375 0.910749,-1.405749 2.339534,-3.194396 4.21875,-5.28125 2.068094,-2.327131 3.614833,-4.271433 4.6875,-5.9375 1.141169,-1.772569 1.74996,-3.750128 1.75,-5.78125 -3.3e-5,-1.040368 -0.291655,-2.023074 -0.625,-3 0.399878,-0.812212 0.7697,-1.661091 1.03125,-2.78125 0.316825,-1.357172 0.468709,-2.544563 0.46875,-3.59375 -2.8e-5,-0.617522 -0.16855,-1.35605 -0.71875,-1.90625 -0.5502,-0.5502 -1.288727,-0.718734 -1.90625,-0.71875 -0.617536,1.6e-5 -1.348593,0.152374 -1.90625,0.6875 -0.557657,0.535126 -0.750027,1.299547 -0.75,1.9375 -2.7e-5,0.884379 -0.16584,1.952442 -0.53125,3.125 -0.334875,1.074432 -0.867306,1.929792 -1.59375,2.65625 -1.164846,1.16483 -2.748625,2.103709 -4.875,2.8125 A 1.50015,1.50015 0 0 0 81.875,61.125 c -1.330517,0.550413 -2.646952,1.244078 -3.875,2.125 -1.163188,0.83438 -2.010928,1.510912 -2.625,2.125 -0.453542,0.453533 -0.762847,0.95064 -1.125,1.4375 -0.08051,-0.119922 -0.04953,-0.268279 -0.15625,-0.375 -0.543297,-0.543297 -1.299558,-0.718747 -1.9375,-0.71875 -0.328794,2e-6 -0.683483,0.154134 -1.03125,0.28125 0.28265,-0.401621 0.499977,-0.844858 0.5,-1.40625 -9e-6,-0.699252 -0.204686,-1.486353 -0.78125,-2.0625 -0.576564,-0.576147 -1.364256,-0.781244 -2.0625,-0.78125 -0.02409,0 -0.03856,0.03059 -0.0625,0.03125 0.435465,-0.78926 0.737768,-1.411886 1.34375,-2.4375 1.288518,-2.190356 2.293889,-3.975199 2.96875,-5.4375 0.04015,-0.08699 0.02457,-0.163324 0.0625,-0.25 0.502907,0.361492 1.090915,0.593763 1.625,0.59375 0.695337,1.6e-5 1.504866,-0.268536 2.03125,-0.875 0.07277,-0.08384 0.03487,-0.192678 0.09375,-0.28125 0.01,9.7e-5 0.02127,10e-7 0.03125,0 0.916649,3.3e-5 1.822003,-0.384503 2.4375,-1 0.615485,-0.615485 0.968717,-1.54618 0.96875,-2.40625 -10e-7,-0.02124 -0.03105,-0.04114 -0.03125,-0.0625 0.09783,-0.06334 0.220368,-0.01372 0.3125,-0.09375 0.605936,-0.526345 0.874981,-1.336101 0.875,-2.03125 -1.8e-5,-0.637935 -0.175466,-1.394216 -0.71875,-1.9375 -0.465388,-0.465388 -1.089007,-0.576051 -1.65625,-0.625 0.06317,-0.191875 0.16455,-0.370955 0.1875,-0.5625 0.149851,0.01924 0.295926,0.156255 0.4375,0.15625 0.798461,6e-5 1.525248,-0.476612 2.03125,-1.0625 0.460811,0.304124 0.981714,0.562521 1.46875,0.5625 0.637951,2.4e-5 1.394193,-0.175443 1.9375,-0.71875 0.543307,-0.543307 0.718728,-1.299558 0.71875,-1.9375 -1.1e-5,-0.898114 0.121062,-1.66155 0.3125,-2.375 z M 69.1875,68.625 c -0.02229,0.03279 -0.04425,0.166747 -0.0625,0.1875 -0.118085,0.134252 -0.07306,0.09375 -0.21875,0.09375 -0.06887,0 -0.12561,-0.08766 -0.1875,-0.09375 0.163058,-0.05577 0.315798,-0.097 0.46875,-0.1875 z m 2.65625,2.25 a 1.50015,1.50015 0 0 0 -0.0625,0.0625 c 0.0066,-0.01633 0.05212,-0.04264 0.0625,-0.0625 z"
       transform="translate(-57.28125,-26.704566)" />
    <g
       id="g3058">
      <path
         inkscape:connector-curvature="0"
         id="path2984"
         d="m 28.591281,8.8751863 c -0.839672,0.6659051 -1.1048,1.8545707 -1.50145,2.8140677 -0.410614,1.175683 -0.19247,2.521516 -0.677034,3.638484 -0.533218,0.250016 -1.225297,-0.0184 -1.358675,-0.626373 -0.721046,-0.577333 -1.508126,0.398148 -2.012679,0.865867 -0.390708,0.681458 -1.70323,0.355743 -1.344858,-0.506624 0.173552,-0.849235 1.07289,-1.234961 1.464605,-1.929778 C 22.637661,12.142041 21.58958,11.475866 20.782521,10.696146 20.070513,10.238285 19.45166,9.3129877 18.546304,9.3219369 17.729598,9.872168 18.378003,11.03368 18.436667,11.809833 c 0.383641,1.868693 1.093957,3.685059 1.749257,5.443077 0.209683,0.831042 -1.13102,1.018007 -1.440167,0.320517 -0.672803,-1.117095 -1.359338,0.303155 -1.7792,0.853929 -1.232046,1.568511 -2.053032,3.464269 -2.155456,5.457726 -0.70876,3.288597 -2.768496,6.070184 -4.309767,9.012639 -1.182372,2.317172 -3.0712715,4.670104 -2.5941406,7.438833 0.27643,2.012866 2.1249206,4.139935 4.3155176,3.633878 1.29253,-0.354769 1.593144,-1.795939 2.100188,-2.827884 0.431055,-0.434998 1.509076,-0.145898 1.303406,0.589525 -0.180366,1.052273 -0.915239,1.905328 -1.317223,2.832491 0.254201,0.750655 1.385321,1.257209 1.856087,0.423722 1.099176,-1.946084 2.102376,-4.037941 3.88719,-5.494571 2.250207,-2.075054 5.122837,-3.271152 7.884916,-4.499744 2.464259,-1.254352 4.58017,-3.428098 5.149145,-6.20845 0.430701,-1.174769 0.233024,-2.53332 0.773754,-3.652301 0.565194,-0.344214 1.472022,0.144344 1.225109,0.875079 -0.07482,2.052926 -0.692253,4.011958 -1.386308,5.927503 0.02077,1.019024 0.54952,1.937408 0.474384,2.979873 0.232248,3.648208 -2.464829,6.539713 -4.597378,9.152054 -2.408113,2.943926 -5.28945,5.654042 -6.760217,9.238407 -0.320124,0.949668 -0.567917,2.038162 -0.262524,3.007506 1.625495,0.280674 3.351566,0.03909 5.015582,0.119747 8.930404,0 17.860808,0 26.791212,0 0.83433,-0.368358 0.483247,-1.560895 0.60795,-2.302838 0.09599,-4.921087 -0.04097,-9.877591 -1.123785,-14.696709 -1.572341,-7.481804 -4.552272,-14.962096 -10.026556,-20.45841 -2.835469,-2.841572 -6.553876,-4.93448 -10.597658,-5.296526 -0.882131,0.220432 -0.323774,1.400085 -0.492808,2.072554 0.03788,0.496675 -0.189134,1.069809 -0.796781,0.916529 -0.896231,0.06825 -0.656876,-1.068336 -0.712552,-1.620986 -0.148885,-2.175505 -0.676849,-4.524561 -2.244292,-6.1257599 -0.114947,-0.091508 -0.252122,-0.04994 -0.382271,-0.046057 z M 21.558415,20.039343 c 0.759868,-0.03073 1.044934,1.314244 0.230284,1.50145 -1.101835,0.179206 -0.538666,1.417257 -0.787571,2.104794 -0.327433,0.554949 -0.861539,0.924484 -1.529084,0.759936 -0.704604,-0.148783 -1.285475,0.306592 -1.413943,0.985615 -0.414116,0.657309 -1.711679,0.03381 -1.371642,-0.740783 0.245779,-2.36513 2.447664,-4.574153 4.871956,-4.611012 z M 11.545677,36.969805 c 0.730262,-0.104307 1.143109,0.805164 0.667823,1.32183 -0.48367,0.559709 -1.009776,1.130562 -1.050094,1.902143 -0.286929,0.653816 -1.6893669,0.392777 -1.4231538,-0.423722 0.1144582,-1.010291 0.4377458,-2.318697 1.4599988,-2.754193 0.113007,-0.02209 0.229074,-0.04053 0.345426,-0.04606 z"
         style="fill:#ffffff;fill-opacity:1;fill-rule:nonzero;stroke:none" />
      <g
         id="g3054">
        <text
           xml:space="preserve"
           style="font-size:63.77760315px;font-style:normal;font-variant:normal;font-weight:normal;font-stretch:normal;line-height:125%;letter-spacing:0px;word-spacing:0px;fill:#000000;fill-opacity:1;stroke:none;font-family:DiagramTTHabsburg;-inkscape-font-specification:DiagramTTHabsburg"
           x="0.71748269"
           y="44.884247"
           id="text5399"
           sodipodi:linespacing="125%"><tspan
             sodipodi:role="line"
             id="tspan5401"
             x="0.71748269"
             y="44.884247">N</tspan></text>
      </g>
    </g>
  </g>
</svg>
