<?xml version="1.0" encoding="UTF-8" standalone="no"?>
<!-- Created with Inkscape (http://www.inkscape.org/) -->

<svg
   xmlns:dc="http://purl.org/dc/elements/1.1/"
   xmlns:cc="http://creativecommons.org/ns#"
   xmlns:rdf="http://www.w3.org/1999/02/22-rdf-syntax-ns#"
   xmlns:svg="http://www.w3.org/2000/svg"
   xmlns="http://www.w3.org/2000/svg"
   xmlns:sodipodi="http://sodipodi.sourceforge.net/DTD/sodipodi-0.dtd"
   xmlns:inkscape="http://www.inkscape.org/namespaces/inkscape"
   width="64px"
   height="64px"
   id="svg2985"
   version="1.1"
   inkscape:version="0.48.2 r9819"
   sodipodi:docname="wq.svg">
  <defs
     id="defs2987" />
  <sodipodi:namedview
     id="base"
     pagecolor="#668f79"
     bordercolor="#666666"
     borderopacity="1.0"
     inkscape:pageopacity="0"
     inkscape:pageshadow="2"
     inkscape:zoom="8.2522077"
     inkscape:cx="21.714228"
     inkscape:cy="32.441292"
     inkscape:current-layer="layer1"
     showgrid="true"
     inkscape:document-units="px"
     inkscape:grid-bbox="true"
     inkscape:window-width="1408"
     inkscape:window-height="878"
     inkscape:window-x="24"
     inkscape:window-y="-8"
     inkscape:window-maximized="1" />
  <metadata
     id="metadata2990">
    <rdf:RDF>
      <cc:Work
         rdf:about="">
        <dc:format>image/svg+xml</dc:format>
        <dc:type
           rdf:resource="http://purl.org/dc/dcmitype/StillImage" />
        <dc:title />
      </cc:Work>
    </rdf:RDF>
  </metadata>
  <g
     id="layer1"
     inkscape:label="Layer 1"
     inkscape:groupmode="layer">
    <path
       sodipodi:type="inkscape:offset"
       inkscape:radius="1.5"
       inkscape:original="M 58.625 -9.375 C 57.562269 -9.3749611 56.65037 -8.9934626 55.90625 -8.25 C 55.162072 -7.5064618 54.781222 -6.595212 54.78125 -5.53125 C 54.781222 -4.6384955 55.082052 -3.8575471 55.65625 -3.15625 C 56.23039 -2.4548876 56.950999 -1.9940181 57.84375 -1.78125 L 54.09375 16.71875 L 47.71875 -0.25 C 48.441468 -0.54711085 49.032208 -1.0283096 49.5 -1.6875 C 49.967747 -2.3466279 50.187477 -3.0469078 50.1875 -3.8125 C 50.187477 -4.8751661 49.806627 -5.7870648 49.0625 -6.53125 C 48.318328 -7.2753631 47.43768 -7.6562128 46.375 -7.65625 C 45.310983 -7.6562128 44.400382 -7.2753631 43.65625 -6.53125 C 42.912084 -5.7870648 42.531234 -4.8751661 42.53125 -3.8125 C 42.531234 -2.791289 42.901595 -1.9003684 43.625 -1.15625 C 44.348371 -0.41207015 45.2301 -0.041492306 46.25 0 L 45.40625 20.03125 L 37.0625 4.59375 C 38.380808 3.8282161 39.031238 2.7070766 39.03125 1.21875 C 39.031238 0.15607884 38.650388 -0.75581983 37.90625 -1.5 C 37.16209 -2.2441181 36.281441 -2.5937179 35.21875 -2.59375 C 34.156042 -2.5937179 33.244143 -2.2441181 32.5 -1.5 C 31.755845 -0.75581983 31.374995 0.15607884 31.375 1.21875 C 31.374995 2.2814778 31.755845 3.1933765 32.5 3.9375 C 33.244143 4.6816748 34.156042 5.0625245 35.21875 5.0625 C 35.47436 5.0625245 35.65408 5.0428439 35.78125 5 L 38.59375 23.75 L 41.4375 27.8125 L 42.78125 33.375 L 40.375 39.9375 C 43.138784 40.915848 46.12373 41.646297 49.3125 42.15625 C 52.501225 42.666177 55.605552 42.937487 58.625 42.9375 C 61.644384 42.937487 64.748712 42.666177 67.9375 42.15625 C 71.126206 41.646297 74.079903 40.915848 76.84375 39.9375 L 74.4375 33.375 L 75.78125 27.8125 L 78.625 23.8125 L 81.4375 5 C 81.564606 5.0428439 81.775576 5.0625245 82.03125 5.0625 C 83.093894 5.0625245 83.974543 4.6816748 84.71875 3.9375 C 85.462841 3.1933765 85.843691 2.2814778 85.84375 1.21875 C 85.843691 0.15607884 85.462841 -0.75581983 84.71875 -1.5 C 83.974543 -2.2441181 83.093894 -2.5937179 82.03125 -2.59375 C 80.968495 -2.5937179 80.056597 -2.2441181 79.3125 -1.5 C 78.568298 -0.75581983 78.187449 0.15607884 78.1875 1.21875 C 78.187449 2.7070766 78.837878 3.8282161 80.15625 4.59375 L 71.8125 20.03125 L 70.96875 0 C 71.988586 -0.041492306 72.870315 -0.41207015 73.59375 -1.15625 C 74.317091 -1.9003684 74.687452 -2.791289 74.6875 -3.8125 C 74.687452 -4.8751661 74.306602 -5.7870648 73.5625 -6.53125 C 72.818304 -7.2753631 71.907703 -7.6562128 70.84375 -7.65625 C 69.781006 -7.6562128 68.900358 -7.2753631 68.15625 -6.53125 C 67.412059 -5.7870648 67.03121 -4.8751661 67.03125 -3.8125 C 67.03121 -3.0040884 67.25094 -2.284128 67.71875 -1.625 C 68.186478 -0.96580971 68.777218 -0.50429146 69.5 -0.25 L 63.125 16.71875 L 59.375 -1.78125 C 60.267687 -1.9940181 60.988296 -2.4548876 61.5625 -3.15625 C 62.136634 -3.8575471 62.437464 -4.6384955 62.4375 -5.53125 C 62.437464 -6.595212 62.056615 -7.5064618 61.3125 -8.25 C 60.568316 -8.9934626 59.687668 -9.3749611 58.625 -9.375 z M 58.625 -7.0625 C 59.050567 -7.0624634 59.390326 -6.9227533 59.6875 -6.625 C 59.984608 -6.3271744 60.124967 -5.9568137 60.125 -5.53125 C 60.124967 -5.1069137 59.984608 -4.7352554 59.6875 -4.4375 C 59.390326 -4.1396766 59.050567 -3.9999665 58.625 -4 C 58.199369 -3.9999665 57.82836 -4.1396766 57.53125 -4.4375 C 57.234079 -4.7352554 57.09372 -5.1069137 57.09375 -5.53125 C 57.09372 -5.9568137 57.234079 -6.3271744 57.53125 -6.625 C 57.82836 -6.9227533 58.199369 -7.0624634 58.625 -7.0625 z M 46.375 -5.34375 C 46.799282 -5.3437151 47.13969 -5.204005 47.4375 -4.90625 C 47.735269 -4.6084261 47.906229 -4.2367679 47.90625 -3.8125 C 47.906229 -3.3868678 47.735269 -3.0165071 47.4375 -2.71875 C 47.13969 -2.4209283 46.799282 -2.2812182 46.375 -2.28125 C 45.949382 -2.2812182 45.579021 -2.4209283 45.28125 -2.71875 C 44.983442 -3.0165071 44.843732 -3.3868678 44.84375 -3.8125 C 44.843732 -4.2367679 44.983442 -4.6084261 45.28125 -4.90625 C 45.579021 -5.204005 45.949382 -5.3437151 46.375 -5.34375 z M 70.84375 -5.34375 C 71.269305 -5.3437151 71.639665 -5.204005 71.9375 -4.90625 C 72.235244 -4.6084261 72.374954 -4.2367679 72.375 -3.8125 C 72.374954 -3.3868678 72.235244 -3.0165071 71.9375 -2.71875 C 71.639665 -2.4209283 71.269305 -2.2812182 70.84375 -2.28125 C 70.419405 -2.2812182 70.078996 -2.4209283 69.78125 -2.71875 C 69.483418 -3.0165071 69.312457 -3.3868678 69.3125 -3.8125 C 69.312457 -4.2367679 69.483418 -4.6084261 69.78125 -4.90625 C 70.078996 -5.204005 70.419405 -5.3437151 70.84375 -5.34375 z M 35.21875 -0.3125 C 35.64434 -0.31247015 35.983451 -0.17211123 36.28125 0.125 C 36.57903 0.42217004 36.74999 0.7931795 36.75 1.21875 C 36.74999 1.6443771 36.58887 2.0153866 36.3125 2.3125 C 36.036111 2.6096679 35.68716 2.7500268 35.21875 2.75 C 34.793143 2.7500268 34.422133 2.6096679 34.125 2.3125 C 33.827852 2.0153866 33.687493 1.6443771 33.6875 1.21875 C 33.687493 0.7931795 33.827852 0.42217004 34.125 0.125 C 34.422133 -0.17211123 34.793143 -0.31247015 35.21875 -0.3125 z M 82.03125 -0.3125 C 82.456794 -0.31247015 82.796553 -0.17211123 83.09375 0.125 C 83.390834 0.42217004 83.531193 0.7931795 83.53125 1.21875 C 83.531193 1.6443771 83.401323 2.0153866 83.125 2.3125 C 82.848564 2.6096679 82.498315 2.7500268 82.03125 2.75 C 81.605596 2.7500268 81.235235 2.6096679 80.9375 2.3125 C 80.639656 2.0153866 80.499946 1.6443771 80.5 1.21875 C 80.499946 0.7931795 80.639656 0.42217004 80.9375 0.125 C 81.235235 -0.17211123 81.605596 -0.31247015 82.03125 -0.3125 z M 58.625 5.9375 L 61.46875 19.90625 C 61.255916 19.86344 60.937134 19.703401 60.46875 19.40625 C 59.745977 18.89632 59.134908 18.625011 58.625 18.625 C 58.115028 18.625011 57.472709 18.89632 56.75 19.40625 C 56.281552 19.703401 55.96277 19.86344 55.75 19.90625 L 58.625 5.9375 z M 48.21875 7.65625 L 52.9375 20.09375 C 52.639036 20.093759 52.228665 19.994059 51.71875 19.78125 C 51.208785 19.569758 50.798414 19.46876 50.5 19.46875 C 49.947217 19.46876 49.275809 19.769158 48.46875 20.40625 C 48.085949 20.746219 47.794959 20.957189 47.625 21 L 48.21875 7.65625 z M 69 7.65625 L 69.59375 21 C 69.423727 20.957189 69.132737 20.746219 68.75 20.40625 C 67.942877 19.769158 67.271469 19.46876 66.71875 19.46875 C 66.420272 19.46876 66.009901 19.569758 65.5 19.78125 C 64.990021 19.994059 64.579651 20.093759 64.28125 20.09375 L 69 7.65625 z M 39.40625 13.78125 L 43.875 22 C 42.683825 22.000008 41.562686 21.71929 40.5 21.125 L 39.40625 13.78125 z M 77.8125 13.78125 L 76.71875 21.125 C 76.251579 21.37933 75.660191 21.580028 74.9375 21.75 C 74.214712 21.919988 73.684961 22.000008 73.34375 22 L 77.8125 13.78125 z M 58.625 20.9375 C 59.943286 22.001506 61.515455 22.531257 63.34375 22.53125 C 64.492052 22.531257 65.613191 22.261245 66.71875 21.75 C 67.56861 22.558386 68.571018 23.209896 69.71875 23.65625 C 70.866396 24.102616 72.027546 24.312505 73.21875 24.3125 C 74.025784 24.312505 74.836253 24.212805 75.6875 24 L 73.71875 26.75 C 68.616707 25.560143 63.599803 24.937505 58.625 24.9375 C 56.24395 24.937505 53.769723 25.118954 51.21875 25.4375 C 48.667728 25.756054 46.0938 26.197243 43.5 26.75 L 41.53125 24 C 42.382433 24.212805 43.192902 24.312505 44 24.3125 C 45.19114 24.312505 46.35229 24.102616 47.5 23.65625 C 48.647669 23.209896 49.650076 22.558386 50.5 21.75 C 51.605495 22.261245 52.726635 22.531257 53.875 22.53125 C 55.703231 22.531257 57.30665 22.001506 58.625 20.9375 z M 58.625 27.25 C 60.963166 27.250002 63.436313 27.399553 66.09375 27.71875 C 68.751108 28.037951 71.115146 28.458811 73.15625 28.96875 L 72.5625 31.34375 C 70.181436 30.832511 67.828319 30.42214 65.46875 30.125 C 63.109103 29.827859 60.836006 29.65625 58.625 29.65625 C 56.41393 29.65625 54.089902 29.827859 51.6875 30.125 C 49.285048 30.42214 46.951611 30.832511 44.65625 31.34375 L 44.0625 28.96875 C 46.10354 28.458811 48.467578 28.037951 51.125 27.71875 C 53.782373 27.399553 56.28677 27.250002 58.625 27.25 z M 58.625 31.96875 C 60.793186 31.968748 63.016434 32.098617 65.3125 32.375 C 67.608489 32.651377 69.851417 33.052556 72.0625 33.5625 L 73.03125 36.1875 C 70.564547 35.591915 68.111298 35.121205 65.6875 34.78125 C 63.263624 34.441285 60.920347 34.249995 58.625 34.25 C 56.371111 34.249995 53.997233 34.441285 51.53125 34.78125 C 49.065217 35.121205 46.61132 35.591915 44.1875 36.1875 L 45.15625 33.5625 C 47.367269 33.052556 49.610197 32.651377 51.90625 32.375 C 54.202253 32.098617 56.45675 31.968748 58.625 31.96875 z M 58.625 36.5625 C 60.920347 36.562493 63.323314 36.731724 65.875 37.09375 C 68.426607 37.455761 70.900186 37.95664 73.28125 38.59375 C 70.900186 39.232139 68.426607 39.73237 65.875 40.09375 C 63.323314 40.455109 60.920347 40.624989 58.625 40.625 C 56.371111 40.624989 53.947383 40.455109 51.375 40.09375 C 48.802568 39.73237 46.318501 39.232139 43.9375 38.59375 C 46.318501 37.95664 48.802568 37.455761 51.375 37.09375 C 53.947383 36.731724 56.371111 36.562493 58.625 36.5625 z "
       style="font-size:63.77760315px;font-style:normal;font-variant:normal;font-weight:normal;font-stretch:normal;line-height:125%;letter-spacing:0px;word-spacing:0px;fill:#4d4d4d;fill-opacity:1;stroke:none;font-family:DiagramTTHabsburg;-inkscape-font-specification:DiagramTTHabsburg"
       id="path3135-4"
       d="m 58.625,-10.875 c -1.421679,5.2e-5 -2.78517,0.5673 -3.78125,1.5625 -0.996648,0.995791 -1.562537,2.3593109 -1.5625,3.78125 -3.9e-5,1.2297503 0.461446,2.3875666 1.21875,3.3125 0.444662,0.543194 1.011554,0.9712427 1.625,1.3125 l -2.46875,12.1875 -4.1875,-11.125 c 0.416826,-0.33396079 0.938515,-0.52981997 1.25,-0.96875 0.629629,-0.8872453 0.968718,-1.9474287 0.96875,-3 -3.1e-5,-1.4210386 -0.566102,-2.7847743 -1.5625,-3.78125 -0.981619,-0.9815417 -2.328963,-1.5624503 -3.75,-1.5625 -1.421923,4.97e-5 -2.785423,0.5666983 -3.78125,1.5625 -0.996453,0.9964786 -1.562521,2.3601799 -1.5625,3.78125 -2.2e-5,1.3838931 0.569089,2.6977889 1.53125,3.6875 0.602731,0.62006948 1.33388,1.01687704 2.125,1.28125 l -0.5625,13.375 -5.25,-9.6875 c 0.962372,-0.9937998 1.656239,-2.2110773 1.65625,-3.625 -1.6e-5,-1.4210508 -0.566083,-2.7847764 -1.5625,-3.78125 -0.996461,-0.9964052 -2.358358,-1.531208 -3.75,-1.53125 -1.391653,4.2e-5 -2.769951,0.5199852 -3.78125,1.53125 -0.996441,0.9964748 -1.562507,2.36018548 -1.5625,3.78125 -7e-6,1.4211021 0.566016,2.7848084 1.5625,3.78125 0.822158,0.8221929 1.914789,1.2458656 3.0625,1.40625 l 2.625,17.5625 a 1.50015,1.50015 0 0 0 0.25,0.65625 l 2.65625,3.8125 1.1875,4.84375 -2.25,6.125 a 1.50015,1.50015 0 0 0 0.90625,1.9375 c 2.862652,1.013346 5.922311,1.759076 9.1875,2.28125 3.2567,0.520797 6.453202,0.812487 9.5625,0.8125 3.109236,-1.3e-5 6.305741,-0.291704 9.5625,-0.8125 3.266633,-0.522415 6.296896,-1.269095 9.15625,-2.28125 A 1.50015,1.50015 0 0 0 78.25,39.40625 l -2.25,-6.125 1.1875,-4.84375 2.65625,-3.75 a 1.50015,1.50015 0 0 0 0.25,-0.65625 L 82.71875,6.4375 C 83.872153,6.2784646 84.965148,5.8160668 85.78125,5 c 0.996393,-0.9964368 1.562421,-2.3601996 1.5625,-3.78125 -7.9e-5,-1.42101284 -0.566149,-2.7847799 -1.5625,-3.78125 -0.99649,-0.9963709 -2.358391,-1.531208 -3.75,-1.53125 -1.391685,4.2e-5 -2.769979,0.5199507 -3.78125,1.53125 -0.996508,0.9964788 -1.562568,2.36014927 -1.5625,3.78125 -4.8e-5,1.4139456 0.693843,2.6311856 1.65625,3.625 l -5.25,9.6875 -0.5625,-13.375 c 0.7911,-0.26436885 1.522245,-0.66121089 2.125,-1.28125 0.96207,-0.9897048 1.531185,-2.3036616 1.53125,-3.6875 -6.4e-5,-1.4210184 -0.566138,-2.7847761 -1.5625,-3.78125 -0.995865,-0.9957537 -2.35937,-1.5624503 -3.78125,-1.5625 -1.421079,4.97e-5 -2.768419,0.5809121 -3.75,1.5625 -0.996489,0.9964809 -1.562553,2.3601615 -1.5625,3.78125 -5.3e-5,1.0802603 0.330862,2.1637381 0.96875,3.0625 0.318968,0.44953589 0.689289,0.85611493 1.125,1.1875 l -4.0625,10.84375 -2.46875,-12.1875 c 0.613422,-0.3412479 1.180316,-0.76934 1.625,-1.3125 0.757205,-0.9249163 1.2187,-2.0828124 1.21875,-3.3125 -4.8e-5,-1.4218866 -0.565941,-2.7854631 -1.5625,-3.78125 -0.981263,-0.980312 -2.328362,-1.562448 -3.75,-1.5625 z m -0.03125,5.3125 c 0.02181,-0.021857 -0.06621,8.4e-6 0.03125,0 0.0248,0.024862 -7e-6,-0.064562 0,0.03125 -7e-6,0.093631 0.02313,0.00807 0,0.03125 -0.09732,7.7e-6 -0.0094,0.021856 -0.03125,0 -0.02313,-0.023171 -7e-6,0.062251 0,-0.03125 -7e-6,-0.095683 -0.0248,-0.0064 0,-0.03125 z m -12.25,1.71875 c 0.02391,-0.023912 -0.06619,8e-6 0.03125,0 0.05958,0.059586 0.03125,0.00989 0.03125,0.03125 -10e-7,0.024014 0.02974,-0.029738 -0.03125,0.03125 -0.0973,7.3e-6 -0.0073,0.023911 -0.03125,0 -0.02388,-0.02388 -4e-6,0.066104 0,-0.03125 -4e-6,-0.094934 -0.02247,-0.00878 0,-0.03125 z m 24.5,0 c 0.09732,8e-6 0.0072,-0.024037 0.03125,0 0.02248,0.022481 -1e-5,-0.063816 0,0.03125 -1.1e-5,0.097485 0.02389,0.00736 0,0.03125 -0.02404,0.024036 0.06594,7.3e-6 -0.03125,0 -0.06099,-0.060971 -0.03125,-0.00737 -0.03125,-0.03125 -2e-6,-0.021224 -0.02832,0.028319 0.03125,-0.03125 z M 35.1875,1.1875 c 0.02269,-0.022686 -0.06463,6.7e-6 0.03125,0 0.05911,0.058993 0.03125,0.00738 0.03125,0.03125 -10e-7,0.02826 -0.02456,0.023402 -0.03125,0.03125 -0.09577,6e-6 -0.0086,0.022684 -0.03125,0 -0.02265,-0.022645 -2e-6,0.064593 0,-0.03125 -2e-6,-0.095742 -0.02276,-0.00849 0,-0.03125 z m 46.8125,0 c 0.02468,-0.024626 -0.06472,6.7e-6 0.03125,0 0.02276,0.022766 -1.3e-5,-0.064623 0,0.03125 -8e-6,0.060309 -3.23e-4,0.029816 0,0.03125 -0.09585,6e-6 -0.0066,0.024625 -0.03125,0 -0.02186,-0.021808 -1.2e-5,0.066021 0,-0.03125 -1.2e-5,-0.097171 -0.02197,-0.00933 0,-0.03125 z m -23.375,12.25 0.78125,3.84375 C 59.151475,17.220195 58.907118,17.125006 58.625,17.125 c -0.295283,6e-6 -0.544859,0.122028 -0.8125,0.1875 l 0.8125,-3.875 z M 49.40625,15 l 1.125,2.96875 c -0.01048,-9.4e-5 -0.02071,0 -0.03125,0 -0.447473,8e-6 -0.847622,0.129068 -1.25,0.28125 L 49.40625,15 z m 18.40625,0 0.15625,3.25 c -0.402364,-0.152178 -0.802527,-0.281242 -1.25,-0.28125 -0.01054,0 -0.02077,-9.4e-5 -0.03125,0 L 67.8125,15 z m -9.1875,7.625 c 0.536868,0.33001 1.059532,0.701337 1.65625,0.90625 -0.550057,-0.01474 -1.10701,-0.09375 -1.65625,-0.09375 -0.546351,1e-6 -1.133601,0.10706 -1.6875,0.125 0.609373,-0.206033 1.139812,-0.601556 1.6875,-0.9375 z m -7.84375,0.6875 c 0.694593,0.249515 1.399082,0.416994 2.125,0.5 -0.63387,0.06263 -1.233036,0.04484 -1.875,0.125 -0.558263,0.06971 -1.127489,0.200167 -1.6875,0.28125 0.495419,-0.283822 1.001234,-0.553915 1.4375,-0.90625 z m 15.65625,0 c 0.407344,0.32899 0.884707,0.574219 1.34375,0.84375 -1.126492,-0.161113 -2.253297,-0.271971 -3.375,-0.375 0.692089,-0.08688 1.36794,-0.23048 2.03125,-0.46875 z m -7.8125,14.75 c 2.221616,-7e-6 4.544869,0.178489 7.03125,0.53125 -2.486859,0.352179 -4.809909,0.531239 -7.03125,0.53125 -2.178522,-1.1e-5 -4.52327,-0.178938 -7.03125,-0.53125 2.507505,-0.352895 4.852448,-0.531257 7.03125,-0.53125 z"
       transform="translate(-24.609375,17.31875)" />
    <path
       sodipodi:type="inkscape:offset"
       inkscape:radius="1.5"
       inkscape:original="M 58.625 -9.375 C 57.562269 -9.3749611 56.65037 -8.9934626 55.90625 -8.25 C 55.162072 -7.5064618 54.781222 -6.595212 54.78125 -5.53125 C 54.781222 -4.6384955 55.082052 -3.8575471 55.65625 -3.15625 C 56.23039 -2.4548876 56.950999 -1.9940181 57.84375 -1.78125 L 54.09375 16.71875 L 47.71875 -0.25 C 48.441468 -0.54711085 49.032208 -1.0283096 49.5 -1.6875 C 49.967747 -2.3466279 50.187477 -3.0469078 50.1875 -3.8125 C 50.187477 -4.8751661 49.806627 -5.7870648 49.0625 -6.53125 C 48.318328 -7.2753631 47.43768 -7.6562128 46.375 -7.65625 C 45.310983 -7.6562128 44.400382 -7.2753631 43.65625 -6.53125 C 42.912084 -5.7870648 42.531234 -4.8751661 42.53125 -3.8125 C 42.531234 -2.791289 42.901595 -1.9003684 43.625 -1.15625 C 44.348371 -0.41207015 45.2301 -0.041492306 46.25 0 L 45.40625 20.03125 L 37.0625 4.59375 C 38.380808 3.8282161 39.031238 2.7070766 39.03125 1.21875 C 39.031238 0.15607884 38.650388 -0.75581983 37.90625 -1.5 C 37.16209 -2.2441181 36.281441 -2.5937179 35.21875 -2.59375 C 34.156042 -2.5937179 33.244143 -2.2441181 32.5 -1.5 C 31.755845 -0.75581983 31.374995 0.15607884 31.375 1.21875 C 31.374995 2.2814778 31.755845 3.1933765 32.5 3.9375 C 33.244143 4.6816748 34.156042 5.0625245 35.21875 5.0625 C 35.47436 5.0625245 35.65408 5.0428439 35.78125 5 L 38.59375 23.75 L 41.4375 27.8125 L 42.78125 33.375 L 40.375 39.9375 C 43.138784 40.915848 46.12373 41.646297 49.3125 42.15625 C 52.501225 42.666177 55.605552 42.937487 58.625 42.9375 C 61.644384 42.937487 64.748712 42.666177 67.9375 42.15625 C 71.126206 41.646297 74.079903 40.915848 76.84375 39.9375 L 74.4375 33.375 L 75.78125 27.8125 L 78.625 23.8125 L 81.4375 5 C 81.564606 5.0428439 81.775576 5.0625245 82.03125 5.0625 C 83.093894 5.0625245 83.974543 4.6816748 84.71875 3.9375 C 85.462841 3.1933765 85.843691 2.2814778 85.84375 1.21875 C 85.843691 0.15607884 85.462841 -0.75581983 84.71875 -1.5 C 83.974543 -2.2441181 83.093894 -2.5937179 82.03125 -2.59375 C 80.968495 -2.5937179 80.056597 -2.2441181 79.3125 -1.5 C 78.568298 -0.75581983 78.187449 0.15607884 78.1875 1.21875 C 78.187449 2.7070766 78.837878 3.8282161 80.15625 4.59375 L 71.8125 20.03125 L 70.96875 0 C 71.988586 -0.041492306 72.870315 -0.41207015 73.59375 -1.15625 C 74.317091 -1.9003684 74.687452 -2.791289 74.6875 -3.8125 C 74.687452 -4.8751661 74.306602 -5.7870648 73.5625 -6.53125 C 72.818304 -7.2753631 71.907703 -7.6562128 70.84375 -7.65625 C 69.781006 -7.6562128 68.900358 -7.2753631 68.15625 -6.53125 C 67.412059 -5.7870648 67.03121 -4.8751661 67.03125 -3.8125 C 67.03121 -3.0040884 67.25094 -2.284128 67.71875 -1.625 C 68.186478 -0.96580971 68.777218 -0.50429146 69.5 -0.25 L 63.125 16.71875 L 59.375 -1.78125 C 60.267687 -1.9940181 60.988296 -2.4548876 61.5625 -3.15625 C 62.136634 -3.8575471 62.437464 -4.6384955 62.4375 -5.53125 C 62.437464 -6.595212 62.056615 -7.5064618 61.3125 -8.25 C 60.568316 -8.9934626 59.687668 -9.3749611 58.625 -9.375 z M 58.625 -7.0625 C 59.050567 -7.0624634 59.390326 -6.9227533 59.6875 -6.625 C 59.984608 -6.3271744 60.124967 -5.9568137 60.125 -5.53125 C 60.124967 -5.1069137 59.984608 -4.7352554 59.6875 -4.4375 C 59.390326 -4.1396766 59.050567 -3.9999665 58.625 -4 C 58.199369 -3.9999665 57.82836 -4.1396766 57.53125 -4.4375 C 57.234079 -4.7352554 57.09372 -5.1069137 57.09375 -5.53125 C 57.09372 -5.9568137 57.234079 -6.3271744 57.53125 -6.625 C 57.82836 -6.9227533 58.199369 -7.0624634 58.625 -7.0625 z M 46.375 -5.34375 C 46.799282 -5.3437151 47.13969 -5.204005 47.4375 -4.90625 C 47.735269 -4.6084261 47.906229 -4.2367679 47.90625 -3.8125 C 47.906229 -3.3868678 47.735269 -3.0165071 47.4375 -2.71875 C 47.13969 -2.4209283 46.799282 -2.2812182 46.375 -2.28125 C 45.949382 -2.2812182 45.579021 -2.4209283 45.28125 -2.71875 C 44.983442 -3.0165071 44.843732 -3.3868678 44.84375 -3.8125 C 44.843732 -4.2367679 44.983442 -4.6084261 45.28125 -4.90625 C 45.579021 -5.204005 45.949382 -5.3437151 46.375 -5.34375 z M 70.84375 -5.34375 C 71.269305 -5.3437151 71.639665 -5.204005 71.9375 -4.90625 C 72.235244 -4.6084261 72.374954 -4.2367679 72.375 -3.8125 C 72.374954 -3.3868678 72.235244 -3.0165071 71.9375 -2.71875 C 71.639665 -2.4209283 71.269305 -2.2812182 70.84375 -2.28125 C 70.419405 -2.2812182 70.078996 -2.4209283 69.78125 -2.71875 C 69.483418 -3.0165071 69.312457 -3.3868678 69.3125 -3.8125 C 69.312457 -4.2367679 69.483418 -4.6084261 69.78125 -4.90625 C 70.078996 -5.204005 70.419405 -5.3437151 70.84375 -5.34375 z M 35.21875 -0.3125 C 35.64434 -0.31247015 35.983451 -0.17211123 36.28125 0.125 C 36.57903 0.42217004 36.74999 0.7931795 36.75 1.21875 C 36.74999 1.6443771 36.58887 2.0153866 36.3125 2.3125 C 36.036111 2.6096679 35.68716 2.7500268 35.21875 2.75 C 34.793143 2.7500268 34.422133 2.6096679 34.125 2.3125 C 33.827852 2.0153866 33.687493 1.6443771 33.6875 1.21875 C 33.687493 0.7931795 33.827852 0.42217004 34.125 0.125 C 34.422133 -0.17211123 34.793143 -0.31247015 35.21875 -0.3125 z M 82.03125 -0.3125 C 82.456794 -0.31247015 82.796553 -0.17211123 83.09375 0.125 C 83.390834 0.42217004 83.531193 0.7931795 83.53125 1.21875 C 83.531193 1.6443771 83.401323 2.0153866 83.125 2.3125 C 82.848564 2.6096679 82.498315 2.7500268 82.03125 2.75 C 81.605596 2.7500268 81.235235 2.6096679 80.9375 2.3125 C 80.639656 2.0153866 80.499946 1.6443771 80.5 1.21875 C 80.499946 0.7931795 80.639656 0.42217004 80.9375 0.125 C 81.235235 -0.17211123 81.605596 -0.31247015 82.03125 -0.3125 z M 58.625 5.9375 L 61.46875 19.90625 C 61.255916 19.86344 60.937134 19.703401 60.46875 19.40625 C 59.745977 18.89632 59.134908 18.625011 58.625 18.625 C 58.115028 18.625011 57.472709 18.89632 56.75 19.40625 C 56.281552 19.703401 55.96277 19.86344 55.75 19.90625 L 58.625 5.9375 z M 48.21875 7.65625 L 52.9375 20.09375 C 52.639036 20.093759 52.228665 19.994059 51.71875 19.78125 C 51.208785 19.569758 50.798414 19.46876 50.5 19.46875 C 49.947217 19.46876 49.275809 19.769158 48.46875 20.40625 C 48.085949 20.746219 47.794959 20.957189 47.625 21 L 48.21875 7.65625 z M 69 7.65625 L 69.59375 21 C 69.423727 20.957189 69.132737 20.746219 68.75 20.40625 C 67.942877 19.769158 67.271469 19.46876 66.71875 19.46875 C 66.420272 19.46876 66.009901 19.569758 65.5 19.78125 C 64.990021 19.994059 64.579651 20.093759 64.28125 20.09375 L 69 7.65625 z M 39.40625 13.78125 L 43.875 22 C 42.683825 22.000008 41.562686 21.71929 40.5 21.125 L 39.40625 13.78125 z M 77.8125 13.78125 L 76.71875 21.125 C 76.251579 21.37933 75.660191 21.580028 74.9375 21.75 C 74.214712 21.919988 73.684961 22.000008 73.34375 22 L 77.8125 13.78125 z M 58.625 20.9375 C 59.943286 22.001506 61.515455 22.531257 63.34375 22.53125 C 64.492052 22.531257 65.613191 22.261245 66.71875 21.75 C 67.56861 22.558386 68.571018 23.209896 69.71875 23.65625 C 70.866396 24.102616 72.027546 24.312505 73.21875 24.3125 C 74.025784 24.312505 74.836253 24.212805 75.6875 24 L 73.71875 26.75 C 68.616707 25.560143 63.599803 24.937505 58.625 24.9375 C 56.24395 24.937505 53.769723 25.118954 51.21875 25.4375 C 48.667728 25.756054 46.0938 26.197243 43.5 26.75 L 41.53125 24 C 42.382433 24.212805 43.192902 24.312505 44 24.3125 C 45.19114 24.312505 46.35229 24.102616 47.5 23.65625 C 48.647669 23.209896 49.650076 22.558386 50.5 21.75 C 51.605495 22.261245 52.726635 22.531257 53.875 22.53125 C 55.703231 22.531257 57.30665 22.001506 58.625 20.9375 z M 58.625 27.25 C 60.963166 27.250002 63.436313 27.399553 66.09375 27.71875 C 68.751108 28.037951 71.115146 28.458811 73.15625 28.96875 L 72.5625 31.34375 C 70.181436 30.832511 67.828319 30.42214 65.46875 30.125 C 63.109103 29.827859 60.836006 29.65625 58.625 29.65625 C 56.41393 29.65625 54.089902 29.827859 51.6875 30.125 C 49.285048 30.42214 46.951611 30.832511 44.65625 31.34375 L 44.0625 28.96875 C 46.10354 28.458811 48.467578 28.037951 51.125 27.71875 C 53.782373 27.399553 56.28677 27.250002 58.625 27.25 z M 58.625 31.96875 C 60.793186 31.968748 63.016434 32.098617 65.3125 32.375 C 67.608489 32.651377 69.851417 33.052556 72.0625 33.5625 L 73.03125 36.1875 C 70.564547 35.591915 68.111298 35.121205 65.6875 34.78125 C 63.263624 34.441285 60.920347 34.249995 58.625 34.25 C 56.371111 34.249995 53.997233 34.441285 51.53125 34.78125 C 49.065217 35.121205 46.61132 35.591915 44.1875 36.1875 L 45.15625 33.5625 C 47.367269 33.052556 49.610197 32.651377 51.90625 32.375 C 54.202253 32.098617 56.45675 31.968748 58.625 31.96875 z M 58.625 36.5625 C 60.920347 36.562493 63.323314 36.731724 65.875 37.09375 C 68.426607 37.455761 70.900186 37.95664 73.28125 38.59375 C 70.900186 39.232139 68.426607 39.73237 65.875 40.09375 C 63.323314 40.455109 60.920347 40.624989 58.625 40.625 C 56.371111 40.624989 53.947383 40.455109 51.375 40.09375 C 48.802568 39.73237 46.318501 39.232139 43.9375 38.59375 C 46.318501 37.95664 48.802568 37.455761 51.375 37.09375 C 53.947383 36.731724 56.371111 36.562493 58.625 36.5625 z "
       style="font-size:63.77760315px;font-style:normal;font-variant:normal;font-weight:normal;font-stretch:normal;line-height:125%;letter-spacing:0px;word-spacing:0px;fill:#ffffff;fill-opacity:1;stroke:none;font-family:DiagramTTHabsburg;-inkscape-font-specification:DiagramTTHabsburg"
       id="path3135"
       d="m 58.625,-10.875 c -1.421679,5.2e-5 -2.78517,0.5673 -3.78125,1.5625 -0.996648,0.995791 -1.562537,2.3593109 -1.5625,3.78125 -3.9e-5,1.2297503 0.461446,2.3875666 1.21875,3.3125 0.444662,0.543194 1.011554,0.9712427 1.625,1.3125 l -2.46875,12.1875 -4.1875,-11.125 c 0.416826,-0.33396079 0.938515,-0.52981997 1.25,-0.96875 0.629629,-0.8872453 0.968718,-1.9474287 0.96875,-3 -3.1e-5,-1.4210386 -0.566102,-2.7847743 -1.5625,-3.78125 -0.981619,-0.9815417 -2.328963,-1.5624503 -3.75,-1.5625 -1.421923,4.97e-5 -2.785423,0.5666983 -3.78125,1.5625 -0.996453,0.9964786 -1.562521,2.3601799 -1.5625,3.78125 -2.2e-5,1.3838931 0.569089,2.6977889 1.53125,3.6875 0.602731,0.62006948 1.33388,1.01687704 2.125,1.28125 l -0.5625,13.375 -5.25,-9.6875 c 0.962372,-0.9937998 1.656239,-2.2110773 1.65625,-3.625 -1.6e-5,-1.4210508 -0.566083,-2.7847764 -1.5625,-3.78125 -0.996461,-0.9964052 -2.358358,-1.531208 -3.75,-1.53125 -1.391653,4.2e-5 -2.769951,0.5199852 -3.78125,1.53125 -0.996441,0.9964748 -1.562507,2.36018548 -1.5625,3.78125 -7e-6,1.4211021 0.566016,2.7848084 1.5625,3.78125 0.822158,0.8221929 1.914789,1.2458656 3.0625,1.40625 l 2.625,17.5625 a 1.50015,1.50015 0 0 0 0.25,0.65625 l 2.65625,3.8125 1.1875,4.84375 -2.25,6.125 a 1.50015,1.50015 0 0 0 0.90625,1.9375 c 2.862652,1.013346 5.922311,1.759076 9.1875,2.28125 3.2567,0.520797 6.453202,0.812487 9.5625,0.8125 3.109236,-1.3e-5 6.305741,-0.291704 9.5625,-0.8125 3.266633,-0.522415 6.296896,-1.269095 9.15625,-2.28125 A 1.50015,1.50015 0 0 0 78.25,39.40625 l -2.25,-6.125 1.1875,-4.84375 2.65625,-3.75 a 1.50015,1.50015 0 0 0 0.25,-0.65625 L 82.71875,6.4375 C 83.872153,6.2784646 84.965148,5.8160668 85.78125,5 c 0.996393,-0.9964368 1.562421,-2.3601996 1.5625,-3.78125 -7.9e-5,-1.42101284 -0.566149,-2.7847799 -1.5625,-3.78125 -0.99649,-0.9963709 -2.358391,-1.531208 -3.75,-1.53125 -1.391685,4.2e-5 -2.769979,0.5199507 -3.78125,1.53125 -0.996508,0.9964788 -1.562568,2.36014927 -1.5625,3.78125 -4.8e-5,1.4139456 0.693843,2.6311856 1.65625,3.625 l -5.25,9.6875 -0.5625,-13.375 c 0.7911,-0.26436885 1.522245,-0.66121089 2.125,-1.28125 0.96207,-0.9897048 1.531185,-2.3036616 1.53125,-3.6875 -6.4e-5,-1.4210184 -0.566138,-2.7847761 -1.5625,-3.78125 -0.995865,-0.9957537 -2.35937,-1.5624503 -3.78125,-1.5625 -1.421079,4.97e-5 -2.768419,0.5809121 -3.75,1.5625 -0.996489,0.9964809 -1.562553,2.3601615 -1.5625,3.78125 -5.3e-5,1.0802603 0.330862,2.1637381 0.96875,3.0625 0.318968,0.44953589 0.689289,0.85611493 1.125,1.1875 l -4.0625,10.84375 -2.46875,-12.1875 c 0.613422,-0.3412479 1.180316,-0.76934 1.625,-1.3125 0.757205,-0.9249163 1.2187,-2.0828124 1.21875,-3.3125 -4.8e-5,-1.4218866 -0.565941,-2.7854631 -1.5625,-3.78125 -0.981263,-0.980312 -2.328362,-1.562448 -3.75,-1.5625 z m -0.03125,5.3125 c 0.02181,-0.021857 -0.06621,8.4e-6 0.03125,0 0.0248,0.024862 -7e-6,-0.064562 0,0.03125 -7e-6,0.093631 0.02313,0.00807 0,0.03125 -0.09732,7.7e-6 -0.0094,0.021856 -0.03125,0 -0.02313,-0.023171 -7e-6,0.062251 0,-0.03125 -7e-6,-0.095683 -0.0248,-0.0064 0,-0.03125 z m -12.25,1.71875 c 0.02391,-0.023912 -0.06619,8e-6 0.03125,0 0.05958,0.059586 0.03125,0.00989 0.03125,0.03125 -10e-7,0.024014 0.02974,-0.029738 -0.03125,0.03125 -0.0973,7.3e-6 -0.0073,0.023911 -0.03125,0 -0.02388,-0.02388 -4e-6,0.066104 0,-0.03125 -4e-6,-0.094934 -0.02247,-0.00878 0,-0.03125 z m 24.5,0 c 0.09732,8e-6 0.0072,-0.024037 0.03125,0 0.02248,0.022481 -1e-5,-0.063816 0,0.03125 -1.1e-5,0.097485 0.02389,0.00736 0,0.03125 -0.02404,0.024036 0.06594,7.3e-6 -0.03125,0 -0.06099,-0.060971 -0.03125,-0.00737 -0.03125,-0.03125 -2e-6,-0.021224 -0.02832,0.028319 0.03125,-0.03125 z M 35.1875,1.1875 c 0.02269,-0.022686 -0.06463,6.7e-6 0.03125,0 0.05911,0.058993 0.03125,0.00738 0.03125,0.03125 -10e-7,0.02826 -0.02456,0.023402 -0.03125,0.03125 -0.09577,6e-6 -0.0086,0.022684 -0.03125,0 -0.02265,-0.022645 -2e-6,0.064593 0,-0.03125 -2e-6,-0.095742 -0.02276,-0.00849 0,-0.03125 z m 46.8125,0 c 0.02468,-0.024626 -0.06472,6.7e-6 0.03125,0 0.02276,0.022766 -1.3e-5,-0.064623 0,0.03125 -8e-6,0.060309 -3.23e-4,0.029816 0,0.03125 -0.09585,6e-6 -0.0066,0.024625 -0.03125,0 -0.02186,-0.021808 -1.2e-5,0.066021 0,-0.03125 -1.2e-5,-0.097171 -0.02197,-0.00933 0,-0.03125 z m -23.375,12.25 0.78125,3.84375 C 59.151475,17.220195 58.907118,17.125006 58.625,17.125 c -0.295283,6e-6 -0.544859,0.122028 -0.8125,0.1875 l 0.8125,-3.875 z M 49.40625,15 l 1.125,2.96875 c -0.01048,-9.4e-5 -0.02071,0 -0.03125,0 -0.447473,8e-6 -0.847622,0.129068 -1.25,0.28125 L 49.40625,15 z m 18.40625,0 0.15625,3.25 c -0.402364,-0.152178 -0.802527,-0.281242 -1.25,-0.28125 -0.01054,0 -0.02077,-9.4e-5 -0.03125,0 L 67.8125,15 z m -9.1875,7.625 c 0.536868,0.33001 1.059532,0.701337 1.65625,0.90625 -0.550057,-0.01474 -1.10701,-0.09375 -1.65625,-0.09375 -0.546351,1e-6 -1.133601,0.10706 -1.6875,0.125 0.609373,-0.206033 1.139812,-0.601556 1.6875,-0.9375 z m -7.84375,0.6875 c 0.694593,0.249515 1.399082,0.416994 2.125,0.5 -0.63387,0.06263 -1.233036,0.04484 -1.875,0.125 -0.558263,0.06971 -1.127489,0.200167 -1.6875,0.28125 0.495419,-0.283822 1.001234,-0.553915 1.4375,-0.90625 z m 15.65625,0 c 0.407344,0.32899 0.884707,0.574219 1.34375,0.84375 -1.126492,-0.161113 -2.253297,-0.271971 -3.375,-0.375 0.692089,-0.08688 1.36794,-0.23048 2.03125,-0.46875 z m -7.8125,14.75 c 2.221616,-7e-6 4.544869,0.178489 7.03125,0.53125 -2.486859,0.352179 -4.809909,0.531239 -7.03125,0.53125 -2.178522,-1.1e-5 -4.52327,-0.178938 -7.03125,-0.53125 2.507505,-0.352895 4.852448,-0.531257 7.03125,-0.53125 z"
       transform="translate(-26.609375,15.31875)" />
    <path
       style="fill:#ffffff;fill-opacity:1;fill-rule:nonzero;stroke:none"
       d="m 31.45585,51.543906 c -4.556971,0.01471 -9.08063,0.780168 -13.501353,1.824412 -0.378296,0.04886 -0.994637,0.320003 -0.724842,0.797938 0.285443,0.389823 0.914361,0.353566 1.353332,0.521024 3.9471,0.932635 7.98446,1.542207 12.041538,1.676465 2.846947,0.05629 5.69631,-0.07854 8.514542,-0.494297 2.495989,-0.348072 4.980745,-0.823954 7.411883,-1.486143 0.483322,-0.176299 0.299619,-0.86713 -0.168107,-0.909621 -3.351769,-0.873961 -6.78185,-1.469195 -10.233811,-1.770882 -1.561481,-0.124106 -3.126251,-0.174305 -4.693182,-0.158896 z"
       id="path3012"
       inkscape:connector-curvature="0" />
    <path
       style="fill:#ffffff;fill-opacity:1;fill-rule:nonzero;stroke:none"
       d="m 31.193326,46.929019 c -4.249482,0.06505 -8.482382,0.644254 -12.624156,1.575141 -0.512121,0.230855 -0.572489,0.91949 -0.807327,1.374528 -0.147204,0.540811 -0.504531,1.066279 -0.506546,1.624329 0.04807,0.480238 0.689718,0.389441 1.034243,0.274754 3.447193,-0.783521 6.95045,-1.409675 10.481127,-1.637306 3.358766,-0.107893 6.739413,-0.151407 10.063942,0.367638 2.479547,0.312801 4.915246,0.858375 7.361704,1.346686 0.458157,0.07524 0.663423,-0.45591 0.460567,-0.808296 -0.302259,-0.809943 -0.53674,-1.673755 -0.999431,-2.406465 -0.685052,-0.361382 -1.515635,-0.364164 -2.26248,-0.563674 -4.01725,-0.770255 -8.108417,-1.203668 -12.201643,-1.147335 z"
       id="path3014"
       inkscape:connector-curvature="0" />
    <path
       style="fill:#ffffff;fill-opacity:1;fill-rule:nonzero;stroke:none"
       d="m 31.379856,42.210505 c -4.675739,0.09171 -9.355684,0.628555 -13.90914,1.699494 -0.593049,0.177114 -0.306277,0.843252 -0.216466,1.264258 0.198636,0.594259 0.184992,1.33506 0.640188,1.807728 0.441204,0.208196 0.921699,-0.135843 1.377969,-0.148017 5.739773,-1.171557 11.647318,-1.742039 17.499813,-1.172517 3.057716,0.276017 6.09076,0.790983 9.094787,1.408041 0.623816,-0.101615 0.575448,-0.898195 0.751718,-1.359463 0.0744,-0.513307 0.35172,-1.034697 0.231594,-1.553627 -0.373694,-0.431839 -1.036486,-0.354288 -1.542828,-0.526538 -4.574672,-0.942028 -9.25468,-1.445198 -13.927635,-1.419359 z"
       id="path3016"
       inkscape:connector-curvature="0" />
    <path
       style="fill:#ffffff;fill-opacity:1;fill-rule:nonzero;stroke:none"
       d="m 31.815092,35.965209 c -0.94333,0.648361 -1.97713,1.202071 -3.118663,1.381237 -1.176532,0.212414 -2.420031,0.123053 -3.559566,-0.19067 -0.546635,-0.09906 -1.173081,-0.711682 -1.659706,-0.192814 -1.821704,1.602868 -4.276396,2.437667 -6.694914,2.253759 -0.586379,0.02866 -1.175489,-0.198639 -1.753108,-0.17621 -0.537736,0.102369 -0.346215,0.739945 -0.07773,1.021446 0.568962,0.792925 1.078229,1.66076 1.780094,2.339683 0.713469,0.100402 1.426329,-0.222055 2.13804,-0.297014 5.914239,-1.149622 11.997551,-1.712392 18.016189,-1.201227 3.317845,0.249887 6.591102,0.821283 9.84714,1.479818 0.413824,0.13974 0.793898,-0.101192 0.986471,-0.463952 0.553464,-0.765137 1.158933,-1.504468 1.629552,-2.322481 0.12887,-0.476178 -0.426437,-0.677543 -0.794479,-0.531956 -2.325328,0.429566 -4.828269,0.07868 -6.837124,-1.211292 -0.584155,-0.312321 -1.018957,-0.868108 -1.63041,-1.114573 -0.951757,0.332485 -1.921432,0.705914 -2.947632,0.704668 -1.720751,0.08781 -3.497893,-0.344838 -4.854378,-1.430062 -0.128232,-0.09651 -0.326639,-0.09339 -0.469779,-0.04836 z"
       id="path3018"
       inkscape:connector-curvature="0" />
    <path
       style="fill:#ffffff;fill-opacity:1;fill-rule:nonzero;stroke:none"
       d="m 31.775943,21.162569 c -0.367003,0.408511 -0.287013,1.045298 -0.463539,1.546597 -0.870008,4.125343 -1.697046,8.272863 -2.566995,12.390176 -0.07667,0.549482 0.608669,0.655259 0.951073,0.379968 0.85263,-0.403647 1.670517,-1.278228 2.696622,-1.00634 0.889509,0.228398 1.547862,0.969169 2.4341,1.188265 0.625982,-0.06872 0.38021,-0.790075 0.291496,-1.18907 -0.891515,-4.347302 -1.786564,-8.694036 -2.684144,-13.040164 -0.09821,-0.290887 -0.383459,-0.405736 -0.658613,-0.269432 z"
       id="path3020"
       inkscape:connector-curvature="0" />
    <path
       style="fill:#ffffff;fill-opacity:1;fill-rule:nonzero;stroke:none"
       d="m 21.475351,23.113073 c -0.474121,0.340624 -0.237375,1.031284 -0.340844,1.526179 -0.184537,3.826321 -0.32862,7.666219 -0.492783,11.489459 -0.06489,0.461803 0.527035,0.771382 0.854352,0.416813 0.820314,-0.530011 1.609367,-1.429032 2.685109,-1.259652 0.781245,0.08618 1.490343,0.676593 2.305141,0.499716 0.494456,-0.438469 -0.09979,-1.059624 -0.199167,-1.560639 C 24.909445,30.650464 23.60821,27.043192 22.18002,23.490737 22.070016,23.205198 21.796564,22.962962 21.475351,23.113073 z"
       id="path3022"
       inkscape:connector-curvature="0" />
    <path
       style="fill:#ffffff;fill-opacity:1;fill-rule:nonzero;stroke:none"
       d="m 12.687723,29.070514 c -0.449585,0.395583 -0.05171,1.035675 -0.06781,1.539848 0.288809,1.988894 0.57356,3.990211 0.878409,5.969705 0.319327,0.522593 1.026047,0.593915 1.548331,0.826993 0.719043,0.228061 1.534646,0.444397 2.269774,0.248432 0.502593,-0.257455 0.115635,-0.823079 -0.0758,-1.153361 -1.333667,-2.455932 -2.625038,-4.943868 -4.032462,-7.357926 -0.166571,-0.123023 -0.326419,-0.143571 -0.520441,-0.07369 z"
       id="path3024"
       inkscape:connector-curvature="0" />
    <path
       style="fill:#ffffff;fill-opacity:1;fill-rule:nonzero;stroke:none"
       d="m 42.09496,23.09465 c -0.428402,0.556381 -0.574223,1.291606 -0.87116,1.925035 -1.305739,3.397611 -2.636206,6.790941 -3.828932,10.229341 -0.107175,0.497045 0.496272,0.685484 0.86817,0.502019 0.817255,-0.140258 1.664589,-0.790093 2.49167,-0.361545 0.758621,0.290375 1.296049,0.972842 2.026497,1.305708 0.54579,0.09278 0.64666,-0.567557 0.571104,-0.957979 C 43.141401,31.619414 43.044644,27.48378 42.783507,23.366385 42.70603,23.058555 42.36471,22.913414 42.09496,23.09465 z"
       id="path3026"
       inkscape:connector-curvature="0" />
    <path
       style="fill:#ffffff;fill-opacity:1;fill-rule:nonzero;stroke:none"
       d="m 50.903314,29.068211 c -0.528936,0.554351 -0.769964,1.327801 -1.183659,1.966623 -1.099768,2.045721 -2.25513,4.064788 -3.293058,6.139365 -0.09875,0.564562 0.583755,0.656863 0.980051,0.527024 0.957693,-0.185604 1.938518,-0.387313 2.817328,-0.826393 0.38589,-0.401754 0.281354,-1.04755 0.43444,-1.554662 0.311331,-1.950773 0.658838,-3.895543 0.871269,-5.860475 -0.01027,-0.303378 -0.350328,-0.515183 -0.626371,-0.391482 z"
       id="path3028"
       inkscape:connector-curvature="0" />
    <path
       style="fill:#ffffff;fill-opacity:1;fill-rule:nonzero;stroke:none"
       d="m 55.370818,14.677778 c -1.317846,-0.06456 -2.304058,1.515777 -1.713311,2.685109 0.483139,1.212538 2.266117,1.541271 3.14107,0.568801 0.928686,-0.917384 0.552721,-2.694498 -0.683942,-3.131859 -0.236192,-0.0901 -0.491819,-0.126764 -0.743817,-0.122051 z"
       id="path3030"
       inkscape:connector-curvature="0" />
    <path
       style="fill:#ffffff;fill-opacity:1;fill-rule:nonzero;stroke:none"
       d="M 44.137577,9.6253523 C 42.935,9.642143 42.04446,10.96223 42.417356,12.091691 c 0.244467,1.016742 1.403096,1.601121 2.381135,1.287287 1.374835,-0.331644 1.855428,-2.373618 0.736908,-3.260818 C 45.157262,9.7833015 44.642382,9.6003499 44.137577,9.6253523 z"
       id="path3032"
       inkscape:connector-curvature="0" />
    <path
       style="fill:#ffffff;fill-opacity:1;fill-rule:nonzero;stroke:none"
       d="m 31.985502,7.9327666 c -1.13657,-0.078709 -2.073705,1.0627938 -1.872207,2.1600614 0.115925,1.160786 1.431028,1.946463 2.517002,1.526782 0.840808,-0.269874 1.41757,-1.148807 1.264257,-2.0311031 -0.0442,-0.9310639 -0.971809,-1.7507388 -1.909052,-1.6557403 z"
       id="path3034"
       inkscape:connector-curvature="0" />
    <path
       style="fill:#ffffff;fill-opacity:1;fill-rule:nonzero;stroke:none"
       d="m 19.679138,9.6276551 c -1.27921,0.00104 -2.236686,1.4908609 -1.701797,2.6482629 0.367903,0.872115 1.394427,1.422165 2.314352,1.109968 1.197367,-0.274306 1.840678,-1.910444 1.061608,-2.899272 C 20.979503,9.9517604 20.336497,9.6020319 19.679138,9.6276551 z"
       id="path3036"
       inkscape:connector-curvature="0" />
    <path
       style="fill:#ffffff;fill-opacity:1;fill-rule:nonzero;stroke:none"
       d="m 8.5218894,14.673172 c -1.2708569,-0.02725 -2.2119085,1.450096 -1.7064028,2.60451 0.3436879,1.01506 1.5865496,1.496517 2.5492413,1.068516 C 10.145683,18.036665 10.612548,17.191887 10.48621,16.365758 10.4411,15.395206 9.4769695,14.597881 8.5218894,14.673172 z"
       id="path3038"
       inkscape:connector-curvature="0" />
    <text
       xml:space="preserve"
       style="font-size:63.77760315px;font-style:normal;font-variant:normal;font-weight:normal;font-stretch:normal;line-height:125%;letter-spacing:0px;word-spacing:0px;fill:#000000;fill-opacity:1;stroke:none;font-family:DiagramTTHabsburg;-inkscape-font-specification:DiagramTTHabsburg"
       x="0.11119846"
       y="44.884247"
       id="text2993"
       sodipodi:linespacing="125%"><tspan
         sodipodi:role="line"
         id="tspan2995"
         x="0.11119846"
         y="44.884247">Q</tspan></text>
  </g>
</svg>
