<?xml version="1.0" encoding="UTF-8" standalone="no"?>
<!-- Created with Inkscape (http://www.inkscape.org/) -->

<svg
   xmlns:dc="http://purl.org/dc/elements/1.1/"
   xmlns:cc="http://creativecommons.org/ns#"
   xmlns:rdf="http://www.w3.org/1999/02/22-rdf-syntax-ns#"
   xmlns:svg="http://www.w3.org/2000/svg"
   xmlns="http://www.w3.org/2000/svg"
   xmlns:sodipodi="http://sodipodi.sourceforge.net/DTD/sodipodi-0.dtd"
   xmlns:inkscape="http://www.inkscape.org/namespaces/inkscape"
   width="64px"
   height="64px"
   id="svg2985"
   version="1.1"
   inkscape:version="0.48.2 r9819"
   sodipodi:docname="wr.svg">
  <defs
     id="defs2987" />
  <sodipodi:namedview
     id="base"
     pagecolor="#808080"
     bordercolor="#666666"
     borderopacity="1.0"
     inkscape:pageopacity="0"
     inkscape:pageshadow="2"
     inkscape:zoom="10.765625"
     inkscape:cx="15.373004"
     inkscape:cy="32"
     inkscape:current-layer="layer1"
     showgrid="true"
     inkscape:document-units="px"
     inkscape:grid-bbox="true"
     inkscape:window-width="1408"
     inkscape:window-height="878"
     inkscape:window-x="24"
     inkscape:window-y="-8"
     inkscape:window-maximized="1" />
  <metadata
     id="metadata2990">
    <rdf:RDF>
      <cc:Work
         rdf:about="">
        <dc:format>image/svg+xml</dc:format>
        <dc:type
           rdf:resource="http://purl.org/dc/dcmitype/StillImage" />
        <dc:title />
      </cc:Work>
    </rdf:RDF>
  </metadata>
  <g
     id="layer1"
     inkscape:label="Layer 1"
     inkscape:groupmode="layer">
    <path
       sodipodi:type="inkscape:offset"
       inkscape:radius="1.5"
       inkscape:original="M 34.875 28.15625 L 34.875 39.0625 L 41.125 43.84375 L 41.125 59.03125 L 35.8125 63.8125 L 35.8125 69.5625 L 31.5 69.5625 L 31.5 76.625 L 73.34375 76.625 L 73.34375 69.5625 L 69 69.5625 L 69 63.8125 L 63.6875 59.03125 L 63.6875 43.84375 L 69.9375 39.0625 L 69.9375 28.15625 L 61.40625 28.15625 L 61.40625 31.96875 L 56.6875 31.96875 L 56.6875 28.15625 L 48.125 28.15625 L 48.125 31.96875 L 43.40625 31.96875 L 43.40625 28.15625 L 34.875 28.15625 z M 37.15625 30.4375 L 41.125 30.4375 L 41.125 34.28125 L 50.4375 34.28125 L 50.4375 30.4375 L 54.375 30.4375 L 54.375 34.28125 L 63.6875 34.28125 L 63.6875 30.4375 L 67.65625 30.4375 L 67.65625 36.78125 L 37.15625 36.78125 L 37.15625 30.4375 z M 38.6875 39.0625 L 66.125 39.0625 L 62.9375 41.5625 L 41.875 41.5625 L 38.6875 39.0625 z M 43.40625 43.84375 L 61.40625 43.84375 L 61.40625 59.03125 L 43.40625 59.03125 L 43.40625 43.84375 z M 41.9375 61.3125 L 62.875 61.3125 L 65.625 63.8125 L 39.21875 63.8125 L 41.9375 61.3125 z M 38.125 66.09375 L 66.6875 66.09375 L 66.6875 69.5625 L 38.125 69.5625 L 38.125 66.09375 z M 33.78125 71.84375 L 71.03125 71.84375 L 71.03125 74.34375 L 33.78125 74.34375 L 33.78125 71.84375 z "
       style="font-size:63.77760315px;font-style:normal;font-variant:normal;font-weight:normal;font-stretch:normal;line-height:125%;letter-spacing:0px;word-spacing:0px;fill:#4d4d4d;fill-opacity:1;stroke:none;font-family:DiagramTTHabsburg;-inkscape-font-specification:DiagramTTHabsburg"
       id="path3232-2"
       d="m 34.71875,26.65625 a 1.50015,1.50015 0 0 0 -1.34375,1.5 l 0,10.90625 a 1.50015,1.50015 0 0 0 0.59375,1.1875 l 5.65625,4.3125 0,13.78125 -4.8125,4.34375 a 1.50015,1.50015 0 0 0 -0.5,1.125 l 0,4.25 -2.8125,0 a 1.50015,1.50015 0 0 0 -1.5,1.5 l 0,7.0625 a 1.50015,1.50015 0 0 0 1.5,1.5 l 41.84375,0 a 1.50015,1.50015 0 0 0 1.5,-1.5 l 0,-7.0625 a 1.50015,1.50015 0 0 0 -1.5,-1.5 l -2.84375,0 0,-4.25 A 1.50015,1.50015 0 0 0 70,62.6875 l -4.8125,-4.34375 0,-13.78125 5.65625,-4.3125 a 1.50015,1.50015 0 0 0 0.59375,-1.1875 l 0,-10.90625 a 1.50015,1.50015 0 0 0 -1.5,-1.5 l -8.53125,0 a 1.50015,1.50015 0 0 0 -1.5,1.5 l 0,2.3125 -1.71875,0 0,-2.3125 a 1.50015,1.50015 0 0 0 -1.5,-1.5 l -8.5625,0 a 1.50015,1.50015 0 0 0 -1.5,1.5 l 0,2.3125 -1.71875,0 0,-2.3125 a 1.50015,1.50015 0 0 0 -1.5,-1.5 l -8.53125,0 a 1.50015,1.50015 0 0 0 -0.15625,0 z m 3.9375,5.28125 0.96875,0 0,2.34375 a 1.50015,1.50015 0 0 0 0.375,1 l -1.34375,0 0,-3.34375 z m 13.28125,0 0.9375,0 0,2.34375 a 1.50015,1.50015 0 0 0 0.375,1 l -1.71875,0 a 1.50015,1.50015 0 0 0 0.40625,-1 l 0,-2.34375 z m 13.25,0 0.96875,0 0,3.34375 -1.375,0 a 1.50015,1.50015 0 0 0 0.40625,-1 l 0,-2.34375 z m -20.28125,13.40625 15,0 0,12.1875 -15,0 0,-12.1875 z m -5.28125,22.25 25.5625,0 0,0.46875 -25.5625,0 0,-0.46875 z"
       transform="translate(-18.421875,-16.489607)" />
    <path
       sodipodi:type="inkscape:offset"
       inkscape:radius="1.5"
       inkscape:original="M 34.875 28.15625 L 34.875 39.0625 L 41.125 43.84375 L 41.125 59.03125 L 35.8125 63.8125 L 35.8125 69.5625 L 31.5 69.5625 L 31.5 76.625 L 73.34375 76.625 L 73.34375 69.5625 L 69 69.5625 L 69 63.8125 L 63.6875 59.03125 L 63.6875 43.84375 L 69.9375 39.0625 L 69.9375 28.15625 L 61.40625 28.15625 L 61.40625 31.96875 L 56.6875 31.96875 L 56.6875 28.15625 L 48.125 28.15625 L 48.125 31.96875 L 43.40625 31.96875 L 43.40625 28.15625 L 34.875 28.15625 z M 37.15625 30.4375 L 41.125 30.4375 L 41.125 34.28125 L 50.4375 34.28125 L 50.4375 30.4375 L 54.375 30.4375 L 54.375 34.28125 L 63.6875 34.28125 L 63.6875 30.4375 L 67.65625 30.4375 L 67.65625 36.78125 L 37.15625 36.78125 L 37.15625 30.4375 z M 38.6875 39.0625 L 66.125 39.0625 L 62.9375 41.5625 L 41.875 41.5625 L 38.6875 39.0625 z M 43.40625 43.84375 L 61.40625 43.84375 L 61.40625 59.03125 L 43.40625 59.03125 L 43.40625 43.84375 z M 41.9375 61.3125 L 62.875 61.3125 L 65.625 63.8125 L 39.21875 63.8125 L 41.9375 61.3125 z M 38.125 66.09375 L 66.6875 66.09375 L 66.6875 69.5625 L 38.125 69.5625 L 38.125 66.09375 z M 33.78125 71.84375 L 71.03125 71.84375 L 71.03125 74.34375 L 33.78125 74.34375 L 33.78125 71.84375 z "
       style="font-size:63.77760315px;font-style:normal;font-variant:normal;font-weight:normal;font-stretch:normal;line-height:125%;letter-spacing:0px;word-spacing:0px;fill:#ffffff;fill-opacity:1;stroke:none;font-family:DiagramTTHabsburg;-inkscape-font-specification:DiagramTTHabsburg"
       id="path3232"
       d="m 34.71875,26.65625 a 1.50015,1.50015 0 0 0 -1.34375,1.5 l 0,10.90625 a 1.50015,1.50015 0 0 0 0.59375,1.1875 l 5.65625,4.3125 0,13.78125 -4.8125,4.34375 a 1.50015,1.50015 0 0 0 -0.5,1.125 l 0,4.25 -2.8125,0 a 1.50015,1.50015 0 0 0 -1.5,1.5 l 0,7.0625 a 1.50015,1.50015 0 0 0 1.5,1.5 l 41.84375,0 a 1.50015,1.50015 0 0 0 1.5,-1.5 l 0,-7.0625 a 1.50015,1.50015 0 0 0 -1.5,-1.5 l -2.84375,0 0,-4.25 A 1.50015,1.50015 0 0 0 70,62.6875 l -4.8125,-4.34375 0,-13.78125 5.65625,-4.3125 a 1.50015,1.50015 0 0 0 0.59375,-1.1875 l 0,-10.90625 a 1.50015,1.50015 0 0 0 -1.5,-1.5 l -8.53125,0 a 1.50015,1.50015 0 0 0 -1.5,1.5 l 0,2.3125 -1.71875,0 0,-2.3125 a 1.50015,1.50015 0 0 0 -1.5,-1.5 l -8.5625,0 a 1.50015,1.50015 0 0 0 -1.5,1.5 l 0,2.3125 -1.71875,0 0,-2.3125 a 1.50015,1.50015 0 0 0 -1.5,-1.5 l -8.53125,0 a 1.50015,1.50015 0 0 0 -0.15625,0 z m 3.9375,5.28125 0.96875,0 0,2.34375 a 1.50015,1.50015 0 0 0 0.375,1 l -1.34375,0 0,-3.34375 z m 13.28125,0 0.9375,0 0,2.34375 a 1.50015,1.50015 0 0 0 0.375,1 l -1.71875,0 a 1.50015,1.50015 0 0 0 0.40625,-1 l 0,-2.34375 z m 13.25,0 0.96875,0 0,3.34375 -1.375,0 a 1.50015,1.50015 0 0 0 0.40625,-1 l 0,-2.34375 z m -20.28125,13.40625 15,0 0,12.1875 -15,0 0,-12.1875 z m -5.28125,22.25 25.5625,0 0,0.46875 -25.5625,0 0,-0.46875 z"
       transform="translate(-20.421875,-18.489607)" />
    <path
       style="fill:#ffffff;fill-opacity:1;fill-rule:nonzero;stroke:none"
       d="m 13.111607,53.344876 c -0.211214,0.925789 -0.18098,2.002905 -0.0061,2.929444 1.089783,0.362576 2.387828,0.05412 3.557064,0.156359 11.299257,0 22.598513,0 33.89777,0 0.845882,-0.368103 0.250033,-1.607836 0.428328,-2.344289 0.248452,-1.209524 -1.188276,-0.818981 -1.902144,-0.870473 -11.888784,0 -23.777566,0 -35.666349,0 -0.102861,0.04298 -0.20572,0.08597 -0.30858,0.128959 z"
       id="path2984"
       inkscape:connector-curvature="0" />
    <path
       style="fill:#ffffff;fill-opacity:1;fill-rule:nonzero;stroke:none"
       d="m 17.533055,47.596994 c -0.278536,1.134634 -0.0408,2.368693 -0.119748,3.541763 0.368103,0.845882 1.607835,0.250033 2.344289,0.428329 8.842896,0 17.685793,0 26.52869,0 0.845882,-0.368104 0.250033,-1.607836 0.428328,-2.344289 0.05068,-0.775756 0.173242,-2.08985 -1.017855,-1.754762 -9.285042,0 -18.570082,0 -27.855124,0 -0.10286,0.04298 -0.205721,0.08597 -0.30858,0.128959 z"
       id="path2986"
       inkscape:connector-curvature="0" />
    <path
       style="fill:#ffffff;fill-opacity:1;fill-rule:nonzero;stroke:none"
       d="m 21.364977,42.705766 c -0.942594,0.867521 -2.073709,1.620908 -2.79104,2.671292 0.306225,0.85316 1.504994,0.272095 2.196907,0.442144 7.909062,-0.04215 15.821534,0.0945 23.72844,-0.09672 0.641415,0.09907 1.021164,-0.678015 0.428327,-1.008642 -0.850894,-0.686556 -1.577012,-1.587506 -2.528515,-2.109399 -6.91926,0 -13.838519,0 -20.757779,0 l -0.138373,0.05074 -0.137967,0.05058 z"
       id="path2988"
       inkscape:connector-curvature="0" />
    <path
       style="fill:#ffffff;fill-opacity:1;fill-rule:nonzero;stroke:none"
       d="m 22.691411,25.34237 c -0.280675,1.625495 -0.0391,3.351566 -0.119748,5.015581 0.03783,3.480444 -0.0757,6.991244 0.05683,10.452697 0.540976,0.627462 1.665086,0.1369 2.434841,0.292344 5.305738,0 10.611476,0 15.917214,0 0.845882,-0.368104 0.250033,-1.607836 0.428328,-2.344289 -0.03785,-4.413858 0.07572,-8.858083 -0.05683,-13.252948 -0.540976,-0.627462 -1.665087,-0.1369 -2.434842,-0.292344 -5.305738,0 -10.611476,0 -15.917213,0 -0.102861,0.04298 -0.205721,0.08597 -0.308581,0.128959 z"
       id="path2990"
       inkscape:connector-curvature="0" />
    <path
       style="fill:#ffffff;fill-opacity:1;fill-rule:nonzero;stroke:none"
       d="m 24.980431,20.35903 c -2.135017,0.08012 -4.315072,-0.131173 -6.424916,0.193439 -0.742578,0.583866 0.381591,1.121647 0.774627,1.481584 0.97686,0.67458 1.823685,1.839585 3.154014,1.526371 6.733042,-0.02724 13.486298,0.067 20.206745,-0.04245 1.099539,-0.780532 2.232572,-1.620752 3.226362,-2.526971 0.279882,-0.994975 -1.235872,-0.548737 -1.809461,-0.641185 -6.375785,0.0043 -12.751609,-0.0097 -19.127371,0.0092 z"
       id="path2992"
       inkscape:connector-curvature="0" />
    <path
       style="fill:#ffffff;fill-opacity:1;fill-rule:nonzero;stroke:none"
       d="m 16.501384,11.930644 c -0.280676,1.625494 -0.0391,3.351566 -0.119748,5.015581 0.042,0.712007 -0.317012,2.156366 0.870473,1.902143 9.972822,0 19.945643,0 29.918466,0 0.845882,-0.368103 0.250033,-1.607835 0.428328,-2.344288 -0.08046,-1.520033 0.164448,-3.10532 -0.128959,-4.582647 -1.330881,-0.279897 -2.761917,-0.03973 -4.13129,-0.119748 -0.845883,0.368103 -0.250033,1.607835 -0.428328,2.344289 0.139595,1.028491 0.08159,1.859375 -1.179054,1.487633 -2.465571,0 -4.931142,0 -7.396713,0 -0.0786,-1.230248 0.160953,-2.524304 -0.12896,-3.712174 -1.330881,-0.279897 -2.761917,-0.03973 -4.13129,-0.119748 -0.845882,0.368103 -0.250033,1.607835 -0.428329,2.344289 0.139596,1.028491 0.08159,1.859375 -1.179052,1.487633 -2.465572,0 -4.931143,0 -7.396714,0 -0.0786,-1.230248 0.160953,-2.524304 -0.128959,-3.712174 -1.330881,-0.279897 -2.761917,-0.03973 -4.131291,-0.119748 -0.102861,0.04299 -0.20572,0.08597 -0.30858,0.128959 z"
       id="path2994"
       inkscape:connector-curvature="0" />
    <text
       xml:space="preserve"
       style="font-size:63.77760315px;font-style:normal;font-variant:normal;font-weight:normal;font-stretch:normal;line-height:125%;letter-spacing:0px;word-spacing:0px;fill:#000000;fill-opacity:1;stroke:none;font-family:DiagramTTHabsburg;-inkscape-font-specification:DiagramTTHabsburg"
       x="0.11119843"
       y="46.797497"
       id="text5313"
       sodipodi:linespacing="125%"><tspan
         sodipodi:role="line"
         id="tspan5315"
         x="0.11119843"
         y="46.797497">R</tspan></text>
  </g>
</svg>
